<svg width="20" height="20" viewBox="0 0 20 20" fill="none" xmlns="http://www.w3.org/2000/svg">
<rect width="20" height="20" rx="10" fill="#1B547B"/>
<path d="M11.3913 9.4862L12.2982 7.95314L14.7428 11.7461L14.744 12.474L14.7361 7.46507C14.7303 7.34263 14.665 7.23063 14.5609 7.16457L10.1596 4.64263C10.0567 4.5922 9.92612 4.59279 9.82336 4.64423C9.80947 4.65112 9.79639 4.65867 9.78398 4.66691L9.76862 4.67651L5.49656 7.14263L5.48 7.15013C5.45868 7.15988 5.43711 7.1723 5.41691 7.18672C5.33589 7.24457 5.28212 7.33014 5.26472 7.42613C5.2621 7.44067 5.26017 7.45547 5.25928 7.47045L5.26599 11.5522L7.54302 8.03649C7.82973 7.57031 8.45432 7.42015 9.03416 7.42831L9.71469 7.4462L5.70486 13.8521L6.17754 14.1232L10.2354 7.45271L12.029 7.44622L7.98159 14.285L9.66824 15.2514L9.86976 15.3669C9.955 15.4014 10.0555 15.4032 10.1415 15.3722L14.6045 12.7957L13.7512 13.2883L11.3913 9.4862ZM11.7373 14.4509L10.0338 11.7875L11.0737 10.0297L13.311 13.5425L11.7373 14.4509Z" fill="#196497"/>
<path d="M10.0349 11.7874L11.7384 14.4508L13.3121 13.5423L11.0748 10.0295L10.0349 11.7874Z" fill="#28A0F0"/>
<path d="M14.7448 12.4733L14.7436 11.7453L12.299 7.95239L11.3921 9.48545L13.752 13.2875L14.6053 12.7949C14.689 12.7272 14.7396 12.6279 14.7449 12.5206L14.7448 12.4733Z" fill="#28A0F0"/>
<path d="M4.5 13.1604L5.70494 13.8521L9.71474 7.44618L9.03422 7.42829C8.45437 7.42013 7.82976 7.5703 7.54308 8.03647L5.26605 11.5522L4.5 12.7247V13.1604Z" fill="white"/>
<path d="M12.0301 7.44604L10.2365 7.45253L6.17871 14.123L7.59705 14.9365L7.98276 14.2849L12.0301 7.44604Z" fill="white"/>
<path d="M15.4999 7.43659C15.4849 7.06293 15.2818 6.72087 14.9637 6.52172L10.5048 3.96735C10.1901 3.80951 9.79701 3.8093 9.48176 3.96725C9.4445 3.98597 5.14558 6.4696 5.14558 6.4696C5.08608 6.49803 5.02877 6.53188 4.97487 6.57032C4.69088 6.77307 4.51778 7.08814 4.5 7.43428V12.7243L5.26605 11.5518L5.25936 7.47004C5.26025 7.45511 5.26213 7.44041 5.2648 7.42592C5.28212 7.32988 5.33595 7.24421 5.41699 7.18631C5.43722 7.17189 9.80957 4.65071 9.82346 4.64379C9.92623 4.59238 10.0569 4.59177 10.1597 4.6422L14.561 7.16408C14.6651 7.23014 14.7304 7.34215 14.7362 7.46459V12.5209C14.7308 12.6281 14.6883 12.7275 14.6046 12.7952L13.7513 13.2878L13.3111 13.542L11.7374 14.4505L10.1415 15.3717C10.0556 15.4027 9.95508 15.4009 9.86984 15.3664L7.98167 14.2846L7.59596 14.9362L9.29279 15.9094C9.3489 15.9412 9.39889 15.9694 9.43992 15.9924C9.50344 16.0278 9.54673 16.0516 9.56202 16.059C9.68262 16.1173 9.85615 16.1513 10.0125 16.1513C10.1559 16.1513 10.2957 16.1251 10.428 16.0734L15.0633 13.3993C15.3293 13.194 15.4859 12.8843 15.4999 12.5488V7.43659Z" fill="#28A0F0"/>
</svg>
 