<svg data-v-22f4043f="" xmlns="http://www.w3.org/2000/svg" fill="none" viewBox="0 0 24 24" data-v-inspector="components/ChainLogo.vue:14:3" class="w-5 h-5 absolute -left-1 -bottom-1"><rect width="22" height="22" x="1" y="1" fill="url(#arb-0v068lk2n)" rx="11" data-v-inspector="components/ChainLogo.vue:15:5"></rect><path fill="#28A0F0" d="m12.031 13.969 1.704 2.673 1.574-.912-2.238-3.526-1.04 1.765ZM16.743 14.658v-.73l-2.445-3.808-.907 1.539 2.36 3.817.853-.495a.378.378 0 0 0 .14-.275v-.048Z" data-v-inspector="components/ChainLogo.vue:16:5"></path><path fill="#fff" d="m6.5 15.347 1.205.694 4.01-6.43-.68-.018c-.58-.008-1.205.142-1.492.61l-2.277 3.53L6.5 14.91v.437ZM14.023 9.61l-1.793.007-4.058 6.696 1.418.817.386-.654 4.047-6.865Z" data-v-inspector="components/ChainLogo.vue:18:5"></path><path fill="#96BEDC" d="M17.5 9.602a1.143 1.143 0 0 0-.536-.919l-4.46-2.564a1.16 1.16 0 0 0-1.022 0c-.037.019-4.336 2.512-4.336 2.512a1.146 1.146 0 0 0-.646.968v5.31l.766-1.176-.007-4.098a.377.377 0 0 1 .158-.285 2599 2599 0 0 1 4.406-2.552.388.388 0 0 1 .337-.002l4.401 2.532c.104.066.17.179.175.302v5.076a.37.37 0 0 1-.131.275l-.854.494-.44.255-1.574.912-1.595.925a.387.387 0 0 1-.272-.005l-1.888-1.086-.386.654 1.697.977a43.674 43.674 0 0 0 .27.15c.12.059.293.093.45.093.143 0 .283-.026.415-.078l4.635-2.685c.266-.206.423-.517.437-.854V9.602Z" data-v-inspector="components/ChainLogo.vue:20:5"></path><!--v-if--><defs data-v-inspector="components/ChainLogo.vue:23:5"><linearGradient id="arb-0v068lk2n" x1="12" x2="12" y1="2" y2="22" gradientUnits="userSpaceOnUse" data-v-inspector="components/ChainLogo.vue:24:7"><stop stop-color="#495775" data-v-inspector="components/ChainLogo.vue:25:9"></stop><stop offset="1" stop-color="#2D374B" data-v-inspector="components/ChainLogo.vue:26:9"></stop></linearGradient></defs></svg>