<svg width="20" height="20" viewBox="0 0 20 20" fill="none" xmlns="http://www.w3.org/2000/svg">
<rect width="20" height="20" rx="10" fill="#E84142"/>
<path d="M10 17.5C14.1421 17.5 17.5 14.1421 17.5 10C17.5 5.85786 14.1421 2.5 10 2.5C5.85786 2.5 2.5 5.85786 2.5 10C2.5 14.1421 5.85786 17.5 10 17.5Z" fill="#E84142"/>
<path d="M12.6468 10.1948C12.9067 9.74595 13.326 9.74595 13.5858 10.1948L15.2039 13.0353C15.4638 13.4841 15.2512 13.8503 14.7315 13.8503H11.4716C10.9578 13.8503 10.7452 13.4841 10.9992 13.0353L12.6468 10.1948ZM9.5169 4.72626C9.77675 4.27744 10.1901 4.27744 10.45 4.72626L10.8102 5.37587L11.6606 6.86996C11.8673 7.29516 11.8673 7.79713 11.6606 8.22233L8.80824 13.1652C8.5484 13.5668 8.1173 13.8208 7.63895 13.8503H5.27084C4.75116 13.8503 4.53856 13.49 4.7984 13.0353L9.5169 4.72626Z" fill="white"/>
</svg>
