<svg width="86" height="12" viewBox="0 0 86 12" fill="none" xmlns="http://www.w3.org/2000/svg">
<g opacity="0.8" clip-path="url(#clip0_4257_5633)">
<path d="M0 1.39095H2.67309V10.7501H0V1.39095ZM13.5659 1.39095V10.7501H11.3654L7.19373 5.76292V10.7501H4.5747V1.39095H6.77521L10.9468 6.37774V1.39116H13.5659V1.39095ZM18.7724 10.9374C18.0074 10.9374 17.2649 10.8438 16.5448 10.6567C15.8246 10.4694 15.2397 10.2198 14.7899 9.90787L15.6672 7.95572C16.0904 8.23211 16.5809 8.45496 17.1388 8.62429C17.6968 8.7938 18.2458 8.87835 18.7858 8.87835C19.8119 8.87835 20.3249 8.62408 20.3249 8.11614C20.3249 7.84883 20.1764 7.65265 19.8794 7.52799C19.5914 7.39423 19.1233 7.25593 18.4754 7.11348C17.7644 6.96195 17.1704 6.80133 16.6934 6.63201C16.2198 6.45619 15.7977 6.16681 15.4648 5.78979C15.1229 5.40651 14.9519 4.88947 14.9519 4.23867C14.9519 3.66831 15.1093 3.15581 15.4243 2.70121C15.7395 2.23772 16.2072 1.87222 16.8282 1.60492C17.4584 1.33741 18.2278 1.20386 19.1369 1.20386C19.7578 1.20386 20.37 1.27497 20.9729 1.41762C21.5757 1.55137 22.1068 1.7519 22.5658 2.0192L21.7423 3.98482C20.8424 3.50334 19.9694 3.2627 19.1233 3.2627C18.5923 3.2627 18.2053 3.34291 17.9623 3.50334C17.7193 3.65487 17.5979 3.85539 17.5979 4.10493C17.5979 4.35466 17.7419 4.54176 18.0299 4.66662C18.318 4.79148 18.7814 4.92068 19.4203 5.05444C20.1404 5.20598 20.7344 5.37074 21.2022 5.54915C21.6793 5.71846 22.0888 5.99466 22.4309 6.37815C22.7818 6.75233 22.9574 7.26502 22.9574 7.91561C22.9574 8.47709 22.7997 8.98524 22.4848 9.43983C22.1698 9.89443 21.6974 10.2599 21.0673 10.5361C20.4372 10.8037 19.6722 10.9372 18.7724 10.9372V10.9374ZM26.0718 3.49011H23.1694V1.39095H31.6339V3.49011H28.7448V10.7501H26.0718V3.49011ZM38.4867 8.93169H34.4906L33.7481 10.7501H31.0212L35.1925 1.39095H37.8251L42.0102 10.7501H39.2292L38.4867 8.93169ZM37.7037 6.97974L36.4887 3.98482L35.2736 6.97974H37.7037Z" fill="currentColor"/>
<path d="M48.899 11.3701C48.899 11.7127 49.1803 11.9937 49.5243 11.9587C52.5736 11.6488 54.9524 9.09713 54.9524 5.99513C54.9524 2.89312 52.5736 0.34143 49.5243 0.0315384C49.1803 -0.00360596 48.899 0.27755 48.899 0.620105V2.27396C48.899 2.61651 49.1822 2.88774 49.5212 2.95535C50.9524 3.24125 52.0301 4.49343 52.0301 5.99513C52.0301 7.49684 50.9524 8.749 49.5212 9.03492C49.1822 9.10251 48.899 9.37395 48.899 9.71631V11.3701ZM47.0203 1.14892C47.0203 0.72719 46.6035 0.42991 46.2219 0.61659C44.2215 1.59505 42.8457 3.6359 42.8457 5.99513C42.8457 8.35434 44.2215 10.3952 46.2219 11.3737C46.6035 11.5604 47.0203 11.2631 47.0203 10.8413V1.14913V1.14892Z" fill="#3B82F6"/>
<path d="M63.2724 8.93162H59.2763L58.5338 10.75H55.8066L59.9782 1.39087H62.6108L66.7959 10.75H64.0149L63.2724 8.93162ZM62.4894 6.97965L61.2743 3.98452L60.0592 6.97965H62.4894ZM71.8735 1.39087C72.7286 1.39087 73.4712 1.53351 74.1011 1.8188C74.7312 2.09499 75.2172 2.49606 75.5593 3.02198C75.9012 3.53882 76.0721 4.14949 76.0721 4.85363C76.0721 5.55796 75.9012 6.16844 75.5593 6.68527C75.2172 7.2025 74.7312 7.60358 74.1011 7.88887C73.4712 8.16506 72.7286 8.30336 71.8735 8.30336H70.2265V10.75H67.5535V1.39087H71.8735ZM71.7117 6.21744C72.2605 6.21744 72.6747 6.10167 72.9535 5.86992C73.2327 5.62927 73.372 5.29045 73.372 4.85363C73.372 4.41701 73.2327 4.07838 72.9535 3.83755C72.6747 3.5969 72.2605 3.47658 71.7117 3.47658H70.2265V6.21744H71.7117ZM81.6955 1.39087C82.5505 1.39087 83.293 1.53351 83.9229 1.8188C84.553 2.09499 85.0392 2.49606 85.3811 3.02198C85.7232 3.53882 85.894 4.14949 85.894 4.85363C85.894 5.55796 85.7232 6.16844 85.3811 6.68527C85.0392 7.2025 84.553 7.60358 83.9229 7.88887C83.293 8.16506 82.5505 8.30336 81.6955 8.30336H80.0485V10.75H77.3754V1.39087H81.6955ZM81.5336 6.21744C82.0825 6.21744 82.4965 6.10167 82.7755 5.86992C83.0547 5.62927 83.194 5.29045 83.194 4.85363C83.194 4.41701 83.0547 4.07838 82.7755 3.83755C82.4965 3.5969 82.0825 3.47658 81.5336 3.47658H80.0485V6.21744H81.5336Z" fill="currentColor"/>
</g>
<defs>
<clipPath id="clip0_4257_5633">
<rect width="86" height="12" fill="white"/>
</clipPath>
</defs>
</svg>
