<svg width="20" height="20" viewBox="0 0 20 20" fill="none" xmlns="http://www.w3.org/2000/svg">
<path d="M0 10C0 4.47715 4.47715 0 10 0C15.5228 0 20 4.47715 20 10C20 15.5228 15.5228 20 10 20C4.47715 20 0 15.5228 0 10Z" fill="#627EEA"/>
<path d="M9.99902 3.84741V8.3961L13.8436 10.114L9.99902 3.84741Z" fill="white" fill-opacity="0.602"/>
<path d="M9.99893 3.84741L6.15381 10.114L9.99893 8.3961V3.84741Z" fill="white"/>
<path d="M9.99902 13.0618V16.1525L13.8462 10.83L9.99902 13.0618Z" fill="white" fill-opacity="0.602"/>
<path d="M9.99893 16.1525V13.0612L6.15381 10.83L9.99893 16.1525Z" fill="white"/>
<path d="M9.99902 12.3463L13.8436 10.114L9.99902 8.39709V12.3463Z" fill="white" fill-opacity="0.2"/>
<path d="M6.15381 10.114L9.99893 12.3463V8.39709L6.15381 10.114Z" fill="white" fill-opacity="0.602"/>
</svg>
