<svg width="20" height="20" viewBox="0 0 20 20" fill="none" xmlns="http://www.w3.org/2000/svg">
<rect width="20" height="20" rx="10" fill="#FF0420"/>
<path d="M10 19C14.9706 19 19 14.9706 19 10C19 5.02944 14.9706 1 10 1C5.02944 1 1 5.02944 1 10C1 14.9706 5.02944 19 10 19Z" fill="#FF0420"/>
<path d="M7.11168 12.6252C6.59659 12.6471 6.0883 12.5011 5.66336 12.2092C5.47979 12.069 5.33313 11.8861 5.23608 11.6765C5.13903 11.4669 5.09451 11.2368 5.10637 11.0061C5.10863 10.8717 5.12105 10.7376 5.14353 10.6051C5.20791 10.248 5.2995 9.81972 5.4183 9.32018C5.75501 7.95852 6.62393 7.27769 8.02508 7.27769C8.37627 7.27194 8.72496 7.33765 9.04997 7.47082C9.33847 7.58389 9.5867 7.78042 9.76294 8.03528C9.94066 8.29789 10.0315 8.60965 10.0226 8.92661C10.0201 9.05854 10.0076 9.1901 9.98545 9.32018C9.91111 9.76086 9.82201 10.1892 9.71814 10.6051C9.54503 11.2833 9.24549 11.7908 8.81952 12.1276C8.39398 12.4593 7.8247 12.6252 7.11168 12.6252ZM7.21572 11.5556C7.47295 11.5627 7.72392 11.4756 7.92138 11.3106C8.1396 11.1127 8.28806 10.8495 8.34464 10.5604C8.45857 10.0952 8.54513 9.68918 8.60431 9.34241C8.62423 9.23711 8.63418 9.13017 8.63401 9.02301C8.63401 8.57237 8.39885 8.34711 7.92852 8.34722C7.6692 8.341 7.41624 8.42794 7.21555 8.59228C7.00136 8.79228 6.85579 9.0548 6.79959 9.34241C6.71044 9.67414 6.62134 10.0801 6.53229 10.5604C6.51214 10.6632 6.50219 10.7677 6.50259 10.8724C6.50259 11.3279 6.7403 11.5556 7.21572 11.5556Z" fill="white"/>
<path d="M10.3649 12.5513C10.3413 12.5527 10.3177 12.5488 10.2958 12.5398C10.274 12.5308 10.2544 12.517 10.2386 12.4994C10.2139 12.4595 10.2059 12.4114 10.2164 12.3657L11.2413 7.53803C11.2504 7.48477 11.2794 7.43695 11.3224 7.4043C11.3622 7.37146 11.412 7.35314 11.4636 7.35237H13.4393C13.9044 7.32955 14.3655 7.44869 14.7613 7.694C14.9241 7.8006 15.0562 7.94777 15.1448 8.121C15.2334 8.29423 15.2753 8.48754 15.2664 8.68189C15.2657 8.81189 15.2507 8.94142 15.2217 9.06815C15.1398 9.56856 14.8719 10.0196 14.4716 10.3308C14.1003 10.6031 13.5903 10.7393 12.9417 10.7393H11.9392L11.5975 12.3658C11.5884 12.4191 11.5594 12.4669 11.5164 12.4996C11.4766 12.5324 11.4269 12.5507 11.3754 12.5515L10.3649 12.5513ZM12.9941 9.71409C13.1887 9.71838 13.3793 9.65837 13.5363 9.54335C13.6979 9.4247 13.8092 9.24984 13.8482 9.05322C13.862 8.97972 13.8695 8.90517 13.8705 8.83039C13.8747 8.76998 13.8656 8.70938 13.8438 8.65289C13.8219 8.59641 13.7879 8.54541 13.7442 8.50353C13.6203 8.412 13.4668 8.36967 13.3135 8.38473H12.4223L12.1401 9.71409H12.9941Z" fill="white"/>
</svg>
