<svg width="20" height="20" viewBox="0 0 20 20" fill="none" xmlns="http://www.w3.org/2000/svg">
<path d="M0 10C0 4.47715 4.47715 0 10 0C15.5228 0 20 4.47715 20 10C20 15.5228 15.5228 20 10 20C4.47715 20 0 15.5228 0 10Z" fill="#8672E8"/>
<path d="M12.7421 8.0551C12.6392 7.99263 12.5228 7.95977 12.4043 7.95977C12.2858 7.95977 12.1694 7.99263 12.0665 8.0551L10.5167 9.0276L9.46362 9.66184L7.9138 10.6343C7.71511 10.7612 7.45681 10.7612 7.23824 10.6343L6.00634 9.87325C5.90557 9.81018 5.82164 9.72075 5.76252 9.61344C5.7034 9.50613 5.67105 9.38451 5.66856 9.26015V7.75913C5.66856 7.50543 5.78777 7.27288 6.00634 7.14603L7.21837 6.40609C7.41707 6.27924 7.67537 6.27924 7.89393 6.40609L9.10597 7.14603C9.30466 7.27288 9.44375 7.50543 9.44375 7.75913V8.73162L10.4968 8.07625V7.10375C10.4968 6.85005 10.3776 6.6175 10.159 6.49065L7.9138 5.09533C7.81091 5.03286 7.69449 5 7.57602 5C7.45756 5 7.34114 5.03286 7.23824 5.09533L4.95326 6.49065C4.7347 6.6175 4.61548 6.85005 4.61548 7.10375V9.91553C4.61548 10.1692 4.7347 10.4018 4.95326 10.5286L7.23824 11.924C7.43694 12.0508 7.69524 12.0508 7.9138 11.924L9.46362 10.9726L10.5167 10.3172L12.0665 9.36586C12.2652 9.23901 12.5235 9.23901 12.7421 9.36586L13.9541 10.1058C14.1528 10.2327 14.2919 10.4652 14.2919 10.7189V12.2199C14.2919 12.4736 14.1727 12.7062 13.9541 12.833L12.7421 13.5941C12.5434 13.721 12.2851 13.721 12.0665 13.5941L10.8545 12.8542C10.7537 12.7911 10.6698 12.7017 10.6107 12.5944C10.5515 12.487 10.5192 12.3654 10.5167 12.2411V11.2686L9.46362 11.924V12.8964C9.46362 13.1501 9.58284 13.3827 9.8014 13.5095L12.0864 14.9049C12.2851 15.0317 12.5434 15.0317 12.7619 14.9049L15.0469 13.5095C15.2456 13.3827 15.3847 13.1501 15.3847 12.8964V10.0847C15.3847 9.83097 15.2655 9.59841 15.0469 9.47157L12.7421 8.0551Z" fill="white"/>
</svg>
