<?xml version="1.0" standalone="no"?>
<!DOCTYPE svg PUBLIC "-//W3C//DTD SVG 20010904//EN"
 "http://www.w3.org/TR/2001/REC-SVG-20010904/DTD/svg10.dtd">
<svg version="1.0" xmlns="http://www.w3.org/2000/svg"
 width="512.000000pt" height="512.000000pt" viewBox="0 0 512.000000 512.000000"
 preserveAspectRatio="xMidYMid meet">
<metadata>
Created by potrace 1.14, written by Peter Selinger 2001-2017
</metadata>
<g transform="translate(0.000000,512.000000) scale(0.100000,-0.100000)"
fill="#000000" stroke="none">
<path d="M3288 4985 c-2 -1 -28 -5 -58 -8 -48 -5 -98 -14 -175 -31 -46 -10
-185 -66 -250 -101 -95 -51 -205 -134 -290 -219 -121 -120 -247 -203 -380
-249 -61 -21 -83 -28 -140 -43 -28 -7 -85 -16 -125 -19 -75 -7 -132 -15 -185
-25 -27 -6 -61 -12 -74 -15 -13 -2 -65 -16 -115 -31 -746 -220 -1280 -866
-1353 -1636 -8 -95 -9 -220 0 -333 6 -84 10 -114 22 -175 3 -14 8 -38 11 -55
2 -16 7 -38 10 -47 3 -9 6 -25 9 -35 16 -84 92 -281 154 -398 59 -113 122
-207 205 -310 76 -94 633 -652 723 -723 270 -216 610 -356 948 -389 129 -13
337 -8 470 12 17 2 68 13 115 25 47 11 95 23 107 25 107 24 368 146 493 230
354 240 604 574 734 980 58 183 77 314 81 575 6 311 12 378 41 471 35 112 73
166 223 318 172 176 249 293 305 465 37 114 50 199 50 331 0 227 -61 421 -193
605 -73 102 -484 514 -582 583 -155 109 -351 187 -539 213 -47 6 -237 14 -242
9z"/>
</g>
</svg>
