<?xml version="1.0" standalone="no"?>
<!DOCTYPE svg PUBLIC "-//W3C//DTD SVG 20010904//EN"
 "http://www.w3.org/TR/2001/REC-SVG-20010904/DTD/svg10.dtd">
<svg version="1.0" xmlns="http://www.w3.org/2000/svg"
 width="1024.000000pt" height="1024.000000pt" viewBox="0 0 1024.000000 1024.000000"
 preserveAspectRatio="xMidYMid meet">
<metadata>
Created by potrace 1.14, written by Peter Selinger 2001-2017
</metadata>
<g transform="translate(0.000000,1024.000000) scale(0.100000,-0.100000)"
fill="#000000" stroke="none">
<path d="M5481 10224 c-163 -44 -306 -197 -347 -373 -17 -72 -19 -1567 -3
-1646 20 -92 82 -206 152 -276 73 -73 74 -74 142 -115 67 -41 182 -81 276 -98
53 -9 215 -56 297 -85 163 -59 421 -180 463 -217 8 -8 19 -14 23 -14 8 0 220
-143 261 -177 153 -126 329 -298 420 -413 33 -41 63 -77 66 -80 20 -18 187
-283 232 -370 144 -277 254 -621 281 -881 2 -19 7 -63 12 -99 15 -127 7 -591
-11 -621 -2 -3 -6 -27 -10 -55 -10 -91 -61 -305 -100 -419 -92 -273 -237 -552
-388 -750 -21 -27 -51 -66 -65 -85 -119 -155 -329 -351 -552 -518 -95 -71
-336 -203 -475 -261 -44 -18 -89 -37 -100 -42 -51 -23 -248 -81 -353 -104 -64
-15 -131 -33 -149 -40 -18 -8 -33 -12 -33 -9 0 2 -18 -7 -40 -21 -22 -14 -42
-25 -45 -25 -4 0 -27 -14 -53 -32 -74 -51 -156 -142 -195 -215 -69 -132 -67
-103 -66 -963 0 -521 3 -791 11 -825 41 -189 198 -351 373 -385 47 -8 200 -6
255 4 14 2 75 12 135 22 61 9 119 18 130 20 11 2 31 5 45 8 13 3 42 8 65 12
22 3 126 27 230 54 591 151 1098 377 1595 711 129 86 175 119 294 211 334 258
679 605 930 938 31 41 63 84 72 95 29 38 244 363 244 370 0 4 8 19 19 33 96
136 295 554 405 850 91 245 210 681 231 849 2 12 6 34 9 50 3 15 8 46 11 68 4
22 10 65 15 95 5 30 12 83 16 117 3 35 8 75 10 90 25 197 25 900 -1 1028 -2
11 -7 47 -10 80 -3 33 -7 71 -9 85 -8 41 -16 99 -21 143 -3 23 -8 53 -10 67
-20 97 -37 178 -39 195 -2 11 -7 36 -11 55 -5 19 -9 37 -10 40 -1 3 -5 21 -9
40 -15 66 -75 275 -111 385 -135 417 -343 849 -582 1215 -72 109 -301 420
-358 485 -14 17 -50 57 -78 90 -162 186 -421 439 -582 568 -11 9 -40 32 -65
53 -446 367 -1049 694 -1630 882 -106 34 -359 105 -418 117 -230 45 -335 65
-372 70 -25 3 -58 8 -74 11 -100 20 -284 25 -345 8z"/>
<path d="M2964 9773 c-75 -17 -241 -100 -441 -220 -53 -32 -108 -65 -122 -73
-83 -49 -431 -295 -451 -319 -3 -3 -27 -24 -55 -46 -186 -147 -457 -409 -625
-604 -30 -35 -60 -69 -65 -75 -6 -6 -45 -54 -86 -106 -325 -411 -580 -853
-766 -1330 -46 -118 -158 -453 -167 -499 -3 -14 -16 -69 -30 -121 -14 -52 -27
-106 -30 -120 -3 -14 -8 -36 -11 -50 -11 -46 -53 -284 -60 -339 -4 -30 -8 -62
-10 -72 -2 -10 -7 -49 -10 -86 -4 -37 -8 -75 -10 -83 -26 -98 -26 -765 0
-1025 91 -912 436 -1809 977 -2542 37 -51 75 -101 83 -110 8 -10 38 -47 66
-83 154 -194 404 -454 609 -632 36 -31 76 -66 90 -78 14 -12 41 -34 60 -49 19
-14 37 -28 40 -31 3 -3 61 -48 130 -98 69 -51 130 -96 135 -100 6 -4 39 -26
75 -50 36 -23 70 -46 76 -51 23 -19 302 -179 408 -235 127 -65 194 -87 274
-88 77 -1 120 7 186 36 124 55 213 151 266 286 l25 65 3 4255 c2 4129 1 4257
-17 4320 -40 140 -118 239 -241 307 -101 55 -199 70 -306 46z"/>
</g>
</svg>
