<svg width="40" height="40" viewBox="0 0 40 40" fill="none"
    xmlns="http://www.w3.org/2000/svg">
    <rect width="40" height="40" rx="20" fill="url(#paint0_linear_3455_41838)"/>
    <g clip-path="url(#clip0_3455_41838)">
        <path d="M27.5752 15.7943C27.4952 11.5649 24.0272 8.20553 19.8272 8.28609C15.7392 8.36262 12.4472 11.6817 12.3712 15.7943C12.3712 15.8145 12.3672 15.8346 12.3672 15.8507V15.9675V29.8118C12.3672 30.2831 12.7472 30.6617 13.2112 30.6617C13.6752 30.6617 14.0552 30.2791 14.0552 29.8118V27.3386C14.0552 26.8673 14.4352 26.4887 14.8992 26.4887C15.3632 26.4887 15.7432 26.8714 15.7432 27.3386V28.5108C15.7552 28.9821 16.1392 29.3526 16.6072 29.3446C17.0592 29.3365 17.4232 28.9659 17.4352 28.5108V27.3386C17.4352 26.8673 17.8152 26.4887 18.2792 26.4887C18.7472 26.4887 19.1232 26.8714 19.1232 27.3386V27.6609C19.1232 28.1321 19.5032 28.5108 19.9672 28.5108C20.4352 28.5108 20.8112 28.1281 20.8112 27.6609V27.3386C20.8232 26.8673 21.2072 26.4968 21.6752 26.5048C22.1272 26.5129 22.4912 26.8835 22.5032 27.3386V28.5108C22.5032 28.9821 22.8832 29.3607 23.3472 29.3607C23.8112 29.3607 24.1992 28.9861 24.1992 28.5148V27.3427C24.1992 26.8714 24.5792 26.4927 25.0432 26.4927C25.5112 26.4927 25.8872 26.8754 25.8872 27.3427V29.8159C25.8872 30.2871 26.2672 30.6658 26.7312 30.6658C27.1952 30.6658 27.5752 30.2831 27.5752 29.8159V15.8547C27.5792 15.8346 27.5792 15.8145 27.5752 15.7943ZM17.1672 17.0229C16.4192 17.0229 15.8152 16.326 15.8152 15.46C15.8152 14.594 16.4232 13.8971 17.1672 13.8971C17.9112 13.8971 18.5192 14.594 18.5192 15.46C18.5192 16.326 17.9152 17.0229 17.1672 17.0229ZM20.0312 19.2302C19.3512 19.2302 18.8032 18.8234 18.8032 18.3199C18.8032 17.8164 19.3552 18.1225 20.0312 18.1225C20.7072 18.1225 21.2592 17.8204 21.2592 18.3199C21.2592 18.8194 20.7112 19.2262 20.0312 19.2302ZM22.7792 17.0229C22.0312 17.0229 21.4272 16.326 21.4272 15.46C21.4272 14.594 22.0312 13.8971 22.7792 13.8971C23.5272 13.8971 24.1312 14.594 24.1312 15.46C24.1312 16.326 23.5232 17.0229 22.7792 17.0229Z" fill="white"/>
    </g>
    <defs>
        <linearGradient id="paint0_linear_3455_41838" x1="40" y1="2.55575e-06" x2="-5.36782" y2="32.5089" gradientUnits="userSpaceOnUse">
            <stop stop-color="#DC66D0"/>
            <stop offset="1" stop-color="#5CCBDD"/>
        </linearGradient>
        <clipPath id="clip0_3455_41838">
            <rect width="16" height="23" fill="white" transform="translate(12 8)"/>
        </clipPath>
    </defs>
</svg>
