<svg data-v-7f224da0="" viewBox="0 0 40 40" fill="none"
    xmlns="http://www.w3.org/2000/svg" class="mr-4 h-4 w-4">
    <path d="M31.224 12.855c-.138-7.24-6.118-12.99-13.36-12.853-7.05.131-12.726 5.813-12.857 12.853 0 .034-.007.069-.007.096V36.85a1.455 1.455 0 002.91 0v-4.233a1.455 1.455 0 012.912 0v2.006c.02.807.682 1.441 1.49 1.427a1.463 1.463 0 001.427-1.427v-2.006a1.455 1.455 0 012.91 0v.551a1.455 1.455 0 002.912 0v-.551a1.462 1.462 0 011.49-1.427c.779.013 1.407.648 1.427 1.427v2.006c0 .807.656 1.455 1.456 1.455.8 0 1.469-.641 1.469-1.448v-2.006a1.455 1.455 0 012.91 0v4.233a1.455 1.455 0 002.911 0V12.958a.26.26 0 000-.103zm-17.947 2.103c-1.29 0-2.331-1.193-2.331-2.676 0-1.482 1.048-2.675 2.331-2.675s2.331 1.193 2.331 2.675c0 1.483-1.041 2.676-2.331 2.676zm4.939 3.778c-1.173 0-2.118-.696-2.118-1.558 0-.862.952-.338 2.118-.338 1.165 0 2.117-.517 2.117.338s-.945 1.551-2.117 1.558zm4.738-3.778c-1.29 0-2.331-1.193-2.331-2.676 0-1.482 1.041-2.675 2.331-2.675s2.332 1.193 2.332 2.675c0 1.483-1.049 2.676-2.332 2.676z" fill="url(#aave-v3_svg__paint0_linear_215_25)"></path>
    <circle cx="26.311" cy="31.148" r="8.852" fill="#fff" fill-opacity=".9"></circle>
    <path d="M23.005 34.098l2.211-6.295c.1-.217.244-.325.434-.325a.44.44 0 01.272.081.41.41 0 01.163.326v.054a.21.21 0 01-.027.081l-2.32 6.323c-.109.361-.367.542-.774.542-.362 0-.606-.18-.732-.542l-2.361-6.296a.475.475 0 01-.027-.149c0-.045.013-.095.04-.149a.573.573 0 01.109-.15.487.487 0 01.312-.121c.226 0 .37.1.434.298l2.266 6.322zm6.023-3.337c.46 0 .84-.104 1.14-.312.334-.244.501-.575.501-.99 0-.38-.145-.697-.434-.95-.262-.217-.606-.317-1.031-.299-.344 0-.814.095-1.411.285a.759.759 0 01-.285.068c-.081 0-.158-.04-.23-.122a.383.383 0 01-.11-.258c0-.163.082-.28.245-.353a4.542 4.542 0 011.764-.407c.705 0 1.28.168 1.723.502.488.353.733.855.733 1.506 0 .416-.14.778-.421 1.086-.262.28-.606.47-1.031.57.47.09.85.307 1.14.65.289.335.434.715.434 1.14 0 .416-.073.756-.217 1.018-.145.253-.33.461-.557.624-.434.317-1.004.475-1.71.475-.424 0-.845-.073-1.26-.217-.3-.09-.503-.181-.611-.272-.1-.1-.15-.19-.15-.271 0-.09.037-.172.109-.244.081-.082.163-.122.244-.122.081 0 .15.013.204.04.054.028.135.06.244.095.117.028.24.064.366.109.271.081.543.122.814.122.271 0 .498-.027.678-.081.181-.055.335-.136.462-.245.271-.235.416-.547.434-.936 0-.461-.172-.836-.516-1.126-.298-.253-.692-.37-1.18-.352h-.393a.325.325 0 01-.258-.109.478.478 0 01-.082-.271c0-.09.027-.168.082-.231.054-.072.14-.113.258-.122h.312z" fill="url(#aave-v3_svg__paint1_linear_215_25)"></path>
    <defs>
        <linearGradient id="aave-v3_svg__paint0_linear_215_25" x1="4.061" y1="36.636" x2="37.76" y2="20.827" gradientUnits="userSpaceOnUse">
            <stop stop-color="#30BAC6"></stop>
            <stop offset="1" stop-color="#B6509E"></stop>
        </linearGradient>
        <linearGradient id="aave-v3_svg__paint1_linear_215_25" x1="30.598" y1="28.924" x2="22.913" y2="35.897" gradientUnits="userSpaceOnUse">
            <stop stop-color="#B155A0"></stop>
            <stop offset="1" stop-color="#49BFCA"></stop>
        </linearGradient>
    </defs>
</svg>