<svg width="40" height="40" viewBox="0 0 40 40" fill="none"
    xmlns="http://www.w3.org/2000/svg">
    <rect width="40" height="40" rx="20" fill="url(#paint0_linear_3455_41876)"/>
    <path fill-rule="evenodd" clip-rule="evenodd" d="M29.2275 26.1637C29.2275 26.3901 29.0968 26.597 28.8834 26.7068L27.0869 27.6183V19.9125C27.0869 19.3629 26.784 18.8653 26.2883 18.5807L18.51 14.2042V9.69832C18.51 9.56258 18.551 9.42684 18.6199 9.31054C18.8542 8.942 19.3567 8.81273 19.7489 9.02614L28.4084 13.7516C28.918 14.0296 29.2275 14.5403 29.2275 15.0899V26.1637ZM25.434 20.6883V28.2649C25.434 28.4912 25.3102 28.6981 25.1039 28.8015L23.2039 29.8035C23.1834 29.8165 23.1558 29.8294 23.1282 29.8359V25.6274C23.1282 25.0843 22.8254 24.58 22.3229 24.2956L14.7235 20.0224V15.2775C14.7235 14.8508 15.0952 14.5018 15.5493 14.5018C15.6938 14.5018 15.8387 14.5404 15.9624 14.6052L24.6152 19.3502C25.1244 19.6282 25.434 20.1389 25.434 20.6883ZM21.4832 30.1525V26.4159C21.4832 25.8664 21.1736 25.3556 20.6641 25.0777L12.0045 20.3392C11.8808 20.268 11.736 20.2292 11.5914 20.2292C11.1373 20.2292 10.7656 20.5783 10.7656 21.0049V24.6058C10.7656 25.2523 11.1236 25.8534 11.7087 26.1896L19.9757 30.9412C20.134 31.0316 20.3132 31.0769 20.4987 31.0769C21.0425 31.0769 21.4832 30.6632 21.4832 30.1525Z" fill="white"/>
    <defs>
        <linearGradient id="paint0_linear_3455_41876" x1="20" y1="0" x2="20" y2="40" gradientUnits="userSpaceOnUse">
            <stop stop-color="#40BCBC"/>
            <stop offset="1" stop-color="#198484"/>
        </linearGradient>
    </defs>
</svg>
