<svg data-v-7f224da0="" width="26" height="27" viewBox="0 0 26 27" fill="none"
    xmlns="http://www.w3.org/2000/svg" class="mr-4 h-4 w-4">
    <path d="M1.551 7.123L15.923.727a2.606 2.606 0 013.452 1.338 2.606 2.606 0 01-1.338 3.452L3.692 11.914A2.607 2.607 0 01.24 10.575c-.616-1.311 0-2.863 1.311-3.452z" fill="#37BEC1"></path>
    <path d="M2.354 15.393l9.581-4.256a2.607 2.607 0 013.452 1.338 2.607 2.607 0 01-1.338 3.453l-9.554 4.255a2.607 2.607 0 01-3.452-1.338c-.616-1.311 0-2.864 1.311-3.452z" fill="#FBB144"></path>
    <path d="M7.947 21.494l14.372-6.396a2.607 2.607 0 013.452 1.338 2.606 2.606 0 01-1.338 3.452L10.06 26.285a2.607 2.607 0 01-3.452-1.339c-.562-1.31.027-2.863 1.338-3.452z" fill="#E4615E"></path>
</svg>