<svg width="40" height="40" viewBox="0 0 40 40" fill="none"
    xmlns="http://www.w3.org/2000/svg" class="block md:hidden">
    <rect width="40" height="40" rx="8" fill="#3B82F6"></rect>
    <path d="M19.9998 29.9095C19.9998 30.541 20.5343 31.059 21.1878 30.9946C26.9809 30.4233 31.5 25.7189 31.5 20C31.5 14.2811 26.9809 9.5768 21.1878 9.00548C20.5343 8.94069 19.9998 9.45903 19.9998 10.0906V13.1396C19.9998 13.7712 20.5379 14.2712 21.182 14.3959C23.901 14.9229 25.9483 17.2315 25.9483 20C25.9483 22.7686 23.901 25.0771 21.182 25.6042C20.5379 25.7288 19.9998 26.2293 19.9998 26.8604V29.9095ZM16.4309 11.0655C16.4309 10.288 15.639 9.73993 14.914 10.0841C11.1137 11.888 8.5 15.6505 8.5 20C8.5 24.3495 11.1137 28.1121 14.914 29.916C15.639 30.2601 16.4309 29.7121 16.4309 28.9346V11.0659V11.0655Z" fill="white"></path>
</svg>