<svg width="40" height="40" viewBox="0 0 40 40" fill="none"
    xmlns="http://www.w3.org/2000/svg">
    <g clip-path="url(#clip0_4211_68921)">
        <path d="M20 40C31.0457 40 40 31.0457 40 20C40 8.9543 31.0457 0 20 0C8.9543 0 0 8.9543 0 20C0 31.0457 8.9543 40 20 40Z" fill="#1AAB9B"/>
        <path d="M9.4475 26.445V16.3887L17.0738 22.1287V26.445H19.0212V21.725C19.0211 21.5489 18.98 21.3753 18.9013 21.2178C18.8225 21.0603 18.7083 20.9232 18.5675 20.8175L9.31875 13.8562C9.15013 13.7295 8.94957 13.6523 8.73954 13.6331C8.5295 13.614 8.31827 13.6536 8.1295 13.7477C7.94073 13.8417 7.78186 13.9865 7.67068 14.1657C7.55951 14.3449 7.50041 14.5516 7.5 14.7625V26.445H9.4475ZM30.54 26.445V16.3887L22.9137 22.1287V26.445H20.9663V21.725C20.9663 21.3675 21.1337 21.0312 21.4188 20.8175L30.6688 13.8562C30.8375 13.7295 31.0381 13.6522 31.2483 13.6331C31.4584 13.614 31.6697 13.6537 31.8586 13.748C32.0474 13.8422 32.2062 13.9871 32.3173 14.1665C32.4284 14.3459 32.4873 14.5527 32.4875 14.7637V26.4462L30.54 26.445Z" fill="white"/>
    </g>
    <defs>
        <clipPath id="clip0_4211_68921">
            <rect width="40" height="40" fill="white"/>
        </clipPath>
    </defs>
</svg>
