<svg width="512" height="512" viewBox="0 0 512 512" fill="none"
    xmlns="http://www.w3.org/2000/svg">
    <path d="M422.069 331.061C424.843 298.3 416.349 266.582 439.576 243.355L453.963 228.968C494.868 188.061 494.868 121.502 453.963 80.5948L421.722 48.3549L398.495 71.5816C372.668 72.2748 347.015 82.5017 327.256 102.262L323.615 105.728C300.389 128.955 269.709 143.168 237.122 145.942C193.788 149.582 153.229 168.475 122.376 199.327C70.8963 250.809 56.8561 325.515 80.4295 389.649L68.6429 401.435L112.843 445.634C183.563 516.354 298.136 516.354 368.856 445.634C399.536 414.954 418.428 374.395 422.069 331.061Z" fill="url(#paint0_linear_1_2)"/>
    <path d="M336.797 38.8125C360.89 38.8125 384.984 47.9993 403.357 66.3726C440.104 103.119 440.104 162.746 403.357 199.492L400.064 202.787C379.264 223.587 366.437 251.145 364.01 280.439C360.717 319.267 343.731 355.84 316.171 383.398C284.451 415.119 242.851 431.066 201.251 431.066C159.651 431.066 118.051 415.119 86.3305 383.398C22.8904 319.96 22.8904 217.172 86.3305 153.733C113.891 126.173 150.29 109.186 189.29 105.893C218.584 103.466 246.144 90.6392 266.944 69.8392L270.237 66.5459C288.611 47.9993 312.704 38.8125 336.797 38.8125ZM336.797 13.3326C304.903 13.3326 274.745 25.8127 252.211 48.346L249.09 51.6392C232.624 68.1059 210.611 78.3325 187.211 80.4125C142.317 84.2258 100.197 103.813 68.4771 135.533C32.9437 171.066 13.3571 218.386 13.3571 268.48C13.3571 318.746 32.9437 365.893 68.4771 401.426C104.01 436.959 151.157 456.547 201.424 456.547C251.69 456.547 298.838 436.959 334.371 401.426C366.091 369.706 385.85 327.413 389.663 282.693C391.57 259.293 401.797 237.453 418.437 220.813L421.731 217.52C444.264 194.986 456.744 164.826 456.744 132.933C456.744 101.039 444.264 70.8793 421.731 48.346C398.85 25.8127 368.863 13.3326 336.797 13.3326Z" fill="#337D63"/>
    <path d="M400.241 202.787L403.536 199.493C440.282 162.746 440.282 103.119 403.536 66.3726C366.79 29.6258 307.162 29.6258 270.416 66.3726L267.121 69.6658C246.321 90.4658 218.763 103.293 189.469 105.719C150.469 109.012 114.069 125.999 86.5086 153.56C23.0685 217 23.0685 319.786 86.5086 383.227C149.949 446.667 252.736 446.667 316.176 383.227C343.735 355.666 360.722 319.267 364.016 280.267C366.616 251.147 379.441 223.587 400.241 202.787Z" fill="#89BA4F"/>
    <path d="M400.241 202.787L403.536 199.493C440.282 162.746 440.282 103.119 403.536 66.3726C366.79 29.6258 307.162 29.6258 270.416 66.3726L267.121 69.6658C246.321 90.4658 218.763 103.293 189.469 105.719C150.469 109.012 114.069 125.999 86.5086 153.56C23.0685 217 23.0685 319.786 86.5086 383.227C149.949 446.667 252.736 446.667 316.176 383.227C343.735 355.666 360.722 319.267 364.016 280.267C366.616 251.147 379.441 223.587 400.241 202.787Z" fill="url(#paint1_radial_1_2)"/>
    <g filter="url(#filter0_f_1_2)">
        <path d="M190.217 355.584C231.954 355.584 265.79 321.75 265.79 280.011C265.79 238.274 231.954 204.438 190.217 204.438C148.478 204.438 114.643 238.274 114.643 280.011C114.643 321.75 148.478 355.584 190.217 355.584Z" fill="#6A8729"/>
    </g>
    <path d="M209.002 337.295C250.739 337.295 284.575 303.457 284.575 261.72C284.575 219.983 250.739 186.147 209.002 186.147C167.264 186.147 133.429 219.983 133.429 261.72C133.429 303.457 167.264 337.295 209.002 337.295Z" fill="url(#paint2_radial_1_2)"/>
    <defs>
        <filter id="filter0_f_1_2" x="110.643" y="200.438" width="159.147" height="159.146" filterUnits="userSpaceOnUse" color-interpolation-filters="sRGB">
            <feFlood flood-opacity="0" result="BackgroundImageFix"/>
            <feBlend mode="normal" in="SourceGraphic" in2="BackgroundImageFix" result="shape"/>
            <feGaussianBlur stdDeviation="2" result="effect1_foregroundBlur_1_2"/>
        </filter>
        <linearGradient id="paint0_linear_1_2" x1="484.643" y1="139.008" x2="169.351" y2="477.008" gradientUnits="userSpaceOnUse">
            <stop offset="0.0112" stop-color="#A9EC4A"/>
            <stop offset="0.130301" stop-color="#88C83E"/>
            <stop offset="0.256868" stop-color="#578546"/>
            <stop offset="0.379777" stop-color="#55A052"/>
            <stop offset="0.600539" stop-color="#275B57"/>
            <stop offset="0.751125" stop-color="#294F59"/>
            <stop offset="1" stop-color="#395468"/>
        </linearGradient>
        <radialGradient id="paint1_radial_1_2" cx="0" cy="0" r="1" gradientUnits="userSpaceOnUse" gradientTransform="translate(106.529 139) rotate(56.8393) scale(348.575 945.309)">
            <stop offset="0.351455" stop-color="#D9F650"/>
            <stop offset="0.814859" stop-color="#DEFB4F" stop-opacity="0"/>
        </radialGradient>
        <radialGradient id="paint2_radial_1_2" cx="0" cy="0" r="1" gradientUnits="userSpaceOnUse" gradientTransform="translate(241.893 234.333) rotate(140.505) scale(127.751)">
            <stop offset="0.129081" stop-color="#D5A891"/>
            <stop offset="0.443693" stop-color="#A07751"/>
            <stop offset="0.791711" stop-color="#57463C"/>
            <stop offset="0.982639" stop-color="#5B5830"/>
        </radialGradient>
    </defs>
</svg>
