<svg width="512" height="512" viewBox="0 0 512 512" fill="none" xmlns="http://www.w3.org/2000/svg">
<path d="M256 486.621C256 501.318 267.891 513.373 282.439 511.874C411.401 498.578 512 389.095 512 256.001C512 122.906 411.401 13.4237 282.439 0.1276C267.891 -1.3803 256 10.6829 256 25.3805V96.3406C256 111.038 267.97 122.676 282.315 125.576C342.837 137.843 388.414 191.569 388.414 256.001C388.414 320.432 342.837 374.158 282.315 386.425C267.97 389.326 256 400.972 256 415.661V486.621ZM176.552 48.07C176.552 29.9752 158.923 17.2201 142.777 25.2297C58.1827 67.2115 0 154.776 0 256.001C0 357.225 58.1827 444.79 142.777 486.772C158.923 494.781 176.552 482.026 176.552 463.931V48.0789V48.07Z" fill="#16A34A"/>
</svg>
