<svg width="14" height="14" viewBox="0 0 14 14" fill="none"
    xmlns="http://www.w3.org/2000/svg">
    <circle cx="7" cy="7" r="6.25" stroke="currentColor" stroke-width="1.5"/>
    <path d="M3.53468 8.23659C4.30249 8.23659 4.73439 7.80469 4.73439 7.03687C4.73439 6.26906 4.30249 5.83716 3.53468 5.83716C2.76686 5.83716 2.33496 6.26906 2.33496 7.03687C2.33496 7.80469 2.76686 8.23659 3.53468 8.23659Z" fill="currentColor"/>
    <path d="M6.93409 8.23659C7.70191 8.23659 8.1338 7.80469 8.1338 7.03687C8.1338 6.26906 7.70191 5.83716 6.93409 5.83716C6.16627 5.83716 5.73438 6.26906 5.73438 7.03687C5.73438 7.80469 6.16627 8.23659 6.93409 8.23659Z" fill="currentColor"/>
    <path d="M10.3335 8.23659C11.1013 8.23659 11.5332 7.80469 11.5332 7.03687C11.5332 6.26906 11.1013 5.83716 10.3335 5.83716C9.56569 5.83716 9.13379 6.26906 9.13379 7.03687C9.13379 7.80469 9.56569 8.23659 10.3335 8.23659Z" fill="currentColor"/>
</svg>
