<svg width="18" height="18" viewBox="0 0 18 18" fill="none" xmlns="http://www.w3.org/2000/svg">
<path d="M1.75184 4.77815C1.77253 4.5882 2.01273 4.54163 2.12335 4.69874L3.97604 7.33002C4.48816 8.05735 5.60282 7.9923 6.0237 7.21051L8.74869 2.14872C8.79794 2.05723 8.89465 2 9 2C9.10535 2 9.20206 2.05723 9.25131 2.14872L11.9763 7.21051C12.3972 7.9923 13.5118 8.05735 14.024 7.33001L15.8767 4.69874C15.9873 4.54163 16.2275 4.5882 16.2482 4.77815C16.3847 6.03198 16.5 7.31923 16.5 8.63158C16.5 9.94393 16.3847 11.2312 16.2482 12.485C16.0632 14.1835 14.6728 15.5495 12.9448 15.7387C11.6614 15.8793 10.3436 16 9 16C7.65644 16 6.33865 15.8793 5.05519 15.7387C3.32725 15.5495 1.9368 14.1835 1.75184 12.485C1.6153 11.2312 1.5 9.94393 1.5 8.63158C1.5 7.31922 1.6153 6.03198 1.75184 4.77815Z" stroke="currentColor" stroke-width="2" stroke-linejoin="round"/>
</svg>
