<svg width="181" height="29" viewBox="0 0 181 29" fill="none"
    xmlns="http://www.w3.org/2000/svg">
    <path d="M32.1303 29H16.7828L25.6678 13.8856L33.3434 26.9413C33.8814 27.8567 33.208 29 32.1303 29Z" fill="#07A65D"/>
    <path d="M16.7828 29L7.88125 13.8856H25.6678L16.7828 29Z" fill="#03D976"/>
    <path d="M16.7828 29H1.40226C0.324561 29 -0.348766 27.8567 0.189167 26.9413L7.86296 13.8856H7.88125L16.7828 29Z" fill="#078C4F"/>
    <path d="M25.6678 13.8856H7.88125V13.8677L15.555 0.829928C16.093 -0.0854422 17.4396 -0.0854422 17.9794 0.829928L25.6678 13.8856Z" fill="#05F282"/>
    <path d="M45.8937 27.3234C44.5153 27.3234 43.2799 27.0938 42.1876 26.6346C41.1213 26.1753 40.263 25.4993 39.6128 24.6063C38.9887 23.7134 38.6766 22.6292 38.6766 21.3536C38.6766 20.0525 38.9887 18.9809 39.6128 18.139C40.263 17.2716 41.1343 16.6211 42.2266 16.1874C43.3449 15.7537 44.6063 15.5368 46.0107 15.5368H51.8624V14.3122C51.8624 13.2152 51.5243 12.3351 50.8481 11.6718C50.1719 11.0084 49.1316 10.6768 47.7272 10.6768C46.3488 10.6768 45.2955 10.9957 44.5673 11.6335C43.8391 12.2713 43.3579 13.1004 43.1239 14.1209L39.3788 12.9346C39.6909 11.9141 40.185 10.9957 40.8612 10.1793C41.5634 9.3374 42.4867 8.66133 43.631 8.15109C44.7753 7.64085 46.1537 7.38573 47.7662 7.38573C50.2629 7.38573 52.2265 8.01078 53.6569 9.26086C55.0873 10.511 55.8025 12.284 55.8025 14.5801V22.3485C55.8025 23.1139 56.1666 23.4966 56.8949 23.4966H58.5333V26.7876H55.5295C54.6192 26.7876 53.878 26.558 53.3058 26.0988C52.7336 25.6396 52.4476 25.0145 52.4476 24.2237V24.1089H51.8624C51.6543 24.4915 51.3422 24.938 50.9261 25.4482C50.51 25.9585 49.8988 26.4049 49.0926 26.7876C48.2864 27.1448 47.22 27.3234 45.8937 27.3234ZM46.4788 24.0706C48.0913 24.0706 49.3917 23.6241 50.38 22.7312C51.3683 21.8128 51.8624 20.5627 51.8624 18.9809V18.5983H46.2448C45.1785 18.5983 44.3202 18.8279 43.67 19.2871C43.0198 19.7208 42.6947 20.3714 42.6947 21.2388C42.6947 22.1062 43.0328 22.795 43.709 23.3052C44.3852 23.8155 45.3085 24.0706 46.4788 24.0706Z" fill="currentColor"/>
    <path d="M63.4802 26.7876L57.0043 7.92148H61.2565L66.367 23.8793H66.9912L72.1017 7.92148H76.3539L69.878 26.7876H63.4802Z" fill="currentColor"/>
    <path d="M86.2381 27.3234C84.3135 27.3234 82.597 26.9407 81.0886 26.1753C79.6062 25.3845 78.4358 24.2619 77.5776 22.8077C76.7193 21.3536 76.2902 19.6315 76.2902 17.6416V17.0675C76.2902 15.0776 76.7193 13.3683 77.5776 11.9396C78.4358 10.4854 79.6062 9.36291 81.0886 8.57204C82.597 7.78117 84.3135 7.38573 86.2381 7.38573C88.1627 7.38573 89.8792 7.78117 91.3876 8.57204C92.896 9.36291 94.0794 10.4854 94.9376 11.9396C95.7959 13.3683 96.225 15.0776 96.225 17.0675V17.6416C96.225 19.6315 95.7959 21.3536 94.9376 22.8077C94.0794 24.2619 92.896 25.3845 91.3876 26.1753C89.8792 26.9407 88.1627 27.3234 86.2381 27.3234ZM86.2381 23.8027C88.0066 23.8027 89.437 23.2542 90.5293 22.1572C91.6477 21.0347 92.2068 19.4912 92.2068 17.5268V17.1823C92.2068 15.2179 91.6607 13.6872 90.5684 12.5902C89.476 11.4677 88.0326 10.9064 86.2381 10.9064C84.4956 10.9064 83.0652 11.4677 81.9468 12.5902C80.8545 13.6872 80.3084 15.2179 80.3084 17.1823V17.5268C80.3084 19.4912 80.8545 21.0347 81.9468 22.1572C83.0652 23.2542 84.4956 23.8027 86.2381 23.8027Z" fill="currentColor"/>
    <path d="M107.821 27.3234C105.974 27.3234 104.296 26.9407 102.788 26.1753C101.306 25.41 100.122 24.3002 99.238 22.846C98.3798 21.3918 97.9506 19.6443 97.9506 17.6033V17.1058C97.9506 15.0648 98.3798 13.33 99.238 11.9014C100.122 10.4472 101.306 9.3374 102.788 8.57204C104.296 7.78117 105.974 7.38573 107.821 7.38573C109.667 7.38573 111.24 7.71739 112.541 8.3807C113.841 9.04401 114.882 9.92418 115.662 11.0212C116.468 12.1182 116.988 13.33 117.222 14.6567L113.321 15.4603C113.191 14.6184 112.918 13.853 112.502 13.1642C112.086 12.4754 111.501 11.9269 110.746 11.5187C109.992 11.1105 109.043 10.9064 107.899 10.9064C106.78 10.9064 105.766 11.1615 104.856 11.6718C103.971 12.1565 103.269 12.8708 102.749 13.8148C102.229 14.7332 101.969 15.8557 101.969 17.1823V17.5268C101.969 18.8534 102.229 19.9887 102.749 20.9326C103.269 21.8766 103.971 22.5909 104.856 23.0756C105.766 23.5604 106.78 23.8027 107.899 23.8027C109.589 23.8027 110.876 23.3818 111.761 22.5399C112.645 21.6725 113.204 20.5754 113.438 19.2488L117.339 20.129C117.027 21.4301 116.468 22.6292 115.662 23.7262C114.882 24.8232 113.841 25.7034 112.541 26.3667C111.24 27.0045 109.667 27.3234 107.821 27.3234Z" fill="currentColor"/>
    <path d="M125.602 27.3234C124.223 27.3234 122.988 27.0938 121.896 26.6346C120.829 26.1753 119.971 25.4993 119.321 24.6063C118.697 23.7134 118.385 22.6292 118.385 21.3536C118.385 20.0525 118.697 18.9809 119.321 18.139C119.971 17.2716 120.842 16.6211 121.935 16.1874C123.053 15.7537 124.314 15.5368 125.719 15.5368H131.57V14.3122C131.57 13.2152 131.232 12.3351 130.556 11.6718C129.88 11.0084 128.84 10.6768 127.435 10.6768C126.057 10.6768 125.004 10.9957 124.275 11.6335C123.547 12.2713 123.066 13.1004 122.832 14.1209L119.087 12.9346C119.399 11.9141 119.893 10.9957 120.569 10.1793C121.271 9.3374 122.195 8.66133 123.339 8.15109C124.483 7.64085 125.862 7.38573 127.474 7.38573C129.971 7.38573 131.935 8.01078 133.365 9.26086C134.795 10.511 135.511 12.284 135.511 14.5801V22.3485C135.511 23.1139 135.875 23.4966 136.603 23.4966H138.241V26.7876H135.238C134.327 26.7876 133.586 26.558 133.014 26.0988C132.442 25.6396 132.156 25.0145 132.156 24.2237V24.1089H131.57C131.362 24.4915 131.05 24.938 130.634 25.4482C130.218 25.9585 129.607 26.4049 128.801 26.7876C127.994 27.1448 126.928 27.3234 125.602 27.3234ZM126.187 24.0706C127.799 24.0706 129.1 23.6241 130.088 22.7312C131.076 21.8128 131.57 20.5627 131.57 18.9809V18.5983H125.953C124.887 18.5983 124.028 18.8279 123.378 19.2871C122.728 19.7208 122.403 20.3714 122.403 21.2388C122.403 22.1062 122.741 22.795 123.417 23.3052C124.093 23.8155 125.017 24.0706 126.187 24.0706Z" fill="currentColor"/>
    <path d="M147.309 27.3234C145.722 27.3234 144.253 26.9407 142.901 26.1753C141.548 25.41 140.456 24.313 139.624 22.8843C138.817 21.4301 138.414 19.6825 138.414 17.6416V17.0675C138.414 15.0521 138.817 13.3173 139.624 11.8631C140.43 10.4089 141.509 9.29913 142.862 8.53377C144.214 7.76841 145.696 7.38573 147.309 7.38573C148.557 7.38573 149.597 7.5388 150.43 7.84495C151.288 8.15109 151.99 8.54653 152.536 9.03126C153.083 9.49047 153.499 9.9752 153.785 10.4854H154.409V0H158.427V26.7876H154.487V24.1089H153.863C153.369 24.9252 152.614 25.6651 151.6 26.3284C150.612 26.9917 149.181 27.3234 147.309 27.3234ZM148.44 23.8793C150.183 23.8793 151.613 23.3307 152.731 22.2337C153.876 21.1367 154.448 19.5677 154.448 17.5268V17.1823C154.448 15.1669 153.889 13.6107 152.77 12.5136C151.652 11.4166 150.209 10.8681 148.44 10.8681C146.724 10.8681 145.293 11.4166 144.149 12.5136C143.031 13.6107 142.471 15.1669 142.471 17.1823V17.5268C142.471 19.5677 143.031 21.1367 144.149 22.2337C145.293 23.3307 146.724 23.8793 148.44 23.8793Z" fill="currentColor"/>
    <path d="M171.013 27.3234C169.089 27.3234 167.372 26.9407 165.864 26.1753C164.381 25.3845 163.211 24.2619 162.353 22.8077C161.494 21.3536 161.065 19.6315 161.065 17.6416V17.0675C161.065 15.0776 161.494 13.3683 162.353 11.9396C163.211 10.4854 164.381 9.36291 165.864 8.57204C167.372 7.78117 169.089 7.38573 171.013 7.38573C172.938 7.38573 174.654 7.78117 176.163 8.57204C177.671 9.36291 178.854 10.4854 179.713 11.9396C180.571 13.3683 181 15.0776 181 17.0675V17.6416C181 19.6315 180.571 21.3536 179.713 22.8077C178.854 24.2619 177.671 25.3845 176.163 26.1753C174.654 26.9407 172.938 27.3234 171.013 27.3234ZM171.013 23.8027C172.782 23.8027 174.212 23.2542 175.304 22.1572C176.423 21.0347 176.982 19.4912 176.982 17.5268V17.1823C176.982 15.2179 176.436 13.6872 175.343 12.5902C174.251 11.4677 172.808 10.9064 171.013 10.9064C169.271 10.9064 167.84 11.4677 166.722 12.5902C165.63 13.6872 165.083 15.2179 165.083 17.1823V17.5268C165.083 19.4912 165.63 21.0347 166.722 22.1572C167.84 23.2542 169.271 23.8027 171.013 23.8027Z" fill="currentColor"/>
</svg>
