<svg width="24" height="24" viewBox="0 0 24 24" fill="none" xmlns="http://www.w3.org/2000/svg">
<path d="M11.9998 22.8103C11.9998 23.4993 12.5575 24.0644 13.2394 23.9941C19.2844 23.3708 24 18.2388 24 12C24 5.76122 19.2844 0.62924 13.2394 0.0059812C12.5575 -0.0647016 11.9998 0.500763 11.9998 1.18971V4.51597C11.9998 5.20491 12.5613 5.75041 13.2334 5.88639C16.0706 6.46139 18.207 8.9798 18.207 12C18.207 15.0203 16.0706 17.5387 13.2334 18.1137C12.5613 18.2496 11.9998 18.7956 11.9998 19.4841V22.8103ZM8.27569 2.25328C8.27569 1.40509 7.44941 0.807192 6.69283 1.18264C2.72737 3.15054 0 7.25513 0 12C0 16.7449 2.72737 20.8495 6.69283 22.8174C7.44941 23.1929 8.27569 22.595 8.27569 21.7468V2.2537V2.25328Z" fill="#4CA054"/>
</svg>
