<svg width="121" height="36" viewBox="0 0 121 36" fill="none"
    xmlns="http://www.w3.org/2000/svg">
    <path d="M34.8779 12.4761C34.39 12.4761 33.9526 12.3937 33.566 12.229C33.1885 12.0642 32.8846 11.8217 32.6545 11.5014C32.4335 11.181 32.323 10.7921 32.323 10.3344C32.323 9.86768 32.4335 9.48328 32.6545 9.18126C32.8846 8.87008 33.1931 8.63669 33.5798 8.48111C33.9757 8.32552 34.4222 8.24772 34.9193 8.24772H36.9909V7.80841C36.9909 7.41486 36.8712 7.09911 36.6318 6.86115C36.3924 6.62319 36.0242 6.50421 35.527 6.50421C35.039 6.50421 34.6662 6.61861 34.4084 6.84742C34.1506 7.07623 33.9803 7.37368 33.8974 7.73977L32.5716 7.31419C32.6821 6.9481 32.857 6.61861 33.0964 6.32574C33.345 6.02371 33.6718 5.78118 34.0769 5.59813C34.482 5.41509 34.97 5.32356 35.5408 5.32356C36.4247 5.32356 37.1198 5.54779 37.6261 5.99626C38.1325 6.44472 38.3857 7.0808 38.3857 7.90451V10.6914C38.3857 10.966 38.5146 11.1032 38.7724 11.1032H39.3524V12.2839H38.289C37.9668 12.2839 37.7044 12.2015 37.5018 12.0368C37.2993 11.872 37.198 11.6478 37.198 11.3641V11.3229H36.9909C36.9172 11.4602 36.8067 11.6203 36.6594 11.8034C36.5121 11.9864 36.2958 12.1466 36.0103 12.2839C35.7249 12.412 35.3475 12.4761 34.8779 12.4761ZM35.0851 11.3092C35.6559 11.3092 36.1162 11.149 36.4661 10.8287C36.8159 10.4992 36.9909 10.0507 36.9909 9.48328V9.346H35.0022C34.6247 9.346 34.3209 9.42837 34.0907 9.59311C33.8606 9.7487 33.7455 9.98208 33.7455 10.2933C33.7455 10.6044 33.8652 10.8516 34.1045 11.0346C34.3439 11.2176 34.6708 11.3092 35.0851 11.3092Z" fill="currentColor"/>
    <path d="M41.1036 12.2839L38.8111 5.51576H40.3164L42.1255 11.2405H42.3465L44.1556 5.51576H45.6609L43.3685 12.2839H41.1036Z" fill="currentColor"/>
    <path d="M49.16 12.4761C48.4787 12.4761 47.871 12.3388 47.337 12.0642C46.8123 11.7805 46.398 11.3778 46.0941 10.8561C45.7903 10.3344 45.6384 9.71666 45.6384 9.00279V8.79686C45.6384 8.08298 45.7903 7.46978 46.0941 6.95725C46.398 6.43557 46.8123 6.03287 47.337 5.74915C47.871 5.46542 48.4787 5.32356 49.16 5.32356C49.8413 5.32356 50.4489 5.46542 50.9829 5.74915C51.5169 6.03287 51.9358 6.43557 52.2397 6.95725C52.5435 7.46978 52.6954 8.08298 52.6954 8.79686V9.00279C52.6954 9.71666 52.5435 10.3344 52.2397 10.8561C51.9358 11.3778 51.5169 11.7805 50.9829 12.0642C50.4489 12.3388 49.8413 12.4761 49.16 12.4761ZM49.16 11.2131C49.786 11.2131 50.2924 11.0163 50.6791 10.6227C51.075 10.22 51.2729 9.66633 51.2729 8.9616V8.83804C51.2729 8.13332 51.0796 7.58418 50.6929 7.19063C50.3062 6.78793 49.7953 6.58658 49.16 6.58658C48.5431 6.58658 48.0368 6.78793 47.6409 7.19063C47.2542 7.58418 47.0608 8.13332 47.0608 8.83804V8.9616C47.0608 9.66633 47.2542 10.22 47.6409 10.6227C48.0368 11.0163 48.5431 11.2131 49.16 11.2131Z" fill="currentColor"/>
    <path d="M56.8002 12.4761C56.1466 12.4761 55.5527 12.3388 55.0187 12.0642C54.4939 11.7897 54.075 11.3915 53.762 10.8699C53.4582 10.3482 53.3063 9.72124 53.3063 8.98906V8.81059C53.3063 8.07841 53.4582 7.45605 53.762 6.94352C54.075 6.42184 54.4939 6.02371 55.0187 5.74915C55.5527 5.46542 56.1466 5.32356 56.8002 5.32356C57.4539 5.32356 58.0109 5.44254 58.4713 5.6805C58.9316 5.91846 59.2999 6.23422 59.5761 6.62777C59.8615 7.02131 60.0456 7.45605 60.1285 7.93197L58.7475 8.22027C58.7014 7.91824 58.6048 7.64367 58.4575 7.39656C58.3102 7.14945 58.103 6.95267 57.836 6.80624C57.569 6.6598 57.233 6.58658 56.8279 6.58658C56.432 6.58658 56.0729 6.6781 55.7507 6.86115C55.4376 7.03504 55.1891 7.29131 55.0049 7.62994C54.8208 7.95942 54.7287 8.36212 54.7287 8.83804V8.9616C54.7287 9.43752 54.8208 9.8448 55.0049 10.1834C55.1891 10.5221 55.4376 10.7783 55.7507 10.9522C56.0729 11.1261 56.432 11.2131 56.8279 11.2131C57.4263 11.2131 57.882 11.0621 58.1951 10.76C58.5081 10.4488 58.706 10.0553 58.7889 9.57938L60.1699 9.89514C60.0594 10.3619 59.8615 10.7921 59.5761 11.1856C59.2999 11.5792 58.9316 11.8949 58.4713 12.1329C58.0109 12.3617 57.4539 12.4761 56.8002 12.4761Z" fill="currentColor"/>
    <path d="M63.0949 12.4761C62.6069 12.4761 62.1696 12.3937 61.7829 12.229C61.4054 12.0642 61.1016 11.8217 60.8714 11.5014C60.6505 11.181 60.54 10.7921 60.54 10.3344C60.54 9.86768 60.6505 9.48328 60.8714 9.18126C61.1016 8.87008 61.41 8.63669 61.7967 8.48111C62.1926 8.32552 62.6391 8.24772 63.1363 8.24772H65.2078V7.80841C65.2078 7.41486 65.0881 7.09911 64.8488 6.86115C64.6094 6.62319 64.2411 6.50421 63.7439 6.50421C63.256 6.50421 62.8831 6.61861 62.6253 6.84742C62.3675 7.07623 62.1972 7.37368 62.1143 7.73977L60.7886 7.31419C60.8991 6.9481 61.074 6.61861 61.3134 6.32574C61.5619 6.02371 61.8888 5.78118 62.2939 5.59813C62.699 5.41509 63.1869 5.32356 63.7578 5.32356C64.6416 5.32356 65.3367 5.54779 65.8431 5.99626C66.3495 6.44472 66.6027 7.0808 66.6027 7.90451V10.6914C66.6027 10.966 66.7315 11.1032 66.9893 11.1032H67.5694V12.2839H66.506C66.1837 12.2839 65.9213 12.2015 65.7188 12.0368C65.5162 11.872 65.415 11.6478 65.415 11.3641V11.3229H65.2078C65.1342 11.4602 65.0237 11.6203 64.8764 11.8034C64.7291 11.9864 64.5127 12.1466 64.2273 12.2839C63.9419 12.412 63.5644 12.4761 63.0949 12.4761ZM63.302 11.3092C63.8728 11.3092 64.3332 11.149 64.683 10.8287C65.0329 10.4992 65.2078 10.0507 65.2078 9.48328V9.346H63.2192C62.8417 9.346 62.5379 9.42837 62.3077 9.59311C62.0775 9.7487 61.9624 9.98208 61.9624 10.2933C61.9624 10.6044 62.0821 10.8516 62.3215 11.0346C62.5609 11.2176 62.8877 11.3092 63.302 11.3092Z" fill="currentColor"/>
    <path d="M70.7792 12.4761C70.2176 12.4761 69.6974 12.3388 69.2187 12.0642C68.7399 11.7897 68.3533 11.3961 68.0587 10.8836C67.7732 10.3619 67.6305 9.73497 67.6305 9.00279V8.79686C67.6305 8.07383 67.7732 7.45147 68.0587 6.92979C68.3441 6.40811 68.7261 6.00999 69.2049 5.73542C69.6836 5.46085 70.2084 5.32356 70.7792 5.32356C71.2212 5.32356 71.5894 5.37848 71.8841 5.48831C72.1879 5.59813 72.4365 5.73999 72.6298 5.91389C72.8232 6.07863 72.9705 6.25252 73.0717 6.43557H73.2927V2.67397H74.7151V12.2839H73.3203V11.3229H73.0994C72.9244 11.6158 72.6574 11.8812 72.2984 12.1191C71.9485 12.3571 71.4421 12.4761 70.7792 12.4761ZM71.1797 11.2405C71.7966 11.2405 72.303 11.0437 72.6989 10.6502C73.104 10.2567 73.3065 9.69378 73.3065 8.9616V8.83804C73.3065 8.11501 73.1086 7.55672 72.7127 7.16317C72.3168 6.76963 71.8058 6.57285 71.1797 6.57285C70.5721 6.57285 70.0657 6.76963 69.6606 7.16317C69.2647 7.55672 69.0668 8.11501 69.0668 8.83804V8.9616C69.0668 9.69378 69.2647 10.2567 69.6606 10.6502C70.0657 11.0437 70.5721 11.2405 71.1797 11.2405Z" fill="currentColor"/>
    <path d="M79.1706 12.4761C78.4893 12.4761 77.8817 12.3388 77.3477 12.0642C76.8229 11.7805 76.4086 11.3778 76.1048 10.8561C75.801 10.3344 75.6491 9.71666 75.6491 9.00279V8.79686C75.6491 8.08298 75.801 7.46978 76.1048 6.95725C76.4086 6.43557 76.8229 6.03287 77.3477 5.74915C77.8817 5.46542 78.4893 5.32356 79.1706 5.32356C79.8519 5.32356 80.4596 5.46542 80.9936 5.74915C81.5276 6.03287 81.9465 6.43557 82.2503 6.95725C82.5541 7.46978 82.706 8.08298 82.706 8.79686V9.00279C82.706 9.71666 82.5541 10.3344 82.2503 10.8561C81.9465 11.3778 81.5276 11.7805 80.9936 12.0642C80.4596 12.3388 79.8519 12.4761 79.1706 12.4761ZM79.1706 11.2131C79.7967 11.2131 80.3031 11.0163 80.6898 10.6227C81.0856 10.22 81.2836 9.66633 81.2836 8.9616V8.83804C81.2836 8.13332 81.0903 7.58418 80.7036 7.19063C80.3169 6.78793 79.8059 6.58658 79.1706 6.58658C78.5538 6.58658 78.0474 6.78793 77.6515 7.19063C77.2648 7.58418 77.0715 8.13332 77.0715 8.83804V8.9616C77.0715 9.66633 77.2648 10.22 77.6515 10.6227C78.0474 11.0163 78.5538 11.2131 79.1706 11.2131Z" fill="currentColor"/>
    <path d="M32.0517 32.595V16.2778H38.805C39.8367 16.2778 40.7434 16.4876 41.5251 16.9072C42.3223 17.3113 42.9398 17.8863 43.3775 18.6322C43.8309 19.3781 44.0575 20.2639 44.0575 21.2895V21.6159C44.0575 22.626 43.8231 23.5118 43.3541 24.2732C42.9007 25.0192 42.2754 25.6019 41.4782 26.0215C40.6965 26.4256 39.8055 26.6276 38.805 26.6276H35.1469V32.595H32.0517ZM35.1469 23.8304H38.5001C39.2349 23.8304 39.8289 23.6283 40.2823 23.2243C40.7356 22.8202 40.9623 22.2686 40.9623 21.5693V21.3362C40.9623 20.6369 40.7356 20.0852 40.2823 19.6811C39.8289 19.2771 39.2349 19.0751 38.5001 19.0751H35.1469V23.8304Z" fill="currentColor"/>
    <path d="M44.8194 32.595V16.2778H51.9479C52.9797 16.2778 53.8786 16.4566 54.6446 16.814C55.4106 17.1714 56.0046 17.6765 56.4267 18.3291C56.8488 18.9818 57.0598 19.7511 57.0598 20.6369V20.9166C57.0598 21.8956 56.8253 22.6882 56.3563 23.2942C55.8874 23.9003 55.3089 24.3432 54.6211 24.6229V25.0425C55.2464 25.0736 55.731 25.2911 56.0749 25.6952C56.4189 26.0837 56.5908 26.6043 56.5908 27.257V32.595H53.4956V27.6999C53.4956 27.3269 53.394 27.0239 53.1907 26.7908C53.0031 26.5577 52.6827 26.4411 52.2293 26.4411H47.9147V32.595H44.8194ZM47.9147 23.6439H51.6197C52.3544 23.6439 52.925 23.4496 53.3314 23.0611C53.7535 22.6571 53.9645 22.1287 53.9645 21.476V21.2429C53.9645 20.5902 53.7613 20.0696 53.3549 19.6811C52.9484 19.2771 52.37 19.0751 51.6197 19.0751H47.9147V23.6439Z" fill="currentColor"/>
    <path d="M64.6065 32.9213C62.543 32.9213 60.9016 32.3619 59.6822 31.243C58.4629 30.1086 57.8532 28.4924 57.8532 26.3945V22.4784C57.8532 20.3804 58.4629 18.772 59.6822 17.6532C60.9016 16.5187 62.543 15.9515 64.6065 15.9515C66.67 15.9515 68.3115 16.5187 69.5308 17.6532C70.7502 18.772 71.3598 20.3804 71.3598 22.4784V26.3945C71.3598 28.4924 70.7502 30.1086 69.5308 31.243C68.3115 32.3619 66.67 32.9213 64.6065 32.9213ZM64.6065 30.1707C65.7633 30.1707 66.6622 29.8366 67.3032 29.1684C67.9441 28.5002 68.2646 27.6066 68.2646 26.4877V22.3851C68.2646 21.2662 67.9441 20.3727 67.3032 19.7044C66.6622 19.0362 65.7633 18.7021 64.6065 18.7021C63.4653 18.7021 62.5665 19.0362 61.9099 19.7044C61.269 20.3727 60.9485 21.2662 60.9485 22.3851V26.4877C60.9485 27.6066 61.269 28.5002 61.9099 29.1684C62.5665 29.8366 63.4653 30.1707 64.6065 30.1707Z" fill="currentColor"/>
    <path d="M75.8025 32.595V19.0751H71.0189V16.2778H83.6813V19.0751H78.8978V32.595H75.8025Z" fill="currentColor"/>
    <path d="M84.3822 32.595V16.2778H94.9343V19.0751H87.4775V22.9679H94.2777V25.7651H87.4775V29.7978H95.075V32.595H84.3822Z" fill="currentColor"/>
    <path d="M102.197 32.9213C100.164 32.9213 98.5543 32.3619 97.3662 31.243C96.1781 30.1086 95.5841 28.4924 95.5841 26.3945V22.4784C95.5841 20.3804 96.1781 18.772 97.3662 17.6532C98.5543 16.5187 100.164 15.9515 102.197 15.9515C104.213 15.9515 105.769 16.5032 106.863 17.6065C107.973 18.6943 108.528 20.194 108.528 22.1054V22.2453H105.48V22.0122C105.48 21.0487 105.206 20.2561 104.659 19.6345C104.127 19.0129 103.307 18.7021 102.197 18.7021C101.102 18.7021 100.243 19.0362 99.6173 19.7044C98.992 20.3727 98.6793 21.2818 98.6793 22.4317V26.4411C98.6793 27.5755 98.992 28.4846 99.6173 29.1684C100.243 29.8366 101.102 30.1707 102.197 30.1707C103.307 30.1707 104.127 29.8599 104.659 29.2383C105.206 28.6012 105.48 27.8086 105.48 26.8607V26.4411H108.528V26.7674C108.528 28.6789 107.973 30.1863 106.863 31.2896C105.769 32.3774 104.213 32.9213 102.197 32.9213Z" fill="currentColor"/>
    <path d="M113.121 32.595V19.0751H108.338V16.2778H121V19.0751H116.216V32.595H113.121Z" fill="currentColor"/>
    <path d="M13.4271 35.6171L13.8646 36V0L13.3562 0.512771C8.43486 5.04251 0.922139 4.93584 0.850162 4.93844L0 4.91918L0.595635 19.035C0.914576 25.9901 12.9159 35.2273 13.4271 35.6171Z" fill="#03D976"/>
    <path d="M14.3805 0.480593L13.8646 0V36L14.3776 35.6163C14.8835 35.2318 26.7742 26.118 27.1522 18.8886L27.9092 4.93306L27.0568 4.93826H27.0337C26.5819 4.93488 19.7481 4.80505 14.3805 0.480593Z" fill="#05F282"/>
</svg>
