<svg width="26" height="26" viewBox="0 0 26 26" fill="none" xmlns="http://www.w3.org/2000/svg">
<path d="M12.9998 24.7112C12.9998 25.4576 13.6039 26.0697 14.3427 25.9936C20.8914 25.3184 26 19.7587 26 13C26 6.24133 20.8914 0.681676 14.3427 0.00647963C13.6039 -0.0700934 12.9998 0.542493 12.9998 1.28886V4.8923C12.9998 5.63865 13.608 6.22961 14.3361 6.37692C17.4098 6.99984 19.7242 9.72812 19.7242 13C19.7242 16.272 17.4098 19.0002 14.3361 19.6232C13.608 19.7704 12.9998 20.3619 12.9998 21.1078V24.7112ZM8.96533 2.44106C8.96533 1.52218 8.07019 0.874458 7.25057 1.2812C2.95465 3.41308 0 7.85972 0 13C0 18.1403 2.95465 22.587 7.25057 24.7189C8.07019 25.1256 8.96533 24.4779 8.96533 23.559V2.44151V2.44106Z" fill="currentColor"/>
</svg>
