<svg width="40" height="40" viewBox="0 0 40 40" fill="none"
    xmlns="http://www.w3.org/2000/svg">
    <path d="M19.9998 30.8103C19.9998 31.4993 20.5575 32.0644 21.2394 31.9941C27.2844 31.3708 32 26.2388 32 20C32 13.7612 27.2844 8.62924 21.2394 8.00598C20.5575 7.9353 19.9998 8.50076 19.9998 9.18971V12.516C19.9998 13.2049 20.5613 13.7504 21.2334 13.8864C24.0706 14.4614 26.207 16.9798 26.207 20C26.207 23.0203 24.0706 25.5387 21.2334 26.1137C20.5613 26.2496 19.9998 26.7956 19.9998 27.4841V30.8103ZM16.2757 10.2533C16.2757 9.40509 15.4494 8.80719 14.6928 9.18264C10.7274 11.1505 8 15.2551 8 20C8 24.7449 10.7274 28.8495 14.6928 30.8174C15.4494 31.1929 16.2757 30.595 16.2757 29.7468V10.2537V10.2533Z" fill="currentColor"/>
</svg>
