<svg width="20" height="18" viewBox="0 0 20 18" fill="none"
    xmlns="http://www.w3.org/2000/svg">
    <path d="M15.4286 7.34108C15.373 7.3248 15.3232 7.29326 15.2853 7.25017C15.2473 7.20708 15.2227 7.15425 15.2144 7.09791C15.1148 6.02785 14.6441 5.0236 13.8806 4.25263C13.1172 3.48167 12.1073 2.99059 11.0192 2.86129C9.9312 2.73199 8.83084 2.97229 7.90165 3.54211C6.97245 4.11194 6.2706 4.97684 5.91312 5.99259C5.88947 6.03995 5.85248 6.07969 5.80653 6.10711C5.76059 6.13453 5.70759 6.14849 5.65382 6.14733C5.13562 6.18144 4.62935 6.31529 4.16391 6.54122C3.69848 6.76715 3.28299 7.08074 2.94117 7.4641C2.25084 8.23832 1.90249 9.24969 1.97276 10.2757C2.04303 11.3017 2.52616 12.2584 3.31586 12.9352C6.28455 15.4794 13.9177 15.6746 16.9137 13.0351C17.5293 12.4928 17.9208 11.7479 18.0138 10.9416C18.1069 10.1353 17.8952 9.32349 17.4188 8.65995C16.9423 7.9964 16.2343 7.52716 15.4286 7.34108Z" stroke="currentColor" stroke-width="2"/>
    <path d="M5.46973 6.15088C6.9987 6.15088 8.36614 7.15868 8.79749 8.07941" stroke="currentColor" stroke-width="2" stroke-linecap="round"/>
</svg>
