<svg width="48" height="48" viewBox="0 0 48 48" fill="none"
    xmlns="http://www.w3.org/2000/svg">
    <path d="M11.2887 24.4075L5.1297 30.5665C3.5006 32.2022 2.58594 34.4168 2.58594 36.7254C2.58594 39.0341 3.5006 41.2487 5.1297 42.8844V42.8844C6.76548 44.5135 8.98007 45.4282 11.2887 45.4282C13.5973 45.4282 15.8119 44.5135 17.4477 42.8844L21.1035 39.2286" stroke="#475569" stroke-width="4" stroke-linecap="round" stroke-linejoin="round"/>
    <path d="M30.5924 32.2136H36.7185C39.0245 32.2136 41.2362 31.2975 42.8668 29.6669C44.4974 28.0362 45.4135 25.8246 45.4135 23.5185V23.5185C45.4135 21.2125 44.4974 19.0008 42.8668 17.3702C41.2362 15.7396 39.0245 14.8235 36.7185 14.8235H28.0234" stroke="#475569" stroke-width="4" stroke-linecap="round" stroke-linejoin="round"/>
    <path d="M23.9984 2.57153L22.3516 9.15869" stroke="#475569" stroke-width="4" stroke-linecap="round" stroke-linejoin="round"/>
    <path d="M2.59375 12.4521L9.1809 15.7457" stroke="#475569" stroke-width="4" stroke-linecap="round" stroke-linejoin="round"/>
    <path d="M10.8281 2.57153L14.1217 9.15869" stroke="#475569" stroke-width="4" stroke-linecap="round" stroke-linejoin="round"/>
</svg>
