
<svg width="20" height="20" viewBox="0 0 20 20" fill="none" xmlns="http://www.w3.org/2000/svg">
<path d="M6.6886 1L6.6886 4.6564" stroke="currentColor" stroke-width="2" stroke-linecap="round"/>
<path d="M13.3014 1L13.3014 4.6564" stroke="currentColor" stroke-width="2" stroke-linecap="round"/>
<path d="M18.3549 9.43079L1.64512 9.43078L1.87968 3.62074L9.90152 3.05234L18.355 3.62074L18.3549 9.43079Z" fill="currentColor"/>
<path d="M1.22919 14.5151C1.48646 16.9147 3.45528 18.8149 5.86654 18.9159C7.18793 18.9713 8.54289 19 10 19C11.4571 19 12.8121 18.9713 14.1335 18.9159C16.5447 18.8149 18.5135 16.9147 18.7708 14.5151C18.9013 13.2975 19 12.0544 19 10.7912C19 9.52805 18.9013 8.28494 18.7708 7.06743C18.5135 4.66781 16.5447 2.7676 14.1335 2.66655C12.8121 2.61118 11.4571 2.58252 10 2.58252C8.5429 2.58252 7.18793 2.61118 5.86654 2.66655C3.45528 2.7676 1.48646 4.66781 1.22919 7.06743C1.09866 8.28494 1 9.52805 1 10.7912C1 12.0544 1.09866 13.2975 1.22919 14.5151Z" stroke="currentColor" stroke-width="2"/>
<path d="M1.43066 8.88342H18.658" stroke="currentColor" stroke-width="2"/>
</svg>
