<svg width="20" height="20" viewBox="0 0 20 20" fill="none"
    xmlns="http://www.w3.org/2000/svg">
    <path d="M3.59333 15.0092C3.75349 16.6101 5.02432 17.9091 6.62149 18.1041C7.82176 18.2506 9.05437 18.377 10.3112 18.377C11.568 18.377 12.8006 18.2506 14.0009 18.1041C15.5981 17.9091 16.8689 16.6101 17.0291 15.0092C17.1675 13.6251 17.2904 12.2007 17.2904 10.7466C17.2904 9.29243 17.1675 7.86804 17.0291 6.48398C16.8689 4.88293 15.5981 3.58403 14.0009 3.38906C12.8006 3.24253 11.568 3.11621 10.3112 3.11621C9.05437 3.11621 7.82176 3.24253 6.62149 3.38906C5.02432 3.58403 3.75349 4.88293 3.59333 6.48398C3.45487 7.86804 3.33203 9.29243 3.33203 10.7466C3.33203 12.2007 3.45487 13.6251 3.59333 15.0092Z" stroke="#94A3B8" stroke-width="2"/>
    <path d="M6.64062 3.28556C6.64062 4.46516 7.76321 5.35188 8.94099 5.41733C9.39091 5.44231 9.84856 5.46005 10.3125 5.46005C10.7764 5.46005 11.2341 5.44231 11.684 5.41733C12.8618 5.35188 13.9844 4.46516 13.9844 3.28556C13.9844 2.10596 12.8618 1.21924 11.684 1.1538C11.2341 1.1288 10.7764 1.11108 10.3125 1.11108C9.84856 1.11108 9.39091 1.1288 8.94099 1.1538C7.76321 1.21924 6.64062 2.10596 6.64062 3.28556Z" fill="#1E293B" stroke="#94A3B8" stroke-width="2"/>
    <path d="M12.1905 9.44434H8.69531" stroke="#94A3B8" stroke-width="2" stroke-linecap="round"/>
    <path d="M12.1905 13.3799H8.69531" stroke="#94A3B8" stroke-width="2" stroke-linecap="round"/>
</svg>
