<svg width="18" height="18" viewBox="0 0 18 18" fill="none"
    xmlns="http://www.w3.org/2000/svg">
    <path d="M15.2438 10.1135C15.2035 10.0625 15.1816 9.99938 15.1818 9.93439V8.06551C15.1816 8.00052 15.2035 7.93738 15.2438 7.88643L16.106 6.8062C16.2611 6.61205 16.354 6.37562 16.3727 6.12781C16.3913 5.88 16.3348 5.63234 16.2104 5.41717L15.7076 4.54702C15.5836 4.33166 15.3975 4.15872 15.1737 4.05079C14.9498 3.94286 14.6986 3.90496 14.4529 3.94204L13.0868 4.14982C13.0222 4.15889 12.9565 4.14638 12.8997 4.11423L11.2811 3.1798C11.224 3.14552 11.1803 3.09291 11.1571 3.03056L10.6531 1.74944C10.5629 1.51833 10.4051 1.31978 10.2003 1.17971C9.99553 1.03964 9.75329 0.96455 9.50518 0.964233L8.49727 0.964233C8.24917 0.96455 8.00692 1.03964 7.80214 1.17971C7.59736 1.31978 7.43955 1.51833 7.34931 1.74944L6.84306 3.03056C6.81895 3.0912 6.77533 3.14209 6.71908 3.1752L5.09702 4.11423C5.0403 4.14646 4.97449 4.15897 4.9099 4.14982L3.54727 3.94204C3.30155 3.90496 3.05035 3.94286 2.8265 4.05079C2.60265 4.15872 2.41657 4.33166 2.29255 4.54702L1.78975 5.41717C1.66541 5.63234 1.60887 5.88 1.6275 6.12781C1.64614 6.37562 1.73909 6.61205 1.89421 6.8062L2.75633 7.88643C2.79667 7.93738 2.81853 8.00052 2.81832 8.06551V9.93439C2.81853 9.99938 2.79667 10.0625 2.75633 10.1135L1.89421 11.1937C1.73909 11.3879 1.64614 11.6243 1.6275 11.8721C1.60887 12.1199 1.66541 12.3676 1.78975 12.5827L2.29255 13.4529C2.41657 13.6682 2.60265 13.8412 2.8265 13.9491C3.05035 14.057 3.30155 14.0949 3.54727 14.0579L4.91334 13.8501C4.97794 13.8409 5.04374 13.8534 5.10046 13.8857L6.71908 14.8201C6.77533 14.8532 6.81895 14.9041 6.84306 14.9647L7.34702 16.2505C7.43726 16.4816 7.59507 16.6801 7.79985 16.8202C8.00463 16.9603 8.24688 17.0354 8.49498 17.0357H9.50059C9.74869 17.0354 9.99094 16.9603 10.1957 16.8202C10.4005 16.6801 10.5583 16.4816 10.6486 16.2505L11.1525 14.9647C11.1766 14.9041 11.2202 14.8532 11.2765 14.8201L12.8951 13.8857C12.9519 13.8535 13.0176 13.841 13.0822 13.8501L14.4483 14.0579C14.694 14.0949 14.9452 14.057 15.1691 13.9491C15.3929 13.8412 15.579 13.6682 15.703 13.4529L16.2058 12.5827C16.3302 12.3676 16.3867 12.1199 16.3681 11.8721C16.3494 11.6243 16.2565 11.3879 16.1014 11.1937L15.2438 10.1135ZM9.00008 11.5829C8.48923 11.5829 7.98985 11.4314 7.56509 11.1476C7.14034 10.8637 6.80928 10.4604 6.61378 9.98839C6.41829 9.51642 6.36714 8.99708 6.4668 8.49605C6.56646 7.99501 6.81246 7.53478 7.17369 7.17356C7.53491 6.81233 7.99514 6.56633 8.49618 6.46667C8.99721 6.36701 9.51655 6.41816 9.98852 6.61365C10.4605 6.80915 10.8639 7.14021 11.1477 7.56496C11.4315 7.98972 11.583 8.4891 11.583 8.99995C11.583 9.68498 11.3109 10.342 10.8265 10.8263C10.3421 11.3107 9.68511 11.5829 9.00008 11.5829Z" fill="currentColor"/>
</svg>
