<svg width="20" height="20" viewBox="0 0 20 20" fill="none" xmlns="http://www.w3.org/2000/svg">
<path d="M13.4219 10.0124C15.3145 10.0124 16.8488 8.47812 16.8488 6.58546C16.8488 5.12138 15.9307 3.87173 14.6388 3.38086" stroke="currentColor" stroke-width="2" stroke-linecap="round" stroke-linejoin="round"/>
<path d="M7.6562 9.33315C9.70783 9.33315 11.371 7.66998 11.371 5.61836C11.371 3.56673 9.70783 1.90356 7.6562 1.90356C5.60458 1.90356 3.94141 3.56673 3.94141 5.61836C3.94141 7.66998 5.60458 9.33315 7.6562 9.33315Z" stroke="currentColor" stroke-width="2" stroke-linecap="round" stroke-linejoin="round"/>
<path d="M13.3468 14.5522C15.1639 15.7624 13.9369 18.0966 11.7537 18.0966H3.55501C1.37178 18.0966 0.144788 15.7624 1.96188 14.5522C3.59177 13.4666 5.54918 12.834 7.65435 12.834C9.75952 12.834 11.7169 13.4666 13.3468 14.5522Z" stroke="currentColor" stroke-width="2"/>
<path d="M11.4375 18.0964H16.634C18.6481 18.0964 19.78 15.9431 18.1037 14.8266C17.6408 14.5183 17.1493 14.2497 16.634 14.0254" stroke="currentColor" stroke-width="2" stroke-linecap="round"/>
</svg>
