<svg width="14" height="14" viewBox="0 0 14 14" fill="none"
    xmlns="http://www.w3.org/2000/svg">
    <path d="M0.959867 3.73147C0.977105 3.57035 1.17727 3.53085 1.26946 3.66411L2.81337 5.896C3.24013 6.51293 4.16902 6.45775 4.51975 5.79463L6.79057 1.50115C6.83162 1.42355 6.91221 1.375 7 1.375C7.08779 1.375 7.16838 1.42355 7.20943 1.50115L9.48025 5.79463C9.83098 6.45775 10.7599 6.51293 11.1866 5.89599L12.7305 3.66411C12.8227 3.53085 13.0229 3.57035 13.0401 3.73147C13.1539 4.79498 13.25 5.88684 13.25 7C13.25 8.11316 13.1539 9.20502 13.0401 10.2685C12.886 11.7092 11.7273 12.8679 10.2873 13.0284C9.21779 13.1476 8.11963 13.25 7 13.25C5.88037 13.25 4.78221 13.1476 3.71266 13.0284C2.2727 12.8679 1.114 11.7092 0.959867 10.2685C0.846084 9.20502 0.75 8.11316 0.75 7C0.75 5.88684 0.846083 4.79498 0.959867 3.73147Z" stroke="white" stroke-width="1.5" stroke-linejoin="round"/>
</svg>
