<svg width="18" height="20" viewBox="0 0 18 20" fill="none"
    xmlns="http://www.w3.org/2000/svg">
    <path d="M10.8694 6.67132C10.9456 7.38373 11.5186 7.95672 12.2307 8.03609C12.7596 8.09504 13.3026 8.14568 13.8563 8.14568C14.41 8.14568 14.953 8.09504 15.4819 8.03609C16.194 7.95672 16.7669 7.38373 16.8432 6.67132C16.8994 6.14541 16.9469 5.60548 16.9469 5.05501C16.9469 4.50455 16.8994 3.96462 16.8432 3.43871C16.7669 2.7263 16.194 2.15331 15.4819 2.07394C14.953 2.01499 14.41 1.96436 13.8563 1.96436C13.3026 1.96436 12.7596 2.01499 12.2307 2.07394C11.5186 2.15331 10.9456 2.7263 10.8694 3.43871C10.8131 3.96462 10.7656 4.50455 10.7656 5.05501C10.7656 5.60548 10.8131 6.14541 10.8694 6.67132Z" stroke="currentColor" stroke-width="2"/>
    <path d="M1.15847 6.67132C1.23469 7.38373 1.80767 7.95672 2.51974 8.03609C3.04864 8.09504 3.59168 8.14568 4.14535 8.14568C4.69901 8.14568 5.24206 8.09504 5.77096 8.03609C6.48302 7.95672 7.05601 7.38373 7.13223 6.67132C7.18849 6.14541 7.23601 5.60548 7.23601 5.05501C7.23601 4.50455 7.18849 3.96462 7.13223 3.43871C7.05601 2.7263 6.48302 2.15331 5.77096 2.07394C5.24206 2.01499 4.69901 1.96436 4.14535 1.96436C3.59168 1.96436 3.04864 2.01499 2.51974 2.07394C1.80767 2.15331 1.23469 2.7263 1.15847 3.43871C1.1022 3.96462 1.05469 4.50455 1.05469 5.05501C1.05469 5.60548 1.1022 6.14541 1.15847 6.67132Z" fill="currentColor" stroke="currentColor" stroke-width="2"/>
    <path d="M1.15847 16.5615C1.23469 17.2739 1.80767 17.8469 2.51974 17.9262C3.04864 17.9852 3.59168 18.0358 4.14535 18.0358C4.69901 18.0358 5.24206 17.9852 5.77096 17.9262C6.48302 17.8469 7.05601 17.2739 7.13223 16.5615C7.18849 16.0355 7.23601 15.4956 7.23601 14.9452C7.23601 14.3947 7.18849 13.8548 7.13223 13.3288C7.05601 12.6164 6.48302 12.0434 5.77096 11.9641C5.24206 11.9051 4.69901 11.8545 4.14535 11.8545C3.59168 11.8545 3.04864 11.9051 2.51974 11.9641C1.80767 12.0434 1.23469 12.6164 1.15847 13.3288C1.1022 13.8548 1.05469 14.3947 1.05469 14.9452C1.05469 15.4956 1.1022 16.0355 1.15847 16.5615Z" stroke="currentColor" stroke-width="2"/>
    <path d="M10.8694 16.5615C10.9456 17.2739 11.5186 17.8469 12.2307 17.9262C12.7596 17.9852 13.3026 18.0358 13.8563 18.0358C14.41 18.0358 14.953 17.9852 15.4819 17.9262C16.194 17.8469 16.7669 17.2739 16.8432 16.5615C16.8994 16.0355 16.9469 15.4956 16.9469 14.9452C16.9469 14.3947 16.8994 13.8548 16.8432 13.3288C16.7669 12.6164 16.194 12.0434 15.4819 11.9641C14.953 11.9051 14.41 11.8545 13.8563 11.8545C13.3026 11.8545 12.7596 11.9051 12.2307 11.9641C11.5186 12.0434 10.9456 12.6164 10.8694 13.3288C10.8131 13.8548 10.7656 14.3947 10.7656 14.9452C10.7656 15.4956 10.8131 16.0355 10.8694 16.5615Z" fill="currentColor" stroke="currentColor" stroke-width="2"/>
</svg>
