<svg width="18" height="18" viewBox="0 0 18 18" fill="none" xmlns="http://www.w3.org/2000/svg">
<path d="M1.85742 5.28027H16.1431" stroke="currentColor" stroke-width="2" stroke-linecap="round"/>
<path d="M14.1327 5.28027H3.86338L3.78989 6.60902C3.64908 9.15484 3.76872 11.7084 4.14695 14.2299C4.31188 15.3295 5.25644 16.1429 6.36831 16.1429H11.6277C12.7396 16.1429 13.6842 15.3295 13.8491 14.2299C14.2273 11.7084 14.347 9.15484 14.2062 6.60902L14.1327 5.28027Z" stroke="currentColor" stroke-width="2" stroke-linecap="round" stroke-linejoin="round"/>
<path d="M6.14453 5.28003V4.70951C6.14453 3.95296 6.44507 3.2274 6.98003 2.69243C7.51499 2.15747 8.24056 1.85693 8.99711 1.85693C9.75366 1.85693 10.4792 2.15747 11.0142 2.69243C11.5492 3.2274 11.8497 3.95296 11.8497 4.70951V5.28003" stroke="currentColor" stroke-width="2" stroke-linecap="round" stroke-linejoin="round"/>
<path d="M7.28711 8.33545V13.0645" stroke="currentColor" stroke-width="2" stroke-linecap="round" stroke-linejoin="round"/>
<path d="M10.709 8.33545V13.0645" stroke="currentColor" stroke-width="2" stroke-linecap="round" stroke-linejoin="round"/>
</svg>
