<svg width="10" height="10" viewBox="0 0 10 10" fill="none"
    xmlns="http://www.w3.org/2000/svg">
    <path d="M6.71289 5.00621C7.65922 5.00621 8.42637 4.23906 8.42637 3.29273C8.42637 2.56069 7.96731 1.93586 7.32136 1.69043" stroke="currentColor" stroke-linecap="round" stroke-linejoin="round"/>
    <path d="M3.82908 4.66658C4.85489 4.66658 5.68647 3.83499 5.68647 2.80918C5.68647 1.78337 4.85489 0.951782 3.82908 0.951782C2.80326 0.951782 1.97168 1.78337 1.97168 2.80918C1.97168 3.83499 2.80326 4.66658 3.82908 4.66658Z" stroke="currentColor" stroke-linecap="round" stroke-linejoin="round"/>
    <path d="M6.67438 7.27609C7.58293 7.88121 6.96943 9.0483 5.87782 9.0483H1.77848C0.686867 9.0483 0.0733704 7.88121 0.981917 7.27609C1.79686 6.73332 2.77557 6.41699 3.82815 6.41699C4.88074 6.41699 5.85944 6.73332 6.67438 7.27609Z" stroke="currentColor"/>
    <path d="M5.71973 9.04821H8.31798C9.32502 9.04821 9.89098 7.97155 9.05283 7.41332C8.82139 7.25917 8.57564 7.12483 8.31798 7.0127" stroke="currentColor" stroke-linecap="round"/>
</svg>
