<svg width="14" height="14" viewBox="0 0 14 14" fill="none" xmlns="http://www.w3.org/2000/svg">
<path d="M5.61995 3.06592C4.9571 3.09577 4.30554 3.16363 3.66805 3.23629C2.70835 3.34566 1.93833 4.11546 1.83303 5.07561C1.7397 5.92657 1.65625 6.80264 1.65625 7.69721C1.65625 8.59178 1.7397 9.46786 1.83303 10.3188C1.93833 11.279 2.70831 12.0488 3.66801 12.1581C4.52342 12.2556 5.40415 12.3445 6.30352 12.3445C7.20289 12.3445 8.08362 12.2556 8.93903 12.1581C9.89873 12.0488 10.6687 11.279 10.774 10.3188C10.8387 9.7289 10.8987 9.12692 10.9294 8.51508" stroke="#94A3B8" stroke-width="1.5" stroke-linecap="round"/>
<path d="M9.66464 2.11659L6.50614 5.70044L6.07344 7.73557C6.00381 8.06303 6.34516 8.37288 6.66482 8.27239L8.69008 7.63569L11.9525 4.20291C12.4943 3.63276 12.3998 2.67916 11.7439 2.09903C11.1034 1.5325 10.1725 1.54036 9.66464 2.11659Z" stroke="#94A3B8" stroke-width="1.5" stroke-linecap="round" stroke-linejoin="round"/>
</svg>
