<svg width="20" height="20" viewBox="0 0 20 20" fill="none"
    xmlns="http://www.w3.org/2000/svg">
    <path d="M1.56193 15.7609C1.68018 16.7188 2.45017 17.4732 3.41033 17.5713C5.52586 17.7875 7.73215 18.0527 10.0001 18.0527C12.2681 18.0527 14.4743 17.7875 16.5899 17.5713C17.55 17.4732 18.32 16.7188 18.4383 15.7609C18.6669 13.9089 18.9287 11.9806 18.9287 9.99997C18.9287 8.01935 18.6669 6.09105 18.4383 4.23902C18.32 3.28114 17.55 2.52676 16.5899 2.42864C14.4743 2.21245 12.2681 1.9472 10.0001 1.9472C7.73215 1.9472 5.52587 2.21245 3.41033 2.42864C2.45017 2.52675 1.68018 3.28113 1.56193 4.23902C1.3333 6.09105 1.07153 8.01935 1.07153 9.99997C1.07153 11.9806 1.3333 13.9089 1.56193 15.7609Z" stroke="white" stroke-width="2" stroke-linejoin="round"/>
    <path d="M1.51367 4.57764L8.76169 10.2925C9.48793 10.8651 10.5121 10.8651 11.2383 10.2925L18.4863 4.57764" stroke="white" stroke-width="2" stroke-linejoin="round"/>
</svg>
