<svg width="18" height="18" viewBox="0 0 18 18" fill="none"
    xmlns="http://www.w3.org/2000/svg">
    <path d="M7.02761 4.42847C6.07671 4.47127 5.14468 4.57749 4.23689 4.68263C3.27739 4.79376 2.51075 5.55985 2.40314 6.51975C2.2722 7.68773 2.14258 8.89597 2.14258 10.1329C2.14258 11.3699 2.2722 12.5781 2.40314 13.7461C2.51075 14.706 3.27737 15.4721 4.23687 15.5832C5.41124 15.7192 6.6262 15.857 7.87007 15.857C9.11395 15.857 10.3289 15.7192 11.5033 15.5832C12.4628 15.4721 13.2294 14.706 13.337 13.7461C13.4322 12.8972 13.5266 12.0272 13.5711 11.1403" stroke="currentColor" stroke-width="2" stroke-linecap="round"/>
    <path d="M10.7148 2.71436H15.2863V7.28578" stroke="currentColor" stroke-width="2" stroke-linecap="round" stroke-linejoin="round"/>
    <path d="M8.42773 9.5715L15.2849 2.71436" stroke="currentColor" stroke-width="2" stroke-linecap="round" stroke-linejoin="round"/>
</svg>
