<svg width="16" height="16" viewBox="0 0 16 16" fill="none" xmlns="http://www.w3.org/2000/svg">
<path d="M11.4676 11.4649C10.4705 12.225 9.25625 12.6461 8.00261 12.6666C3.91927 12.6666 1.58594 7.99993 1.58594 7.99993C2.31154 6.6477 3.31793 5.46629 4.5376 4.53493M6.7776 3.47327C7.17913 3.37928 7.59023 3.3323 8.00261 3.33327C12.0859 3.33327 14.4193 7.99993 14.4193 7.99993C14.0652 8.66237 13.6429 9.28603 13.1593 9.86076M9.23927 9.2366C9.07906 9.40853 8.88586 9.54644 8.67119 9.64209C8.45653 9.73773 8.2248 9.78917 7.98982 9.79331C7.75485 9.79746 7.52145 9.75423 7.30354 9.66622C7.08564 9.5782 6.88769 9.4472 6.72152 9.28102C6.55534 9.11484 6.42433 8.9169 6.33632 8.69899C6.2483 8.48109 6.20508 8.24769 6.20922 8.01271C6.21337 7.77774 6.2648 7.54601 6.36045 7.33134C6.4561 7.11668 6.594 6.92348 6.76594 6.76327" stroke="white" stroke-width="1.5" stroke-linecap="round" stroke-linejoin="round"/>
<path d="M1.58594 1.58325L14.4193 14.4166" stroke="white" stroke-width="1.5" stroke-linecap="round" stroke-linejoin="round"/>
</svg>
