<svg width="16" height="18" viewBox="0 0 16 18" fill="none" xmlns="http://www.w3.org/2000/svg">
<path d="M6.83571 1.91766C6.76945 1.87808 6.6937 1.85718 6.61652 1.85718C6.53934 1.85718 6.46359 1.87808 6.39733 1.91766C6.34267 1.96096 6.30579 2.02281 6.29368 2.09148C6.28156 2.16015 6.29504 2.23088 6.33157 2.29028C7.67959 4.62465 7.96454 7.8029 6.12334 9.55642C5.41495 8.96113 4.85256 8.21126 4.47942 7.36453C3.79854 7.74268 3.23426 8.30014 2.84784 8.97636C2.46143 9.65259 2.26764 10.4218 2.28752 11.2003C2.40297 14.0513 4.23831 16.1321 7.76727 16.1321C11.2962 16.1321 13.1265 13.9402 13.247 11.2003C13.3895 7.9125 11.0551 3.86845 6.83571 1.91766Z" stroke="currentColor" stroke-width="2" stroke-linecap="round" stroke-linejoin="round"/>
<path d="M10.5073 11.2004C10.5073 11.7818 10.2764 12.3393 9.86534 12.7503C9.45427 13.1614 8.89676 13.3923 8.31543 13.3923" stroke="currentColor" stroke-width="2" stroke-linecap="round" stroke-linejoin="round"/>
</svg>
