<svg width="16" height="16" viewBox="0 0 16 16" fill="none"
    xmlns="http://www.w3.org/2000/svg">
    <path d="M1.046 11.2616C1.23966 13.1837 2.79383 14.7386 4.71502 14.9411C5.78723 15.0541 6.88346 15.1429 7.99833 15.1429C9.11319 15.1429 10.2094 15.0541 11.2816 14.9411C13.2028 14.7386 14.757 13.1837 14.9507 11.2616C15.058 10.1964 15.1412 9.10744 15.1412 8.00003C15.1412 6.89263 15.058 5.80367 14.9507 4.73847C14.757 2.81637 13.2028 1.26144 11.2816 1.05899C10.2094 0.946009 9.11319 0.857178 7.99833 0.857178C6.88346 0.857178 5.78723 0.946009 4.71502 1.05899C2.79383 1.26144 1.23966 2.81637 1.046 4.73847C0.938675 5.80367 0.855469 6.89263 0.855469 8.00003C0.855469 9.10744 0.938675 10.1964 1.046 11.2616Z" stroke="#94A3B8" stroke-width="1.5"/>
    <path d="M8 10.2856L8 15.1428" stroke="#94A3B8" stroke-width="1.5" stroke-linecap="round" stroke-linejoin="round"/>
    <path d="M4.57031 6.85725C4.57031 9.6001 6.85603 10.2858 7.99888 10.2858C9.14174 10.2858 11.4275 9.6001 11.4275 6.85725V4.57153C10.856 4.57154 9.37031 4.80013 7.99888 5.71442C6.62746 4.80013 5.14174 4.57154 4.57031 4.57153V6.85725Z" stroke="#94A3B8" stroke-width="1.5" stroke-linecap="round" stroke-linejoin="round"/>
    <path d="M5.14453 12.5715C5.71596 12.762 7.08739 13.4858 8.00167 14.8572" stroke="#94A3B8" stroke-width="1.5" stroke-linecap="round" stroke-linejoin="round"/>
    <path d="M10.8555 12.5715C10.284 12.762 8.91261 13.4858 7.99833 14.8572" stroke="#94A3B8" stroke-width="1.5" stroke-linecap="round" stroke-linejoin="round"/>
</svg>
