<svg width="20" height="20" viewBox="0 0 20 20" fill="none"
    xmlns="http://www.w3.org/2000/svg">
    <path d="M18.616 7.77484L16.9493 6.9415C16.641 6.7915 16.2577 6.90817 16.1077 7.2165C15.9493 7.53317 16.0743 7.90817 16.3827 8.05817L17.7077 8.7165V12.7082L14.5827 12.7165V4.1665C14.5827 2.49984 13.466 1.6665 12.0827 1.6665H5.41602C4.03268 1.6665 2.91602 2.49984 2.91602 4.1665V17.7082H1.66602C1.32435 17.7082 1.04102 17.9915 1.04102 18.3332C1.04102 18.6748 1.32435 18.9582 1.66602 18.9582H15.8327C16.1743 18.9582 16.4577 18.6748 16.4577 18.3332C16.4577 17.9915 16.1743 17.7082 15.8327 17.7082H14.5827V13.9665L18.3327 13.9582C18.6827 13.9582 18.9577 13.6748 18.9577 13.3332V8.33317C18.9577 8.09984 18.8244 7.88317 18.616 7.77484ZM4.99935 5.7415C4.99935 4.58317 5.70768 4.1665 6.57435 4.1665H10.9327C11.791 4.1665 12.4993 4.58317 12.4993 5.7415V6.7665C12.4993 7.9165 11.791 8.33317 10.9243 8.33317H6.57435C5.70768 8.33317 4.99935 7.9165 4.99935 6.75817V5.7415ZM5.41602 10.2082H7.91602C8.25768 10.2082 8.54102 10.4915 8.54102 10.8332C8.54102 11.1748 8.25768 11.4582 7.91602 11.4582H5.41602C5.07435 11.4582 4.79102 11.1748 4.79102 10.8332C4.79102 10.4915 5.07435 10.2082 5.41602 10.2082Z" fill="currentColor"/>
</svg>
