<svg width="32" height="32" viewBox="0 0 32 32" fill="none"
    xmlns="http://www.w3.org/2000/svg">
    <path fill-rule="evenodd" clip-rule="evenodd" d="M12.8778 6.61911C12.8243 7.25437 12.0574 7.57167 11.5709 7.15971C10.9345 6.62087 10.2596 6.09323 9.75813 5.81154C8.39623 5.04653 7.57936 4.89731 6.26127 6.18167L6.22547 6.21769C6.21902 6.22405 6.21268 6.2306 6.20633 6.23716L6.18991 6.25394C4.90555 7.57204 5.05431 8.38845 5.81932 9.75035C6.10422 10.2575 6.64069 10.9421 7.18589 11.5848C7.59878 12.0715 7.28062 12.8397 6.64448 12.892C5.80506 12.9609 4.94249 13.0656 4.38281 13.2227C2.87886 13.6447 2.19573 14.1168 2.17188 15.957L2.17204 16.0078C2.17198 16.0169 2.17212 16.026 2.17227 16.0351L2.17252 16.0586C2.19638 17.8988 2.87886 18.3709 4.38281 18.793C4.93434 18.9477 5.78 19.0517 6.60779 19.1206C7.24309 19.1736 7.56082 19.9403 7.14931 20.4272C6.61681 21.0572 6.09784 21.7226 5.81932 22.2184C5.05431 23.5803 4.90555 24.3967 6.18991 25.7148L6.20632 25.7316C6.21268 25.7381 6.21902 25.7447 6.22547 25.7511L6.26127 25.7871C7.57936 27.0714 8.39623 26.9222 9.75813 26.1572C10.2663 25.8718 10.9524 25.3338 11.5962 24.7876C12.0829 24.3746 12.8512 24.6928 12.9034 25.329C12.9724 26.1694 13.0771 27.0334 13.2344 27.5938C13.6564 29.0977 14.1285 29.7808 15.9688 29.8047L16.0195 29.8045C16.0363 29.8046 16.0533 29.804 16.0703 29.804C17.9105 29.7802 18.3826 29.0977 18.8047 27.5938C18.9577 27.0484 19.061 26.2154 19.13 25.3965C19.1835 24.7613 19.9504 24.444 20.4369 24.8559C21.0733 25.3948 21.7482 25.9224 22.2497 26.2041C23.6116 26.9691 24.4285 27.1183 25.7465 25.834L25.7823 25.7979L25.7943 25.7859L25.8015 25.7784L25.8179 25.7617C27.1023 24.4436 26.9535 23.6272 26.1885 22.2653C25.9036 21.7581 25.3671 21.0735 24.8219 20.4308C24.409 19.9441 24.7272 19.1759 25.3633 19.1237C26.2027 19.0547 27.0653 18.95 27.625 18.793C29.129 18.3709 29.8121 17.8988 29.8359 16.0586L29.8358 16.0078C29.8358 15.9988 29.8357 15.9896 29.8355 15.9805L29.8353 15.957C29.8114 14.1168 29.129 13.6447 27.625 13.2227C27.0735 13.0679 26.2278 12.964 25.4 12.895C24.7647 12.8421 24.447 12.0754 24.8585 11.5885C25.391 10.9584 25.91 10.2931 26.1885 9.79722C26.9535 8.43532 27.1023 7.61891 25.8179 6.30082L25.8015 6.28405C25.7951 6.27748 25.7888 6.27094 25.7823 6.26456L25.7465 6.22854C24.4285 4.94418 23.6116 5.09341 22.2497 5.85842C21.7416 6.14384 21.0554 6.6818 20.4116 7.22806C19.9249 7.64107 19.1566 7.32286 19.1044 6.68666C19.0354 5.84626 18.9307 4.98225 18.7734 4.42188C18.3514 2.91792 17.8793 2.23479 16.0391 2.21094L15.9883 2.2111C15.9792 2.21104 15.9701 2.21119 15.961 2.21133L15.9375 2.21159C14.0973 2.23544 13.6252 2.91792 13.2031 4.42188C13.0501 4.96724 12.9468 5.80021 12.8778 6.61911ZM16 21.4141C18.9858 21.4141 21.4062 18.9936 21.4062 16.0078C21.4062 13.022 18.9858 10.6016 16 10.6016C13.0142 10.6016 10.5938 13.022 10.5938 16.0078C10.5938 18.9936 13.0142 21.4141 16 21.4141Z" fill="url(#paint0_linear_8368_322923)"/>
    <g filter="url(#filter0_iii_8368_322923)">
        <path fill-rule="evenodd" clip-rule="evenodd" d="M12.8778 6.61911C12.8243 7.25437 12.0574 7.57167 11.5709 7.15971C10.9345 6.62087 10.2596 6.09323 9.75813 5.81154C8.39623 5.04653 7.57936 4.89731 6.26127 6.18167L6.22547 6.21769C6.21902 6.22405 6.21268 6.2306 6.20633 6.23716L6.18991 6.25394C4.90555 7.57204 5.05431 8.38845 5.81932 9.75035C6.10422 10.2575 6.64069 10.9421 7.18589 11.5848C7.59878 12.0715 7.28062 12.8397 6.64448 12.892C5.80506 12.9609 4.94249 13.0656 4.38281 13.2227C2.87886 13.6447 2.19573 14.1168 2.17188 15.957L2.17204 16.0078C2.17198 16.0169 2.17212 16.026 2.17227 16.0351L2.17252 16.0586C2.19638 17.8988 2.87886 18.3709 4.38281 18.793C4.93434 18.9477 5.78 19.0517 6.60779 19.1206C7.24309 19.1736 7.56082 19.9403 7.14931 20.4272C6.61681 21.0572 6.09784 21.7226 5.81932 22.2184C5.05431 23.5803 4.90555 24.3967 6.18991 25.7148L6.20632 25.7316C6.21268 25.7381 6.21902 25.7447 6.22547 25.7511L6.26127 25.7871C7.57936 27.0714 8.39623 26.9222 9.75813 26.1572C10.2663 25.8718 10.9524 25.3338 11.5962 24.7876C12.0829 24.3746 12.8512 24.6928 12.9034 25.329C12.9724 26.1694 13.0771 27.0334 13.2344 27.5938C13.6564 29.0977 14.1285 29.7808 15.9688 29.8047L16.0195 29.8045C16.0363 29.8046 16.0533 29.804 16.0703 29.804C17.9105 29.7802 18.3826 29.0977 18.8047 27.5938C18.9577 27.0484 19.061 26.2154 19.13 25.3965C19.1835 24.7613 19.9504 24.444 20.4369 24.8559C21.0733 25.3948 21.7482 25.9224 22.2497 26.2041C23.6116 26.9691 24.4285 27.1183 25.7465 25.834L25.7823 25.7979L25.7943 25.7859L25.8015 25.7784L25.8179 25.7617C27.1023 24.4436 26.9535 23.6272 26.1885 22.2653C25.9036 21.7581 25.3671 21.0735 24.8219 20.4308C24.409 19.9441 24.7272 19.1759 25.3633 19.1237C26.2027 19.0547 27.0653 18.95 27.625 18.793C29.129 18.3709 29.8121 17.8988 29.8359 16.0586L29.8358 16.0078C29.8358 15.9988 29.8357 15.9896 29.8355 15.9805L29.8353 15.957C29.8114 14.1168 29.129 13.6447 27.625 13.2227C27.0735 13.0679 26.2278 12.964 25.4 12.895C24.7647 12.8421 24.447 12.0754 24.8585 11.5885C25.391 10.9584 25.91 10.2931 26.1885 9.79722C26.9535 8.43532 27.1023 7.61891 25.8179 6.30082L25.8015 6.28405C25.7951 6.27748 25.7888 6.27094 25.7823 6.26456L25.7465 6.22854C24.4285 4.94418 23.6116 5.09341 22.2497 5.85842C21.7416 6.14384 21.0554 6.6818 20.4116 7.22806C19.9249 7.64107 19.1566 7.32286 19.1044 6.68666C19.0354 5.84626 18.9307 4.98225 18.7734 4.42188C18.3514 2.91792 17.8793 2.23479 16.0391 2.21094L15.9883 2.2111C15.9792 2.21104 15.9701 2.21119 15.961 2.21133L15.9375 2.21159C14.0973 2.23544 13.6252 2.91792 13.2031 4.42188C13.0501 4.96724 12.9468 5.80021 12.8778 6.61911ZM16 21.4141C18.9858 21.4141 21.4062 18.9936 21.4062 16.0078C21.4062 13.022 18.9858 10.6016 16 10.6016C13.0142 10.6016 10.5938 13.022 10.5938 16.0078C10.5938 18.9936 13.0142 21.4141 16 21.4141Z" fill="url(#paint1_linear_8368_322923)"/>
    </g>
    <g filter="url(#filter1_f_8368_322923)">
        <path fill-rule="evenodd" clip-rule="evenodd" d="M16 24.1484C20.4959 24.1484 24.1406 20.5038 24.1406 16.0078C24.1406 11.5119 20.4959 7.86719 16 7.86719C11.5041 7.86719 7.85938 11.5119 7.85938 16.0078C7.85938 20.5038 11.5041 24.1484 16 24.1484ZM16 21.0106C18.763 21.0106 21.0028 18.7708 21.0028 16.0078C21.0028 13.2448 18.763 11.005 16 11.005C13.237 11.005 10.9972 13.2448 10.9972 16.0078C10.9972 18.7708 13.237 21.0106 16 21.0106Z" fill="url(#paint2_linear_8368_322923)"/>
        <path fill-rule="evenodd" clip-rule="evenodd" d="M16 24.1484C20.4959 24.1484 24.1406 20.5038 24.1406 16.0078C24.1406 11.5119 20.4959 7.86719 16 7.86719C11.5041 7.86719 7.85938 11.5119 7.85938 16.0078C7.85938 20.5038 11.5041 24.1484 16 24.1484ZM16 21.0106C18.763 21.0106 21.0028 18.7708 21.0028 16.0078C21.0028 13.2448 18.763 11.005 16 11.005C13.237 11.005 10.9972 13.2448 10.9972 16.0078C10.9972 18.7708 13.237 21.0106 16 21.0106Z" fill="url(#paint3_radial_8368_322923)"/>
    </g>
    <g filter="url(#filter2_i_8368_322923)">
        <path fill-rule="evenodd" clip-rule="evenodd" d="M16.0039 23.9023C20.3639 23.9023 23.8984 20.3678 23.8984 16.0078C23.8984 11.6478 20.3639 8.11328 16.0039 8.11328C11.6439 8.11328 8.10938 11.6478 8.10938 16.0078C8.10938 20.3678 11.6439 23.9023 16.0039 23.9023ZM16.0039 20.8594C18.6834 20.8594 20.8555 18.6873 20.8555 16.0078C20.8555 13.3284 18.6834 11.1562 16.0039 11.1562C13.3245 11.1562 11.1523 13.3284 11.1523 16.0078C11.1523 18.6873 13.3245 20.8594 16.0039 20.8594Z" fill="url(#paint4_radial_8368_322923)"/>
    </g>
    <g filter="url(#filter3_f_8368_322923)">
        <path fill-rule="evenodd" clip-rule="evenodd" d="M16 21.5156C19.0419 21.5156 21.5078 19.0497 21.5078 16.0078C21.5078 12.9659 19.0419 10.5 16 10.5C12.9581 10.5 10.4922 12.9659 10.4922 16.0078C10.4922 19.0497 12.9581 21.5156 16 21.5156ZM20.8516 16.0078C20.8516 18.6873 18.6794 20.8594 16 20.8594C13.3206 20.8594 11.1484 18.6873 11.1484 16.0078C11.1484 13.3284 13.3206 11.1562 16 11.1562C18.6794 11.1562 20.8516 13.3284 20.8516 16.0078Z" fill="url(#paint5_linear_8368_322923)"/>
    </g>
    <path fill-rule="evenodd" clip-rule="evenodd" d="M16 21.4766C19.0203 21.4766 21.4688 19.0281 21.4688 16.0078C21.4688 12.9875 19.0203 10.5391 16 10.5391C12.9797 10.5391 10.5312 12.9875 10.5312 16.0078C10.5312 19.0281 12.9797 21.4766 16 21.4766ZM16 20.3359C18.3904 20.3359 20.3281 18.3982 20.3281 16.0078C20.3281 13.6175 18.3904 11.6797 16 11.6797C13.6096 11.6797 11.6719 13.6175 11.6719 16.0078C11.6719 18.3982 13.6096 20.3359 16 20.3359Z" fill="url(#paint6_radial_8368_322923)"/>
    <path fill-rule="evenodd" clip-rule="evenodd" d="M16 21.4766C19.0203 21.4766 21.4688 19.0281 21.4688 16.0078C21.4688 12.9875 19.0203 10.5391 16 10.5391C12.9797 10.5391 10.5312 12.9875 10.5312 16.0078C10.5312 19.0281 12.9797 21.4766 16 21.4766ZM16 20.3359C18.3904 20.3359 20.3281 18.3982 20.3281 16.0078C20.3281 13.6175 18.3904 11.6797 16 11.6797C13.6096 11.6797 11.6719 13.6175 11.6719 16.0078C11.6719 18.3982 13.6096 20.3359 16 20.3359Z" fill="url(#paint7_radial_8368_322923)"/>
    <path fill-rule="evenodd" clip-rule="evenodd" d="M16 20.9453C18.7269 20.9453 20.9375 18.7347 20.9375 16.0078C20.9375 13.2809 18.7269 11.0703 16 11.0703C13.2731 11.0703 11.0625 13.2809 11.0625 16.0078C11.0625 18.7347 13.2731 20.9453 16 20.9453ZM20.3281 16.0078C20.3281 18.3982 18.3904 20.3359 16 20.3359C13.6096 20.3359 11.6719 18.3982 11.6719 16.0078C11.6719 13.6175 13.6096 11.6797 16 11.6797C18.3904 11.6797 20.3281 13.6175 20.3281 16.0078Z" fill="url(#paint8_radial_8368_322923)"/>
    <path fill-rule="evenodd" clip-rule="evenodd" d="M16 20.9453C18.7269 20.9453 20.9375 18.7347 20.9375 16.0078C20.9375 13.2809 18.7269 11.0703 16 11.0703C13.2731 11.0703 11.0625 13.2809 11.0625 16.0078C11.0625 18.7347 13.2731 20.9453 16 20.9453ZM20.3281 16.0078C20.3281 18.3982 18.3904 20.3359 16 20.3359C13.6096 20.3359 11.6719 18.3982 11.6719 16.0078C11.6719 13.6175 13.6096 11.6797 16 11.6797C18.3904 11.6797 20.3281 13.6175 20.3281 16.0078Z" fill="url(#paint9_radial_8368_322923)"/>
    <path fill-rule="evenodd" clip-rule="evenodd" d="M16 20.9453C18.7269 20.9453 20.9375 18.7347 20.9375 16.0078C20.9375 13.2809 18.7269 11.0703 16 11.0703C13.2731 11.0703 11.0625 13.2809 11.0625 16.0078C11.0625 18.7347 13.2731 20.9453 16 20.9453ZM20.3281 16.0078C20.3281 18.3982 18.3904 20.3359 16 20.3359C13.6096 20.3359 11.6719 18.3982 11.6719 16.0078C11.6719 13.6175 13.6096 11.6797 16 11.6797C18.3904 11.6797 20.3281 13.6175 20.3281 16.0078Z" fill="url(#paint10_radial_8368_322923)"/>
    <g filter="url(#filter4_f_8368_322923)">
        <path fill-rule="evenodd" clip-rule="evenodd" d="M16 20.9453C18.7269 20.9453 20.9375 18.7347 20.9375 16.0078C20.9375 13.2809 18.7269 11.0703 16 11.0703C13.2731 11.0703 11.0625 13.2809 11.0625 16.0078C11.0625 18.7347 13.2731 20.9453 16 20.9453Z" stroke="url(#paint11_radial_8368_322923)" stroke-width="0.1"/>
    </g>
    <defs>
        <filter id="filter0_iii_8368_322923" x="1.97187" y="2.01094" width="28.0641" height="27.9938" filterUnits="userSpaceOnUse" color-interpolation-filters="sRGB">
            <feFlood flood-opacity="0" result="BackgroundImageFix"/>
            <feBlend mode="normal" in="SourceGraphic" in2="BackgroundImageFix" result="shape"/>
            <feColorMatrix in="SourceAlpha" type="matrix" values="0 0 0 0 0 0 0 0 0 0 0 0 0 0 0 0 0 0 127 0" result="hardAlpha"/>
            <feOffset dx="0.2" dy="-0.2"/>
            <feGaussianBlur stdDeviation="0.2"/>
            <feComposite in2="hardAlpha" operator="arithmetic" k2="-1" k3="1"/>
            <feColorMatrix type="matrix" values="0 0 0 0 0.615686 0 0 0 0 0.533333 0 0 0 0 0.717647 0 0 0 1 0"/>
            <feBlend mode="normal" in2="shape" result="effect1_innerShadow_8368_322923"/>
            <feColorMatrix in="SourceAlpha" type="matrix" values="0 0 0 0 0 0 0 0 0 0 0 0 0 0 0 0 0 0 127 0" result="hardAlpha"/>
            <feOffset dx="-0.2" dy="0.2"/>
            <feGaussianBlur stdDeviation="0.2"/>
            <feComposite in2="hardAlpha" operator="arithmetic" k2="-1" k3="1"/>
            <feColorMatrix type="matrix" values="0 0 0 0 0.941176 0 0 0 0 0.941176 0 0 0 0 0.960784 0 0 0 1 0"/>
            <feBlend mode="normal" in2="effect1_innerShadow_8368_322923" result="effect2_innerShadow_8368_322923"/>
            <feColorMatrix in="SourceAlpha" type="matrix" values="0 0 0 0 0 0 0 0 0 0 0 0 0 0 0 0 0 0 127 0" result="hardAlpha"/>
            <feOffset dx="0.2" dy="0.1"/>
            <feGaussianBlur stdDeviation="0.2"/>
            <feComposite in2="hardAlpha" operator="arithmetic" k2="-1" k3="1"/>
            <feColorMatrix type="matrix" values="0 0 0 0 0.607843 0 0 0 0 0.6 0 0 0 0 0.631373 0 0 0 1 0"/>
            <feBlend mode="normal" in2="effect2_innerShadow_8368_322923" result="effect3_innerShadow_8368_322923"/>
        </filter>
        <filter id="filter1_f_8368_322923" x="7.35938" y="7.36719" width="17.2812" height="17.2812" filterUnits="userSpaceOnUse" color-interpolation-filters="sRGB">
            <feFlood flood-opacity="0" result="BackgroundImageFix"/>
            <feBlend mode="normal" in="SourceGraphic" in2="BackgroundImageFix" result="shape"/>
            <feGaussianBlur stdDeviation="0.25" result="effect1_foregroundBlur_8368_322923"/>
        </filter>
        <filter id="filter2_i_8368_322923" x="8.10938" y="7.86328" width="16.0391" height="16.0391" filterUnits="userSpaceOnUse" color-interpolation-filters="sRGB">
            <feFlood flood-opacity="0" result="BackgroundImageFix"/>
            <feBlend mode="normal" in="SourceGraphic" in2="BackgroundImageFix" result="shape"/>
            <feColorMatrix in="SourceAlpha" type="matrix" values="0 0 0 0 0 0 0 0 0 0 0 0 0 0 0 0 0 0 127 0" result="hardAlpha"/>
            <feOffset dx="0.25" dy="-0.25"/>
            <feGaussianBlur stdDeviation="0.25"/>
            <feComposite in2="hardAlpha" operator="arithmetic" k2="-1" k3="1"/>
            <feColorMatrix type="matrix" values="0 0 0 0 0.596078 0 0 0 0 0.521569 0 0 0 0 0.682353 0 0 0 1 0"/>
            <feBlend mode="normal" in2="shape" result="effect1_innerShadow_8368_322923"/>
        </filter>
        <filter id="filter3_f_8368_322923" x="10.3922" y="10.4" width="11.2156" height="11.2156" filterUnits="userSpaceOnUse" color-interpolation-filters="sRGB">
            <feFlood flood-opacity="0" result="BackgroundImageFix"/>
            <feBlend mode="normal" in="SourceGraphic" in2="BackgroundImageFix" result="shape"/>
            <feGaussianBlur stdDeviation="0.05" result="effect1_foregroundBlur_8368_322923"/>
        </filter>
        <filter id="filter4_f_8368_322923" x="10.9156" y="10.9205" width="10.1688" height="10.1746" filterUnits="userSpaceOnUse" color-interpolation-filters="sRGB">
            <feFlood flood-opacity="0" result="BackgroundImageFix"/>
            <feBlend mode="normal" in="SourceGraphic" in2="BackgroundImageFix" result="shape"/>
            <feGaussianBlur stdDeviation="0.05" result="effect1_foregroundBlur_8368_322923"/>
        </filter>
        <linearGradient id="paint0_linear_8368_322923" x1="25.8164" y1="6.0625" x2="6.12891" y2="25.6875" gradientUnits="userSpaceOnUse">
            <stop stop-color="#DED7EB"/>
            <stop offset="1" stop-color="#C1B4D6"/>
        </linearGradient>
        <linearGradient id="paint1_linear_8368_322923" x1="25.8164" y1="6.0625" x2="6.12891" y2="25.6875" gradientUnits="userSpaceOnUse">
            <stop stop-color="#DED7EB"/>
            <stop offset="1" stop-color="#C1B4D6"/>
        </linearGradient>
        <linearGradient id="paint2_linear_8368_322923" x1="21.0002" y1="9.44501" x2="13.5938" y2="23.9375" gradientUnits="userSpaceOnUse">
            <stop stop-color="#D0CCD9"/>
            <stop offset="0.837239" stop-color="#A38EBE"/>
        </linearGradient>
        <radialGradient id="paint3_radial_8368_322923" cx="0" cy="0" r="1" gradientUnits="userSpaceOnUse" gradientTransform="translate(9.3125 11.625) rotate(26.764) scale(4.02495 11.1436)">
            <stop stop-color="#908B9A"/>
            <stop offset="1" stop-color="#908B9A" stop-opacity="0"/>
        </radialGradient>
        <radialGradient id="paint4_radial_8368_322923" cx="0" cy="0" r="1" gradientUnits="userSpaceOnUse" gradientTransform="translate(20.9727 11.1562) rotate(133.81) scale(14.8967 19.4343)">
            <stop offset="0.032715" stop-color="#E5DFF0"/>
            <stop offset="1" stop-color="#9B8BAE"/>
        </radialGradient>
        <linearGradient id="paint5_linear_8368_322923" x1="18.9062" y1="11" x2="16" y2="21.5156" gradientUnits="userSpaceOnUse">
            <stop stop-color="#AEA9B7"/>
            <stop offset="1" stop-color="#9888AC"/>
        </linearGradient>
        <radialGradient id="paint6_radial_8368_322923" cx="0" cy="0" r="1" gradientUnits="userSpaceOnUse" gradientTransform="translate(20.4375 12.7813) rotate(128.71) scale(11.1432)">
            <stop stop-color="#E6E0F1"/>
            <stop offset="1" stop-color="#A89ABA"/>
        </radialGradient>
        <radialGradient id="paint7_radial_8368_322923" cx="0" cy="0" r="1" gradientUnits="userSpaceOnUse" gradientTransform="translate(11.1875 12.9687) rotate(32.5741) scale(5.34 10.7649)">
            <stop stop-color="#90899A"/>
            <stop offset="1" stop-color="#90899A" stop-opacity="0"/>
        </radialGradient>
        <radialGradient id="paint8_radial_8368_322923" cx="0" cy="0" r="1" gradientUnits="userSpaceOnUse" gradientTransform="translate(19.5937 12.9375) rotate(136.338) scale(9.46013 9.40439)">
            <stop offset="0.246219" stop-color="#C9BFD7"/>
            <stop offset="1" stop-color="#ADA4BB"/>
        </radialGradient>
        <radialGradient id="paint9_radial_8368_322923" cx="0" cy="0" r="1" gradientUnits="userSpaceOnUse" gradientTransform="translate(12.0625 19.6875) rotate(-45.5162) scale(4.90575 7.79856)">
            <stop offset="0.342773" stop-color="#BCB6C4"/>
            <stop offset="1" stop-color="#BCB6C4" stop-opacity="0"/>
        </radialGradient>
        <radialGradient id="paint10_radial_8368_322923" cx="0" cy="0" r="1" gradientUnits="userSpaceOnUse" gradientTransform="translate(12.7812 11.6563) rotate(49.2589) scale(4.16575 7.39539)">
            <stop offset="0.193614" stop-color="#A294B3"/>
            <stop offset="1" stop-color="#A294B3" stop-opacity="0"/>
        </radialGradient>
        <radialGradient id="paint11_radial_8368_322923" cx="0" cy="0" r="1" gradientUnits="userSpaceOnUse" gradientTransform="translate(21.1005 15.5163) rotate(152.789) scale(6.85944 6.79772)">
            <stop offset="0.588231" stop-color="#CCC3DA"/>
            <stop offset="1" stop-color="#A197AF"/>
        </radialGradient>
    </defs>
</svg>
