<svg width="17" height="19" viewBox="0 0 17 19" fill="none" xmlns="http://www.w3.org/2000/svg">
<g filter="url(#filter0_d_4755_96681)">
<path d="M8.53711 5.02652H14.0362C14.7772 5.02026 15.375 4.41949 15.375 3.68104C15.375 1.56582 12.8467 0.489436 11.3335 1.95382L8.53711 4.66516V5.02652Z" fill="#DE2236"/>
<path d="M8.53711 5.02652H14.0362C14.7772 5.02026 15.375 4.41949 15.375 3.68104C15.375 1.56582 12.8467 0.489436 11.3335 1.95382L8.53711 4.66516V5.02652Z" fill="url(#paint0_linear_4755_96681)"/>
</g>
<g filter="url(#filter1_d_4755_96681)">
<path d="M8.53713 5.02652H3.03809C2.29704 5.02026 1.69922 4.41949 1.69922 3.68104C1.69922 1.56582 4.22753 0.489436 5.74076 1.95382L8.53713 4.66516V5.02652Z" fill="url(#paint1_linear_4755_96681)"/>
<path d="M8.53713 5.02652H3.03809C2.29704 5.02026 1.69922 4.41949 1.69922 3.68104C1.69922 1.56582 4.22753 0.489436 5.74076 1.95382L8.53713 4.66516V5.02652Z" fill="url(#paint2_linear_4755_96681)"/>
<path d="M8.53713 5.02652H3.03809C2.29704 5.02026 1.69922 4.41949 1.69922 3.68104C1.69922 1.56582 4.22753 0.489436 5.74076 1.95382L8.53713 4.66516V5.02652Z" fill="url(#paint3_radial_4755_96681)"/>
</g>
<path d="M14.0551 18.7764H2.94494C2.21302 18.7764 1.625 18.1954 1.625 17.4724V9.40137H15.375V17.4724C15.375 18.1893 14.787 18.7764 14.0551 18.7764Z" fill="url(#paint4_linear_4755_96681)"/>
<path d="M14.0551 18.7764H2.94494C2.21302 18.7764 1.625 18.1954 1.625 17.4724V9.40137H15.375V17.4724C15.375 18.1893 14.787 18.7764 14.0551 18.7764Z" fill="url(#paint5_linear_4755_96681)"/>
<path d="M14.0551 18.7764H2.94494C2.21302 18.7764 1.625 18.1954 1.625 17.4724V9.40137H15.375V17.4724C15.375 18.1893 14.787 18.7764 14.0551 18.7764Z" fill="url(#paint6_radial_4755_96681)"/>
<path d="M14.0551 18.7764H2.94494C2.21302 18.7764 1.625 18.1954 1.625 17.4724V9.40137H15.375V17.4724C15.375 18.1893 14.787 18.7764 14.0551 18.7764Z" fill="url(#paint7_linear_4755_96681)"/>
<path d="M14.0551 18.7764H2.94494C2.21302 18.7764 1.625 18.1954 1.625 17.4724V9.40137H15.375V17.4724C15.375 18.1893 14.787 18.7764 14.0551 18.7764Z" fill="url(#paint8_linear_4755_96681)"/>
<path d="M14.0551 18.7764H2.94494C2.21302 18.7764 1.625 18.1954 1.625 17.4724V9.40137H15.375V17.4724C15.375 18.1893 14.787 18.7764 14.0551 18.7764Z" fill="url(#paint9_linear_4755_96681)"/>
<path d="M15.7884 5.02637H1.21153C0.749562 5.02637 0.375 5.4019 0.375 5.86506V8.56267C0.375 9.02586 0.749562 9.40136 1.21153 9.40136H15.7884C16.2504 9.40136 16.625 9.02586 16.625 8.56267V5.86506C16.625 5.4019 16.2504 5.02637 15.7884 5.02637Z" fill="url(#paint10_linear_4755_96681)"/>
<path d="M15.7884 5.02637H1.21153C0.749562 5.02637 0.375 5.4019 0.375 5.86506V8.56267C0.375 9.02586 0.749562 9.40136 1.21153 9.40136H15.7884C16.2504 9.40136 16.625 9.02586 16.625 8.56267V5.86506C16.625 5.4019 16.2504 5.02637 15.7884 5.02637Z" fill="url(#paint11_linear_4755_96681)"/>
<path d="M15.7884 5.02637H1.21153C0.749562 5.02637 0.375 5.4019 0.375 5.86506V8.56267C0.375 9.02586 0.749562 9.40136 1.21153 9.40136H15.7884C16.2504 9.40136 16.625 9.02586 16.625 8.56267V5.86506C16.625 5.4019 16.2504 5.02637 15.7884 5.02637Z" fill="url(#paint12_linear_4755_96681)"/>
<path d="M15.7884 5.02637H1.21153C0.749562 5.02637 0.375 5.4019 0.375 5.86506V8.56267C0.375 9.02586 0.749562 9.40136 1.21153 9.40136H15.7884C16.2504 9.40136 16.625 9.02586 16.625 8.56267V5.86506C16.625 5.4019 16.2504 5.02637 15.7884 5.02637Z" fill="url(#paint13_radial_4755_96681)"/>
<path d="M15.7884 5.02637H1.21153C0.749562 5.02637 0.375 5.4019 0.375 5.86506V8.56267C0.375 9.02586 0.749562 9.40136 1.21153 9.40136H15.7884C16.2504 9.40136 16.625 9.02586 16.625 8.56267V5.86506C16.625 5.4019 16.2504 5.02637 15.7884 5.02637Z" fill="url(#paint14_linear_4755_96681)"/>
<path d="M15.7884 5.02637H1.21153C0.749562 5.02637 0.375 5.4019 0.375 5.86506V8.56267C0.375 9.02586 0.749562 9.40136 1.21153 9.40136H15.7884C16.2504 9.40136 16.625 9.02586 16.625 8.56267V5.86506C16.625 5.4019 16.2504 5.02637 15.7884 5.02637Z" fill="url(#paint15_radial_4755_96681)"/>
<g filter="url(#filter2_dd_4755_96681)">
<path d="M8.50306 1.90137C7.46519 1.90137 6.625 2.75707 6.625 3.81412V18.7764H10.3749V3.81412C10.3811 2.75707 9.54094 1.90137 8.50306 1.90137Z" fill="url(#paint16_linear_4755_96681)"/>
<path d="M8.50306 1.90137C7.46519 1.90137 6.625 2.75707 6.625 3.81412V18.7764H10.3749V3.81412C10.3811 2.75707 9.54094 1.90137 8.50306 1.90137Z" fill="url(#paint17_linear_4755_96681)"/>
</g>
<g filter="url(#filter3_f_4755_96681)">
<path d="M13.5078 1.90137C13.9961 2.03157 14.9453 2.60059 14.8359 3.83496" stroke="#FB5157" stroke-width="0.5" stroke-linecap="round"/>
</g>
<g filter="url(#filter4_f_4755_96681)">
<path d="M4.54297 1.79458C4.63972 1.78651 4.92515 1.85262 5.29278 2.18157C5.6604 2.51052 6.18771 3.06037 6.4054 3.29419" stroke="#FB5157" stroke-width="0.5" stroke-linecap="round"/>
</g>
<defs>
<filter id="filter0_d_4755_96681" x="8.08711" y="0.829297" width="8.33789" height="5.24707" filterUnits="userSpaceOnUse" color-interpolation-filters="sRGB">
<feFlood flood-opacity="0" result="BackgroundImageFix"/>
<feColorMatrix in="SourceAlpha" type="matrix" values="0 0 0 0 0 0 0 0 0 0 0 0 0 0 0 0 0 0 127 0" result="hardAlpha"/>
<feOffset dx="0.3" dy="0.3"/>
<feGaussianBlur stdDeviation="0.375"/>
<feComposite in2="hardAlpha" operator="out"/>
<feColorMatrix type="matrix" values="0 0 0 0 0.698039 0 0 0 0 0.235294 0 0 0 0 0.243137 0 0 0 1 0"/>
<feBlend mode="normal" in2="BackgroundImageFix" result="effect1_dropShadow_4755_96681"/>
<feBlend mode="normal" in="SourceGraphic" in2="effect1_dropShadow_4755_96681" result="shape"/>
</filter>
<filter id="filter1_d_4755_96681" x="1.44922" y="0.229297" width="8.33789" height="5.24707" filterUnits="userSpaceOnUse" color-interpolation-filters="sRGB">
<feFlood flood-opacity="0" result="BackgroundImageFix"/>
<feColorMatrix in="SourceAlpha" type="matrix" values="0 0 0 0 0 0 0 0 0 0 0 0 0 0 0 0 0 0 127 0" result="hardAlpha"/>
<feOffset dx="0.5" dy="-0.3"/>
<feGaussianBlur stdDeviation="0.375"/>
<feComposite in2="hardAlpha" operator="out"/>
<feColorMatrix type="matrix" values="0 0 0 0 0.698039 0 0 0 0 0.235294 0 0 0 0 0.243137 0 0 0 1 0"/>
<feBlend mode="normal" in2="BackgroundImageFix" result="effect1_dropShadow_4755_96681"/>
<feBlend mode="normal" in="SourceGraphic" in2="effect1_dropShadow_4755_96681" result="shape"/>
</filter>
<filter id="filter2_dd_4755_96681" x="6.225" y="1.70137" width="4.55" height="17.275" filterUnits="userSpaceOnUse" color-interpolation-filters="sRGB">
<feFlood flood-opacity="0" result="BackgroundImageFix"/>
<feColorMatrix in="SourceAlpha" type="matrix" values="0 0 0 0 0 0 0 0 0 0 0 0 0 0 0 0 0 0 127 0" result="hardAlpha"/>
<feOffset dx="0.2"/>
<feGaussianBlur stdDeviation="0.1"/>
<feComposite in2="hardAlpha" operator="out"/>
<feColorMatrix type="matrix" values="0 0 0 0 0.729412 0 0 0 0 0.101961 0 0 0 0 0.152941 0 0 0 1 0"/>
<feBlend mode="normal" in2="BackgroundImageFix" result="effect1_dropShadow_4755_96681"/>
<feColorMatrix in="SourceAlpha" type="matrix" values="0 0 0 0 0 0 0 0 0 0 0 0 0 0 0 0 0 0 127 0" result="hardAlpha"/>
<feOffset dx="-0.2"/>
<feGaussianBlur stdDeviation="0.1"/>
<feComposite in2="hardAlpha" operator="out"/>
<feColorMatrix type="matrix" values="0 0 0 0 0.894118 0 0 0 0 0.301961 0 0 0 0 0.341176 0 0 0 1 0"/>
<feBlend mode="normal" in2="effect1_dropShadow_4755_96681" result="effect2_dropShadow_4755_96681"/>
<feBlend mode="normal" in="SourceGraphic" in2="effect2_dropShadow_4755_96681" result="shape"/>
</filter>
<filter id="filter3_f_4755_96681" x="12.2578" y="0.651367" width="3.83594" height="4.43359" filterUnits="userSpaceOnUse" color-interpolation-filters="sRGB">
<feFlood flood-opacity="0" result="BackgroundImageFix"/>
<feBlend mode="normal" in="SourceGraphic" in2="BackgroundImageFix" result="shape"/>
<feGaussianBlur stdDeviation="0.5" result="effect1_foregroundBlur_4755_96681"/>
</filter>
<filter id="filter4_f_4755_96681" x="3.29297" y="0.543945" width="4.36328" height="4" filterUnits="userSpaceOnUse" color-interpolation-filters="sRGB">
<feFlood flood-opacity="0" result="BackgroundImageFix"/>
<feBlend mode="normal" in="SourceGraphic" in2="BackgroundImageFix" result="shape"/>
<feGaussianBlur stdDeviation="0.5" result="effect1_foregroundBlur_4755_96681"/>
</filter>
<linearGradient id="paint0_linear_4755_96681" x1="12.6938" y1="5.32644" x2="12.6938" y2="4.16545" gradientUnits="userSpaceOnUse">
<stop stop-color="#CE280A"/>
<stop offset="1" stop-color="#CE280A" stop-opacity="0"/>
</linearGradient>
<linearGradient id="paint1_linear_4755_96681" x1="6.21163" y1="2.08534" x2="5.11819" y2="5.02652" gradientUnits="userSpaceOnUse">
<stop stop-color="#DF2332"/>
<stop offset="1" stop-color="#D9213B"/>
</linearGradient>
<linearGradient id="paint2_linear_4755_96681" x1="4.38049" y1="5.32644" x2="4.38049" y2="4.16545" gradientUnits="userSpaceOnUse">
<stop stop-color="#CE280A"/>
<stop offset="1" stop-color="#CE280A" stop-opacity="0"/>
</linearGradient>
<radialGradient id="paint3_radial_4755_96681" cx="0" cy="0" r="1" gradientUnits="userSpaceOnUse" gradientTransform="translate(6.96144 5.20551) rotate(-173.603) scale(1.60636 4.22504)">
<stop offset="0.150943" stop-color="#BD1123"/>
<stop offset="1" stop-color="#BD1123" stop-opacity="0"/>
</radialGradient>
<linearGradient id="paint4_linear_4755_96681" x1="1.625" y1="15.3779" x2="15.375" y2="15.3779" gradientUnits="userSpaceOnUse">
<stop stop-color="#F1A738"/>
<stop offset="1" stop-color="#FAD42C"/>
</linearGradient>
<linearGradient id="paint5_linear_4755_96681" x1="8.5" y1="8.15137" x2="8.5" y2="10.1826" gradientUnits="userSpaceOnUse">
<stop stop-color="#C97525"/>
<stop offset="1" stop-color="#C97525" stop-opacity="0"/>
</linearGradient>
<radialGradient id="paint6_radial_4755_96681" cx="0" cy="0" r="1" gradientUnits="userSpaceOnUse" gradientTransform="translate(7.023 13.3467) rotate(180) scale(1.48438 11.6797)">
<stop stop-color="#C87C28"/>
<stop offset="1" stop-color="#C87C28" stop-opacity="0"/>
</radialGradient>
<linearGradient id="paint7_linear_4755_96681" x1="1.28083" y1="14.0889" x2="3.31208" y2="14.0889" gradientUnits="userSpaceOnUse">
<stop stop-color="#C2773F"/>
<stop offset="1" stop-color="#C2773F" stop-opacity="0"/>
</linearGradient>
<linearGradient id="paint8_linear_4755_96681" x1="8.82063" y1="19.1631" x2="8.82063" y2="18.0999" gradientUnits="userSpaceOnUse">
<stop stop-color="#E68370"/>
<stop offset="1" stop-color="#E68370" stop-opacity="0"/>
</linearGradient>
<linearGradient id="paint9_linear_4755_96681" x1="15.8121" y1="14.9092" x2="14.1324" y2="14.9092" gradientUnits="userSpaceOnUse">
<stop stop-color="#FFF733"/>
<stop offset="1" stop-color="#FFF733" stop-opacity="0"/>
</linearGradient>
<linearGradient id="paint10_linear_4755_96681" x1="16.625" y1="7.51824" x2="0.375107" y2="7.4763" gradientUnits="userSpaceOnUse">
<stop stop-color="#F6D729"/>
<stop offset="1" stop-color="#F39B3A"/>
</linearGradient>
<linearGradient id="paint11_linear_4755_96681" x1="16.625" y1="7.21386" x2="15.5454" y2="7.21386" gradientUnits="userSpaceOnUse">
<stop stop-color="#FFF850"/>
<stop offset="1" stop-color="#FFF850" stop-opacity="0"/>
</linearGradient>
<linearGradient id="paint12_linear_4755_96681" x1="8.5" y1="9.60055" x2="8.5" y2="8.86586" gradientUnits="userSpaceOnUse">
<stop stop-color="#E8AF21"/>
<stop offset="1" stop-color="#E8AF21" stop-opacity="0"/>
</linearGradient>
<radialGradient id="paint13_radial_4755_96681" cx="0" cy="0" r="1" gradientUnits="userSpaceOnUse" gradientTransform="translate(2.34551 9.85393) rotate(-90) scale(1.14008 8.19056)">
<stop stop-color="#DE7550"/>
<stop offset="1" stop-color="#DE7550" stop-opacity="0"/>
</radialGradient>
<linearGradient id="paint14_linear_4755_96681" x1="0.199513" y1="7.47811" x2="1.64442" y2="7.47811" gradientUnits="userSpaceOnUse">
<stop stop-color="#BE7841"/>
<stop offset="1" stop-color="#BE7841" stop-opacity="0"/>
</linearGradient>
<radialGradient id="paint15_radial_4755_96681" cx="0" cy="0" r="1" gradientUnits="userSpaceOnUse" gradientTransform="translate(7.21831 7.85842) rotate(180) scale(1.58203 10.957)">
<stop offset="0.188888" stop-color="#C57E10"/>
<stop offset="1" stop-color="#C57E10" stop-opacity="0"/>
</radialGradient>
<linearGradient id="paint16_linear_4755_96681" x1="8.50488" y1="1.9025" x2="8.50488" y2="18.7756" gradientUnits="userSpaceOnUse">
<stop stop-color="#D12136"/>
<stop offset="1" stop-color="#B6246E"/>
</linearGradient>
<linearGradient id="paint17_linear_4755_96681" x1="8.5" y1="18.9359" x2="8.5" y2="18.0332" gradientUnits="userSpaceOnUse">
<stop stop-color="#B3368C"/>
<stop offset="1" stop-color="#B3368C" stop-opacity="0"/>
</linearGradient>
</defs>
</svg>
