<svg width="19" height="20" viewBox="0 0 19 20" fill="none"
    xmlns="http://www.w3.org/2000/svg">
    <path d="M1.28125 1.28125V18.7187" stroke="currentColor" stroke-width="1.5" stroke-linecap="round"/>
    <path d="M9.20279 11.2559C10.6249 11.2559 12.0844 11.3627 12.9219 11.4925C13.3621 11.5607 13.6882 11.8764 13.7933 12.3093C13.8981 12.7414 13.9857 13.3198 13.9857 14.0459C13.9857 14.7719 13.8981 15.3503 13.7933 15.7823C13.6882 16.2152 13.3621 16.5309 12.9219 16.5991C12.0844 16.7289 10.6249 16.8357 9.20279 16.8358C7.78068 16.8358 6.32121 16.729 5.4837 16.5992C5.04345 16.531 4.71736 16.2153 4.61229 15.7824C4.50744 15.3503 4.41992 14.7719 4.41992 14.0458C4.41992 13.3198 4.50744 12.7413 4.61229 12.3093C4.71736 11.8763 5.04346 11.5607 5.48371 11.4925C6.32121 11.3627 7.78068 11.2559 9.20279 11.2559Z" fill="currentColor" stroke="currentColor" stroke-width="1.5"/>
    <path d="M11.2953 2.67578C13.8382 2.67578 16.0295 2.794 17.1018 2.93278C17.5437 2.98996 17.8732 3.29631 17.9783 3.72925C18.0831 4.16128 18.1707 4.73972 18.1707 5.46579C18.1707 6.19183 18.0831 6.77023 17.9783 7.20223C17.8732 7.63517 17.5437 7.94152 17.1018 7.99869C16.0295 8.13748 13.8382 8.2557 11.2953 8.2557C8.75239 8.2557 6.56112 8.1375 5.48874 7.99874C5.04692 7.94156 4.71736 7.63521 4.61229 7.20227C4.50744 6.77025 4.41992 6.1918 4.41992 5.46574C4.41992 4.73967 4.50744 4.16123 4.61229 3.7292C4.71736 3.29626 5.04692 2.98991 5.48874 2.93274C6.56112 2.79397 8.75239 2.67578 11.2953 2.67578Z" fill="currentColor" stroke="currentColor" stroke-width="1.5"/>
</svg>
