<svg width="18" height="18" viewBox="0 0 18 18" fill="none"
    xmlns="http://www.w3.org/2000/svg">
    <path d="M16.0678 8.64793L17.2102 9.79039C17.4404 10.0205 17.4334 10.4006 17.1947 10.6393L14.169 13.6651C13.9302 13.9038 13.5501 13.9108 13.32 13.6806L12.0532 12.4139C11.8231 12.1837 11.83 11.8036 12.0687 11.5649C12.6078 11.0259 12.9103 10.7041 12.4882 9.98816C12.128 9.37711 10.7867 8.04387 9.9829 8.84766L9.026 9.80457C8.79152 10.0391 8.42065 10.0499 8.18946 9.83216C8.18527 9.82822 8.18113 9.8242 8.17704 9.82011C7.60427 9.24734 6.86936 8.69159 6.39943 8.03122C6.20623 7.75971 6.27917 7.35876 6.56293 7.14058C7.13082 6.70394 7.83604 6.05667 7.51626 5.73688C7.00756 5.22819 6.64232 4.84336 6.00502 4.36291C4.84749 3.49024 2.98873 2.86307 1.68669 2.5009C1.49898 2.44869 1.54877 2.11407 1.74553 2.11091C1.74865 2.11086 1.74938 2.1109 1.7525 2.11067C1.8512 2.10361 5.1158 1.87459 7.10771 2.35492C8.41273 2.66961 9.17363 2.87223 10.3122 3.56383C11.7706 4.44979 12.9611 5.54124 13.3465 6.69684C13.732 7.85244 12.8562 8.45813 13.6146 8.8618C14.0693 9.10386 14.6271 9.08774 15.0305 8.72253C15.3277 8.4534 15.7944 8.37456 16.0678 8.64793Z" fill="currentColor"/>
    <path d="M8.17704 9.82011C8.18113 9.8242 8.18527 9.82822 8.18946 9.83216M8.17704 9.82011L8.18946 9.83216M8.17704 9.82011C7.60427 9.24734 6.86936 8.69159 6.39943 8.03122M8.18946 9.83216C8.42065 10.0499 8.79152 10.0391 9.026 9.80457L9.9829 8.84766C10.7867 8.04387 12.128 9.37711 12.4882 9.98816C12.9103 10.7041 12.6078 11.0259 12.0687 11.5649C11.83 11.8036 11.8231 12.1837 12.0532 12.4139L13.32 13.6806C13.5501 13.9108 13.9302 13.9038 14.169 13.6651L17.1947 10.6393C17.4334 10.4006 17.4404 10.0205 17.2102 9.79039L16.0678 8.64793C15.7944 8.37456 15.3277 8.4534 15.0305 8.72253C14.6271 9.08774 14.0693 9.10386 13.6146 8.8618C12.8562 8.45813 13.732 7.85244 13.3465 6.69684C12.9611 5.54124 11.7706 4.44979 10.3122 3.56383C9.17363 2.87223 8.41273 2.66961 7.10771 2.35492C5.1158 1.87459 1.8512 2.10361 1.7525 2.11067C1.74938 2.1109 1.74865 2.11086 1.74553 2.11091C1.54877 2.11407 1.49898 2.44869 1.68669 2.5009C2.98873 2.86307 4.84749 3.49024 6.00502 4.36291C6.64232 4.84336 7.00756 5.22819 7.51626 5.73688C7.83604 6.05667 7.13082 6.70394 6.56293 7.14058C6.27917 7.35876 6.20623 7.75971 6.39943 8.03122M8.18946 9.83216L2.8021 15.2195C2.47839 15.5432 1.97213 15.6105 1.60516 15.3369C1.46424 15.2318 1.32499 15.1183 1.2164 15.0097C1.1078 14.9011 0.994378 14.7619 0.889279 14.621C0.615587 14.254 0.682904 13.7477 1.00661 13.424L6.39943 8.03122" stroke="currentColor" stroke-linecap="round" stroke-linejoin="round"/>
</svg>
