<svg width="18" height="18" viewBox="0 0 18 18" fill="none"
    xmlns="http://www.w3.org/2000/svg">
    <path d="M6.19643 2.79264C6.72228 2.26679 6.65838 2.33069 7.04418 1.97485C8.33287 0.786271 10.3401 0.88874 11.6692 2.03201C12.2847 2.56152 12.9068 3.13908 13.9241 4.15635C14.9293 5.16153 15.5109 5.78661 16.0411 6.40092C17.2008 7.74437 17.2864 9.77825 16.0904 11.0895C15.7463 11.4668 15.8215 11.3983 15.3118 11.908C14.8021 12.4178 14.8708 12.3423 14.4935 12.6865C13.1822 13.8824 11.1484 13.7968 9.8049 12.6371C9.1906 12.1069 8.56551 11.5253 7.56033 10.5201C6.54307 9.50284 5.9655 8.88073 5.43599 8.26517C4.29273 6.93611 4.19026 4.92888 5.37884 3.6402C5.73463 3.25444 5.67069 3.31839 6.19643 2.79264Z" stroke="currentColor" stroke-width="2"/>
    <path d="M1.77277 13.6789C3.68717 11.9533 6.53749 9.49754 6.53749 9.49754L8.58305 11.5431C8.58305 11.5431 6.1273 14.3934 4.40173 16.3078C3.68861 17.099 2.47868 17.1082 1.72552 16.3551C0.972369 15.6019 0.981605 14.392 1.77277 13.6789Z" stroke="currentColor" stroke-width="2" stroke-linecap="round" stroke-linejoin="round"/>
</svg>
