<svg xmlns="http://www.w3.org/2000/svg"
    xmlns:xlink="http://www.w3.org/1999/xlink" version="1.1" id="Layer_1" x="0px" y="0px" viewBox="0 0 512 512" xml:space="preserve">
    <g>
        <path d="M332.8,76.8v25.6h76.8V0H307.2v102.4h25.6V76.8h25.6V51.2h-25.6V76.8h25.6H332.8z M128,76.8v25.6h76.8V0H102.4v102.4H128   V76.8h25.6V51.2H128V76.8h25.6H128z M332.8,281.6v25.6h76.8V204.8H307.2v102.4h25.6V281.6h25.6V256h-25.6V281.6h25.6H332.8z    M128,281.6v25.6h76.8V204.8H102.4v102.4H128V281.6h25.6V256H128V281.6h25.6H128z M332.8,486.4V512h76.8V409.6H307.2V512h25.6   V486.4h25.6v-25.6h-25.6V486.4h25.6H332.8z M128,486.4V512h76.8V409.6H102.4V512H128V486.4h25.6v-25.6H128V486.4h25.6H128z"/>
    </g>
</svg>