<svg width="16" height="16" viewBox="0 0 16 16" fill="none" xmlns="http://www.w3.org/2000/svg">
<g clip-path="url(#clip0_7394_273089)">
<path d="M5.79941 11.6669H10.1994M1.39941 9.90691V8.09568C1.39941 7.25329 1.39941 6.8321 1.50799 6.44421C1.60416 6.10062 1.76222 5.77745 1.97439 5.49059C2.21391 5.16675 2.54638 4.90816 3.21132 4.39099L5.11799 2.90802C6.14854 2.10648 6.66382 1.70571 7.2328 1.55166C7.73484 1.41572 8.26399 1.41572 8.76603 1.55166C9.33501 1.70571 9.85029 2.10648 10.8808 2.90802L12.7875 4.39099C13.4525 4.90816 13.7849 5.16675 14.0244 5.49059C14.2366 5.77745 14.3947 6.10062 14.4908 6.44421C14.5994 6.8321 14.5994 7.25329 14.5994 8.09568V9.90691C14.5994 11.5497 14.5994 12.3711 14.2797 12.9986C13.9985 13.5506 13.5497 13.9993 12.9978 14.2805C12.3703 14.6002 11.5489 14.6002 9.90608 14.6002H6.09275C4.44993 14.6002 3.62852 14.6002 3.00104 14.2805C2.4491 13.9993 2.00036 13.5506 1.71913 12.9986C1.39941 12.3711 1.39941 11.5497 1.39941 9.90691Z" stroke="currentColor" stroke-width="2" stroke-linecap="round" stroke-linejoin="round"/>
</g>
<defs>
<clipPath id="clip0_7394_273089">
<rect width="16" height="16" fill="white"/>
</clipPath>
</defs>
</svg>
