<svg width="20" height="20" viewBox="0 0 20 20" fill="none"
    xmlns="http://www.w3.org/2000/svg">
    <path d="M2.83229 16.2102C3.03191 17.6402 4.21493 18.7592 5.65717 18.8279C7.04377 18.894 8.44666 18.9286 10 18.9286C11.5534 18.9286 12.9563 18.894 14.3429 18.8279C15.7852 18.7592 16.9682 17.6402 17.1678 16.2102C17.3147 15.1579 17.4405 14.0776 17.4405 12.9762C17.4405 11.8749 17.3147 10.7945 17.1678 9.74224C16.9682 8.31223 15.7852 7.19323 14.3429 7.12448C12.9563 7.05839 11.5534 7.02383 10 7.02383C8.44666 7.02383 7.04377 7.05839 5.65716 7.12448C4.21493 7.19323 3.03191 8.31223 2.83229 9.74224C2.6854 10.7945 2.55957 11.8749 2.55957 12.9762C2.55957 14.0776 2.6854 15.1579 2.83229 16.2102Z" stroke="white" stroke-width="2"/>
    <path d="M14.1668 7.02382V5.23811C14.1668 4.13304 13.7278 3.07323 12.9464 2.29183C12.165 1.51043 11.1052 1.07144 10.0002 1.07144C8.89509 1.07144 7.83529 1.51043 7.05388 2.29183C6.27248 3.07323 5.8335 4.13304 5.8335 5.23811V7.02382" stroke="white" stroke-width="2" stroke-linecap="round" stroke-linejoin="round"/>
    <circle cx="10.0001" cy="12.9762" r="1.78571" fill="white"/>
</svg>
