<svg width="16" height="14" viewBox="0 0 16 14" fill="none" xmlns="http://www.w3.org/2000/svg">
<path d="M15.6 11.8H13.6V3.43626C13.6 2.75476 13.0618 2.20001 12.4 2.20001H9.6V3.80001H12V13.4H15.6C15.821 13.4 16 13.221 16 13V12.2C16 11.979 15.821 11.8 15.6 11.8ZM7.806 0.625262L3.006 1.86876C2.64975 1.96101 2.4 2.29251 2.4 2.67301V11.8H0.4C0.179 11.8 0 11.979 0 12.2V13C0 13.221 0.179 13.4 0.4 13.4H8.8V1.42951C8.8 0.890012 8.311 0.494262 7.806 0.625262ZM6.6 7.80001C6.26875 7.80001 6 7.44176 6 7.00001C6 6.55826 6.26875 6.20001 6.6 6.20001C6.93125 6.20001 7.2 6.55826 7.2 7.00001C7.2 7.44176 6.93125 7.80001 6.6 7.80001Z" fill="currentColor"/>
</svg>
