<svg width="22" height="28" viewBox="0 0 22 28" fill="none" xmlns="http://www.w3.org/2000/svg">
<path d="M10.9993 10.0596C8.93908 10.0596 6.80282 10.0596 4.8836 10.2737C3.00703 10.4831 1.49756 11.9036 1.27327 13.7785C1.125 15.0179 1.125 16.3259 1.125 18.0824C1.125 19.839 1.125 21.1469 1.27327 22.3864C1.49756 24.2612 3.00703 25.6817 4.8836 25.8911C6.80282 26.1053 8.93908 26.1053 10.9993 26.1053C13.0595 26.1053 15.1958 26.1053 17.115 25.8911C18.9915 25.6817 20.501 24.2612 20.7253 22.3864C20.8736 21.1469 20.8736 19.839 20.8736 18.0824C20.8736 16.3259 20.8736 15.0179 20.7253 13.7785C20.501 11.9036 18.9915 10.4831 17.115 10.2737C15.1958 10.0596 13.0595 10.0596 10.9993 10.0596Z" stroke="#56CCF2" stroke-width="2"/>
<path d="M13.2511 15.6287C13.2511 15.6287 12.405 14.6855 11.0328 14.8034C9.66047 14.9213 8.99898 15.7644 8.99898 16.6098C8.99898 19.0755 13.2511 17.3667 13.2511 19.8953C13.2511 21.1988 10.4305 22.119 8.75 20.5854" stroke="#56CCF2" stroke-width="2" stroke-linecap="round" stroke-linejoin="round"/>
<path d="M11.2031 13.1453L11.2031 14.7932" stroke="#56CCF2" stroke-width="2" stroke-linecap="round"/>
<path d="M11.2031 21.3716L11.2031 23.0195" stroke="#56CCF2" stroke-width="2" stroke-linecap="round"/>
<path d="M5.24219 2.94434V5.15647" stroke="#56CCF2" stroke-width="2" stroke-linecap="round" stroke-linejoin="round"/>
<path d="M11 1.28564V5.15687" stroke="#56CCF2" stroke-width="2" stroke-linecap="round" stroke-linejoin="round"/>
<path d="M16.7578 2.94434V5.15647" stroke="#56CCF2" stroke-width="2" stroke-linecap="round" stroke-linejoin="round"/>
</svg>
