<svg width="23" height="28" viewBox="0 0 23 28" fill="none" xmlns="http://www.w3.org/2000/svg">
<path d="M11.6648 17.9404C13.725 17.9404 15.8612 17.9404 17.7805 17.7263C19.657 17.5169 21.1665 16.0964 21.3908 14.2215C21.5391 12.9821 21.5391 11.6741 21.5391 9.91757C21.5391 8.16101 21.5391 6.85305 21.3908 5.61362C21.1665 3.73876 19.657 2.31827 17.7805 2.10887C15.8612 1.89472 13.725 1.89472 11.6648 1.89472C9.60457 1.89472 7.46831 1.89472 5.54909 2.10887C3.67252 2.31827 2.16305 3.73876 1.93876 5.61361C1.79049 6.85305 1.79049 8.16101 1.79049 9.91757C1.79049 11.6741 1.79049 12.9821 1.93876 14.2215C2.16305 16.0964 3.67252 17.5169 5.54909 17.7263C7.46831 17.9404 9.60457 17.9404 11.6648 17.9404Z" stroke="#9B51E0" stroke-width="2"/>
<path d="M13.9152 7.4639C13.9152 7.4639 13.0691 6.52075 11.6968 6.63861C10.3245 6.75648 9.66305 7.59956 9.66305 8.44498C9.66305 10.9107 13.9152 9.20193 13.9152 11.7305C13.9152 13.034 11.0946 13.9542 9.41406 12.4206" stroke="#9B51E0" stroke-width="2" stroke-linecap="round" stroke-linejoin="round"/>
<path d="M11.8672 4.98047L11.8672 6.62836" stroke="#9B51E0" stroke-width="2" stroke-linecap="round"/>
<path d="M11.8672 13.2068L11.8672 14.8547" stroke="#9B51E0" stroke-width="2" stroke-linecap="round"/>
<path d="M17.4219 25.0557L17.4219 22.8435" stroke="#9B51E0" stroke-width="2" stroke-linecap="round" stroke-linejoin="round"/>
<path d="M11.6641 26.7144L11.6641 22.8431" stroke="#9B51E0" stroke-width="2" stroke-linecap="round" stroke-linejoin="round"/>
<path d="M5.90625 25.0557L5.90625 22.8435" stroke="#9B51E0" stroke-width="2" stroke-linecap="round" stroke-linejoin="round"/>
</svg>
