<svg width="20" height="20" viewBox="0 0 20 20" fill="none" xmlns="http://www.w3.org/2000/svg">
<path d="M10.5825 9.87484C10.3991 9.95446 10.2014 9.99555 10.0014 9.99555C9.80154 9.99555 9.60377 9.95446 9.4204 9.87484L2.3737 6.6111C2.25927 6.55339 2.16311 6.46504 2.09592 6.35591C2.02874 6.24677 1.99316 6.12113 1.99316 5.99297C1.99316 5.86481 2.02874 5.73917 2.09592 5.63003C2.16311 5.5209 2.25927 5.43255 2.3737 5.37484L9.4204 2.08638C9.60377 2.00675 9.80154 1.96567 10.0014 1.96567C10.2014 1.96567 10.3991 2.00675 10.5825 2.08638L17.6292 5.35011C17.7436 5.40783 17.8398 5.49617 17.907 5.60531C17.9742 5.71444 18.0097 5.84009 18.0097 5.96825C18.0097 6.0964 17.9742 6.22205 17.907 6.33118C17.8398 6.44032 17.7436 6.52866 17.6292 6.58638L10.5825 9.87484Z" stroke="currentColor" stroke-width="2" stroke-linecap="round" stroke-linejoin="round"/>
<path d="M18.0353 10.4312L10.4941 13.9051C10.333 13.9785 10.1581 14.0166 9.98104 14.0166C9.80401 14.0166 9.62905 13.9785 9.46799 13.9051L1.96387 10.4312" stroke="currentColor" stroke-width="2" stroke-linecap="round" stroke-linejoin="round"/>
<path d="M18.0353 14.449L10.4941 17.9229C10.333 17.9964 10.1581 18.0344 9.98104 18.0344C9.80401 18.0344 9.62905 17.9964 9.46799 17.9229L1.96387 14.449" stroke="currentColor" stroke-width="2" stroke-linecap="round" stroke-linejoin="round"/>
</svg>
