<svg width="12" height="14" viewBox="0 0 12 14" fill="none"
    xmlns="http://www.w3.org/2000/svg">
    <path d="M2.68818 8.83271C3.70035 8.83271 4.52088 8.01218 4.52088 7.00001C4.52088 5.98783 3.70035 5.1673 2.68818 5.1673C1.676 5.1673 0.855469 5.98783 0.855469 7.00001C0.855469 8.01218 1.676 8.83271 2.68818 8.83271Z" stroke="currentColor" stroke-width="1.5" stroke-linecap="round" stroke-linejoin="round"/>
    <path d="M9.05146 5.3083C10.0636 5.3083 10.8842 4.48777 10.8842 3.47559C10.8842 2.46341 10.0636 1.64288 9.05146 1.64288C8.03928 1.64288 7.21875 2.46341 7.21875 3.47559C7.21875 4.48777 8.03928 5.3083 9.05146 5.3083Z" stroke="currentColor" stroke-width="1.5" stroke-linecap="round" stroke-linejoin="round"/>
    <path d="M9.05146 12.3572C10.0636 12.3572 10.8842 11.5367 10.8842 10.5245C10.8842 9.5123 10.0636 8.69177 9.05146 8.69177C8.03928 8.69177 7.21875 9.5123 7.21875 10.5245C7.21875 11.5367 8.03928 12.3572 9.05146 12.3572Z" stroke="currentColor" stroke-width="1.5" stroke-linecap="round" stroke-linejoin="round"/>
    <path d="M3.53906 5.39581C5.21261 4.45191 5.31417 4.44397 7.21872 3.90674" stroke="currentColor" stroke-width="1.5" stroke-linecap="round" stroke-linejoin="round"/>
    <path d="M3.53906 8.60425C5.21261 9.54815 5.31417 9.5561 7.21872 10.0933" stroke="currentColor" stroke-width="1.5" stroke-linecap="round" stroke-linejoin="round"/>
</svg>
