<svg width="14" height="14" viewBox="0 0 14 14" fill="none"
    xmlns="http://www.w3.org/2000/svg">
    <path d="M5.61995 3.06543C4.9571 3.09529 4.30554 3.16314 3.66805 3.2358C2.70835 3.34517 1.93833 4.11497 1.83303 5.07513C1.7397 5.92608 1.65625 6.80216 1.65625 7.69673C1.65625 8.5913 1.7397 9.46737 1.83303 10.3183C1.93833 11.2785 2.70831 12.0483 3.66801 12.1577C4.52342 12.2551 5.40415 12.344 6.30352 12.344C7.20289 12.344 8.08362 12.2551 8.93903 12.1577C9.89873 12.0483 10.6687 11.2785 10.774 10.3183C10.8387 9.72842 10.8987 9.12644 10.9294 8.51459" stroke="currentColor" stroke-width="1.5" stroke-linecap="round"/>
    <path d="M9.66464 2.11659L6.50614 5.70044L6.07344 7.73557C6.00381 8.06303 6.34516 8.37288 6.66482 8.27239L8.69008 7.63569L11.9525 4.20291C12.4943 3.63276 12.3998 2.67916 11.7439 2.09903C11.1034 1.5325 10.1725 1.54036 9.66464 2.11659Z" stroke="currentColor" stroke-width="1.5" stroke-linecap="round" stroke-linejoin="round"/>
</svg>
