<svg width="20" height="20" viewBox="0 0 20 20" fill="none"
    xmlns="http://www.w3.org/2000/svg">
    <path d="M5.40117 5.51037C4.6838 4.92398 3.61717 5.00315 3.06925 5.75033C2.86647 6.02685 2.66675 6.32799 2.2297 6.87469C1.06398 8.33288 1.06399 10.4443 2.23614 11.8973C3.10144 12.9699 4.0087 14.0523 5.0229 15.0665C6.03711 16.0807 7.11945 16.9879 8.19209 17.8533C9.64511 19.0254 11.7565 19.0254 13.2147 17.8597C13.787 17.4022 14.0869 17.2081 14.3727 16.9968C15.0921 16.4649 15.1906 15.44 14.6327 14.7405C14.0484 14.0076 13.3757 13.3152 12.7368 12.6408C12.3528 12.2353 11.7189 12.218 11.279 12.5619C11.1112 12.693 10.9614 12.8077 10.5166 13.2247C8.8486 12.2336 7.83771 11.2104 6.86465 9.57283C7.28536 9.12407 7.3993 8.97462 7.53233 8.80464C7.87608 8.3654 7.85902 7.73273 7.45142 7.35201C6.78688 6.7313 6.10964 6.08948 5.40117 5.51037Z" stroke="currentColor" stroke-width="2" stroke-linejoin="round"/>
    <path d="M14.4159 8.86963C14.2569 8.07504 13.8332 7.32824 13.1586 6.77321C12.4568 6.19576 11.6036 5.92467 10.7611 5.94418" stroke="currentColor" stroke-width="2" stroke-linecap="round"/>
    <path d="M18.8244 8.14119C18.4657 6.34798 17.5094 4.6626 15.9871 3.41002C14.4033 2.10683 12.4777 1.49503 10.5764 1.53907" stroke="currentColor" stroke-width="2" stroke-linecap="round"/>
</svg>
