<svg width="54" height="54" viewBox="0 0 54 54" fill="none"
    xmlns="http://www.w3.org/2000/svg">
    <g filter="url(#filter0_d_22264_226240)">
        <path d="M30.8649 23.9624C31.6295 24.7089 32.1502 25.6601 32.3612 26.6955C32.5722 27.731 32.4639 28.8043 32.0501 29.7797C31.6362 30.7551 30.9355 31.5887 30.0363 32.1753C29.1372 32.7618 28.0801 33.0749 26.9987 33.0749C25.9174 33.0749 24.8603 32.7618 23.9612 32.1753C23.062 31.5887 22.3613 30.7551 21.9474 29.7797C21.5336 28.8043 21.4253 27.731 21.6363 26.6955C21.8473 25.6601 22.368 24.7089 23.1326 23.9624" stroke="#EB5757" stroke-width="1.5" stroke-linecap="round"/>
        <rect x="26.6" y="20.5248" width="0.80675" height="6.2675" rx="0.403375" fill="#EB5757" stroke="#EB5757" stroke-width="0.8"/>
    </g>
    <defs>
        <filter id="filter0_d_22264_226240" x="-2" y="-2" width="58" height="58" filterUnits="userSpaceOnUse" color-interpolation-filters="sRGB">
            <feFlood flood-opacity="0" result="BackgroundImageFix"/>
            <feColorMatrix in="SourceAlpha" type="matrix" values="0 0 0 0 0 0 0 0 0 0 0 0 0 0 0 0 0 0 127 0" result="hardAlpha"/>
            <feOffset/>
            <feGaussianBlur stdDeviation="10"/>
            <feComposite in2="hardAlpha" operator="out"/>
            <feColorMatrix type="matrix" values="0 0 0 0 0.921569 0 0 0 0 0.341176 0 0 0 0 0.341176 0 0 0 1 0"/>
            <feBlend mode="normal" in2="BackgroundImageFix" result="effect1_dropShadow_22264_226240"/>
            <feBlend mode="normal" in="SourceGraphic" in2="effect1_dropShadow_22264_226240" result="shape"/>
        </filter>
    </defs>
</svg>
