<svg width="20" height="20" viewBox="0 0 20 20" fill="none"
    xmlns="http://www.w3.org/2000/svg">
    <g clip-path="url(#clip0_3174_2359)">
        <path d="M4.74318 8.50808C4.81325 9.19445 5.36768 9.74909 6.05372 9.82229C6.45765 9.86539 6.87095 9.89984 7.29146 9.89984C7.71199 9.89984 8.12529 9.86539 8.52922 9.82229C9.21526 9.74909 9.76968 9.19445 9.83976 8.50808C9.88075 8.10672 9.91302 7.69608 9.91302 7.2783C9.91302 6.8605 9.88075 6.44987 9.83976 6.0485C9.76968 5.36212 9.21526 4.8075 8.52922 4.73428C8.12529 4.69118 7.71199 4.65674 7.29146 4.65674C6.87095 4.65674 6.45765 4.69118 6.05372 4.73428C5.36768 4.8075 4.81325 5.36212 4.74318 6.0485C4.70219 6.44987 4.66992 6.8605 4.66992 7.2783C4.66992 7.69608 4.70219 8.10672 4.74318 8.50808Z" stroke="currentColor" stroke-width="2"/>
        <path d="M14.3047 1.34521C14.8344 1.40228 15.3594 1.46346 15.8793 1.5237C17.25 1.68257 18.3437 2.77556 18.4977 4.14682C18.5557 4.6633 18.6141 5.18492 18.6684 5.71126" stroke="currentColor" stroke-width="2" stroke-linecap="round"/>
        <path d="M14.3047 18.6517C14.8344 18.5947 15.3594 18.5334 15.8793 18.4732C17.25 18.3144 18.3437 17.2214 18.4977 15.8501C18.5557 15.3335 18.6141 14.812 18.6684 14.2856" stroke="currentColor" stroke-width="2" stroke-linecap="round"/>
        <path d="M5.71339 1.34521C5.18361 1.40228 4.65859 1.46346 4.13876 1.5237C2.76806 1.68257 1.67435 2.77556 1.52041 4.14682C1.46242 4.6633 1.40395 5.18492 1.34961 5.71126" stroke="currentColor" stroke-width="2" stroke-linecap="round"/>
        <path d="M5.71339 18.6517C5.18361 18.5947 4.65859 18.5334 4.13876 18.4732C2.76806 18.3144 1.67435 17.2214 1.52041 15.8501C1.46242 15.3335 1.40395 14.812 1.34961 14.2856" stroke="currentColor" stroke-width="2" stroke-linecap="round"/>
        <path d="M5.15039 13.1604V15.3434H7.29325" stroke="currentColor" stroke-width="2" stroke-linecap="round" stroke-linejoin="round"/>
        <path d="M15.2894 15.3435V13.1604H13.1465" stroke="currentColor" stroke-width="2" stroke-linecap="round" stroke-linejoin="round"/>
        <path d="M15.3284 9.96606H13.1855" stroke="currentColor" stroke-width="2" stroke-linecap="round" stroke-linejoin="round"/>
        <path d="M9.91406 15.3232V13.1804" stroke="currentColor" stroke-width="2" stroke-linecap="round" stroke-linejoin="round"/>
        <path d="M15.2894 7.27823V5.09521H13.1465" stroke="currentColor" stroke-width="2" stroke-linecap="round" stroke-linejoin="round"/>
    </g>
    <defs>
        <clipPath id="clip0_3174_2359">
            <rect width="20" height="20" fill="white"/>
        </clipPath>
    </defs>
</svg>
