<svg width="40" height="40" viewBox="0 0 40 40" fill="none" xmlns="http://www.w3.org/2000/svg">
<g clip-path="url(#clip0_3324_40128)">
<path d="M20 40C31.0457 40 40 31.0457 40 20C40 8.9543 31.0457 0 20 0C8.9543 0 0 8.9543 0 20C0 31.0457 8.9543 40 20 40Z" fill="currentColor"/>
<path d="M20.0585 21.4683C20.0712 20.75 21.1823 19.6389 22.3133 18.8886C23.6482 17.9966 24.3523 16.8396 24.0391 15.265C23.7259 13.6905 22.4249 12.3894 20.8503 12.0762C18.3786 11.5846 16 13.5367 16 16.0567" stroke="white" stroke-width="3" stroke-linecap="round" stroke-linejoin="round"/>
<path d="M19.9918 27.2223C19.8 27.2223 19.6445 27.0668 19.6445 26.8751C19.6445 26.6833 19.8 26.5278 19.9918 26.5278" stroke="white" stroke-width="3"/>
<path d="M19.9926 27.2223C20.1844 27.2223 20.3398 27.0668 20.3398 26.8751C20.3398 26.6833 20.1844 26.5278 19.9926 26.5278" stroke="white" stroke-width="3"/>
</g>
<defs>
<clipPath id="clip0_3324_40128">
<rect width="40" height="40" fill="white"/>
</clipPath>
</defs>
</svg>
