<svg width="18" height="18" viewBox="0 0 18 18" fill="none" xmlns="http://www.w3.org/2000/svg">
<path d="M1.85547 9.00003C1.85547 12.8249 5.17341 16.1429 8.99833 16.1429V16.1429V16.1429C12.8232 16.1429 16.1412 12.8249 16.1412 9.00003V9.00003V9.00003C16.1412 5.17512 12.8232 1.85718 8.99833 1.85718V1.85718V1.85718C5.17342 1.85718 1.85547 5.17512 1.85547 9.00003V9.00003V9.00003Z" stroke="currentColor" stroke-width="2"/>
<path d="M8.994 9.7527C8.994 9.34007 9.3296 9.08696 9.9217 8.69134C10.4709 8.32437 10.7606 7.84835 10.6317 7.20053C10.5029 6.55271 9.96759 6.01743 9.31976 5.88857C8.30286 5.68629 7.32422 6.48943 7.32422 7.52626" stroke="currentColor" stroke-width="2" stroke-linecap="round" stroke-linejoin="round"/>
<path d="M8.99442 12.1289C8.91552 12.1289 8.85156 12.0649 8.85156 11.986C8.85156 11.9071 8.91552 11.8431 8.99442 11.8431" stroke="currentColor" stroke-width="2"/>
<path d="M8.99386 12.1289C9.07276 12.1289 9.13672 12.0649 9.13672 11.986C9.13672 11.9071 9.07276 11.8431 8.99386 11.8431" stroke="currentColor" stroke-width="2"/>
</svg>
