<svg width="16" height="16" viewBox="0 0 16 16" fill="none" xmlns="http://www.w3.org/2000/svg">
<path d="M14.5194 3.25928V6.81483H10.9639" stroke="currentColor" stroke-width="2" stroke-linecap="round" stroke-linejoin="round"/>
<path d="M1.48047 12.7406V9.18506H5.03602" stroke="currentColor" stroke-width="2" stroke-linecap="round" stroke-linejoin="round"/>
<path d="M2.96788 6.22212C3.26842 5.37281 3.77922 4.61347 4.4526 4.01496C5.12598 3.41645 5.94001 2.99828 6.81871 2.79946C7.69742 2.60064 8.61218 2.62766 9.47762 2.87799C10.3431 3.12832 11.131 3.5938 11.7679 4.23101L14.5175 6.81471M1.48047 9.18509L4.2301 11.7688C4.86699 12.406 5.65491 12.8715 6.52036 13.1218C7.3858 13.3721 8.30056 13.3992 9.17926 13.2003C10.058 13.0015 10.872 12.5833 11.5454 11.9848C12.2188 11.3863 12.7296 10.627 13.0301 9.77768" stroke="currentColor" stroke-width="2" stroke-linecap="round" stroke-linejoin="round"/>
</svg>
