<svg width="19" height="18" viewBox="0 0 19 18" fill="none"
    xmlns="http://www.w3.org/2000/svg">
    <path d="M9.5 1.5C12.5436 1.5 15.1543 1.63451 16.3603 1.78922C16.8059 1.84638 17.145 2.14978 17.2629 2.58326C17.3907 3.05279 17.5 3.69124 17.5 4.50005C17.5 5.30884 17.3907 5.94724 17.2629 6.41674C17.145 6.85022 16.8059 7.15362 16.3603 7.21078C15.1543 7.36549 12.5436 7.5 9.5 7.5C6.4564 7.5 3.84573 7.36553 2.63966 7.21082C2.19406 7.15367 1.85504 6.85027 1.73707 6.41679C1.60929 5.94726 1.5 5.30881 1.5 4.5C1.5 3.69119 1.60929 3.05274 1.73707 2.58321C1.85504 2.14973 2.19406 1.84633 2.63966 1.78918C3.84573 1.63447 6.4564 1.5 9.5 1.5Z" fill="currentColor" stroke="currentColor" stroke-width="1.5"/>
    <path d="M9.5 10.5C12.5436 10.5 15.1543 10.6345 16.3603 10.7892C16.8059 10.8464 17.145 11.1498 17.2629 11.5833C17.3907 12.0528 17.5 12.6912 17.5 13.5001C17.5 14.3088 17.3907 14.9472 17.2629 15.4167C17.145 15.8502 16.8059 16.1536 16.3603 16.2108C15.1543 16.3655 12.5436 16.5 9.5 16.5C6.4564 16.5 3.84573 16.3655 2.63966 16.2108C2.19406 16.1537 1.85504 15.8503 1.73707 15.4168C1.60929 14.9473 1.5 14.3088 1.5 13.5C1.5 12.6912 1.60929 12.0527 1.73707 11.5832C1.85504 11.1497 2.19406 10.8463 2.63966 10.7892C3.84573 10.6345 6.4564 10.5 9.5 10.5Z" fill="currentColor" stroke="currentColor" stroke-width="1.5"/>
</svg>
