<svg width="15" height="14" viewBox="0 0 15 14" fill="none"
    xmlns="http://www.w3.org/2000/svg">
    <path d="M6.01056 4.66203C4.28265 4.15196 2.67726 4.8749 1.3537 6.19846L4.19296 7.76829" stroke="currentColor" stroke-width="1.5" stroke-linecap="round" stroke-linejoin="round"/>
    <path d="M9.84169 8.49316C10.3518 10.2211 9.62882 11.8265 8.30526 13.15L6.73543 10.3108" stroke="currentColor" stroke-width="1.5" stroke-linecap="round" stroke-linejoin="round"/>
    <path d="M4.19299 7.75867L6.74148 10.3072C8.78026 9.08581 11.0979 7.90293 12.1558 6.8066C14.4446 4.51777 13.1175 1.38265 13.1175 1.38265C13.1175 1.38265 9.98238 0.0555198 7.69355 2.34435C6.59722 3.40221 5.40472 5.7295 4.19299 7.75867Z" stroke="currentColor" stroke-width="1.5" stroke-linecap="round" stroke-linejoin="round"/>
    <path d="M9.85366 4.56066C10.0489 4.75592 10.3655 4.75592 10.5608 4.56066C10.756 4.3654 10.756 4.04882 10.5608 3.85355C10.3655 3.65829 10.0489 3.65829 9.85366 3.85355C9.6584 4.04882 9.6584 4.3654 9.85366 4.56066Z" fill="currentColor" stroke="currentColor" stroke-width="1.5" stroke-linecap="round" stroke-linejoin="round"/>
    <path d="M3.6085 12.6305C3.38383 12.8474 2.78962 13.0534 2.22501 13.2103C1.64381 13.3719 1.12808 12.8562 1.28965 12.275C1.44662 11.7104 1.65257 11.1162 1.8695 10.8915C1.98215 10.7706 2.11799 10.6736 2.26892 10.6064C2.41985 10.5391 2.58278 10.503 2.74799 10.5001C2.9132 10.4972 3.0773 10.5275 3.23051 10.5894C3.38372 10.6513 3.5229 10.7434 3.63974 10.8603C3.75658 10.9771 3.84869 11.1163 3.91057 11.2695C3.97245 11.4227 4.00285 11.5868 3.99993 11.752C3.99702 11.9172 3.96085 12.0802 3.8936 12.2311C3.82635 12.382 3.72939 12.5179 3.6085 12.6305Z" stroke="currentColor" stroke-width="1.5" stroke-linecap="round" stroke-linejoin="round"/>
    <path d="M6.74148 10.3072L4.19299 7.75867C4.47318 7.28947 4.75234 6.80432 5.02952 6.32261C5.23965 5.95744 5.44865 5.59424 5.65609 5.24146L9.25762 8.84299C8.91941 9.04173 8.57145 9.24211 8.22103 9.4439C7.72586 9.72905 7.2258 10.017 6.74148 10.3072Z" stroke="currentColor" stroke-width="1.5"/>
</svg>
