<svg width="22" height="22" viewBox="0 0 22 22" fill="none"
    xmlns="http://www.w3.org/2000/svg">
    <path d="M1.25391 10.6058C1.25391 4.79689 3.69087 2.30738 4.50319 1.47754H17.5003C18.3127 2.30738 20.7496 4.79689 20.7496 10.6058C20.7496 17.2445 14.3491 19.693 11.0998 20.5229C7.8505 19.693 1.25391 17.2445 1.25391 10.6058Z" stroke="currentColor" stroke-width="2" stroke-linecap="round" stroke-linejoin="round"/>
    <path d="M11.0016 12.2297C12.8125 12.2297 14.2805 10.7617 14.2805 8.9508C14.2805 7.1399 12.8125 5.67188 11.0016 5.67188C9.19068 5.67188 7.72266 7.1399 7.72266 8.9508C7.72266 10.7617 9.19068 12.2297 11.0016 12.2297Z" stroke="currentColor" stroke-width="2" stroke-linecap="round" stroke-linejoin="round"/>
    <path d="M16.4763 18.2201C14.6215 19.4613 12.5467 20.1529 11.0982 20.5228C9.62944 20.1477 7.47679 19.4419 5.55859 18.1678C5.91472 17.6384 6.34872 17.1599 6.84992 16.7503C8.02116 15.793 9.48735 15.27 11 15.27C12.5127 15.27 13.9789 15.793 15.1502 16.7503C15.6678 17.1734 16.1138 17.6698 16.4763 18.2201Z" stroke="currentColor" stroke-width="2" stroke-linecap="round" stroke-linejoin="round"/>
</svg>
