<svg width="18" height="18" viewBox="0 0 18 18" fill="none"
    xmlns="http://www.w3.org/2000/svg">
    <path d="M8.99922 1.80005C7.34262 1.80005 5.99922 3.14345 5.99922 4.80005C5.99922 6.83285 7.79922 7.45325 7.79922 8.40005V8.64614C7.79922 9.59234 7.32624 9.7004 6.58164 9.8438C6.04534 9.94705 2.0906 10.7834 1.95625 10.8118C1.93619 10.8154 1.91625 10.8197 1.89648 10.8247L1.87773 10.8282C1.68382 10.8774 1.51183 10.9899 1.38896 11.1478C1.26608 11.3056 1.19932 11.5 1.19922 11.7V12.6C1.19922 13.263 1.73622 13.8 2.39922 13.8H8.99922H15.5992C16.2622 13.8 16.7992 13.263 16.7992 12.6V11.7C16.7991 11.5 16.7324 11.3056 16.6095 11.1478C16.4866 10.9899 16.3146 10.8774 16.1207 10.8282L16.1148 10.827C16.0939 10.8219 16.0728 10.8177 16.0516 10.8141C15.9329 10.789 11.9542 9.94726 11.4168 9.8438C10.6722 9.7004 10.1992 9.59234 10.1992 8.64614V8.40005C10.1992 7.45325 11.9992 6.83285 11.9992 4.80005C11.9992 3.14345 10.6558 1.80005 8.99922 1.80005ZM2.39922 14.952C2.31971 14.9509 2.24077 14.9656 2.16699 14.9952C2.09321 15.0249 2.02606 15.0689 1.96944 15.1247C1.91282 15.1805 1.86785 15.2471 1.83717 15.3204C1.80648 15.3938 1.79067 15.4725 1.79067 15.552C1.79067 15.6315 1.80648 15.7102 1.83717 15.7836C1.86785 15.8569 1.91282 15.9235 1.96944 15.9793C2.02606 16.0351 2.09321 16.0791 2.16699 16.1088C2.24077 16.1384 2.31971 16.1531 2.39922 16.152H15.5992C15.6787 16.1531 15.7577 16.1384 15.8314 16.1088C15.9052 16.0791 15.9724 16.0351 16.029 15.9793C16.0856 15.9235 16.1306 15.8569 16.1613 15.7836C16.192 15.7102 16.2078 15.6315 16.2078 15.552C16.2078 15.4725 16.192 15.3938 16.1613 15.3204C16.1306 15.2471 16.0856 15.1805 16.029 15.1247C15.9724 15.0689 15.9052 15.0249 15.8314 14.9952C15.7577 14.9656 15.6787 14.9509 15.5992 14.952H2.39922Z" fill="currentColor"/>
</svg>
