<svg width="18" height="20" viewBox="0 0 18 20" fill="none"
    xmlns="http://www.w3.org/2000/svg">
    <path d="M10.9727 6.64941C12.4867 6.40072 13.2967 6.18376 14.6678 5.65929C14.4365 4.20965 14.2194 3.39965 13.6777 1.96411" stroke="currentColor" stroke-width="2" stroke-linecap="round" stroke-linejoin="round"/>
    <path d="M16.0555 13.0326C15.5846 14.4857 14.6657 15.7524 13.4306 16.6512C12.1955 17.5499 10.7076 18.0346 9.18007 18.0358C7.65256 18.0369 6.1639 17.5545 4.92745 16.6576C3.691 15.7606 2.77023 14.4953 2.29711 13.0429C1.82399 11.5905 1.82281 10.0256 2.29375 8.57254C2.76468 7.11944 3.68354 5.85273 4.91865 4.95396C6.15375 4.05518 7.64168 3.57049 9.16919 3.56934C10.6967 3.56819 12.1854 4.05065 13.4218 4.94756L14.6335 5.67589" stroke="currentColor" stroke-width="2" stroke-linecap="round"/>
    <path d="M10.9711 12.7112L9.20612 10.5049H6.55859" stroke="currentColor" stroke-width="2" stroke-linecap="round" stroke-linejoin="round"/>
</svg>
