<svg width="20" height="20" viewBox="0 0 20 20" fill="none"
    xmlns="http://www.w3.org/2000/svg">
    <path d="M4.78213 8.86328C4.83561 9.34327 5.21952 9.72701 5.69929 9.7824C6.21503 9.84195 6.74756 9.89971 7.2922 9.89971C7.83684 9.89971 8.36937 9.84195 8.88511 9.7824C9.36488 9.72701 9.7488 9.34327 9.80227 8.86328C9.85945 8.35003 9.91375 7.82011 9.91375 7.27816C9.91375 6.73621 9.85945 6.2063 9.80227 5.69304C9.7488 5.21306 9.36488 4.82932 8.88511 4.77393C8.36937 4.71438 7.83684 4.65662 7.2922 4.65662C6.74756 4.65662 6.21503 4.71438 5.69929 4.77393C5.21952 4.82932 4.83561 5.21306 4.78213 5.69304C4.72495 6.2063 4.67065 6.73621 4.67065 7.27816C4.67065 7.82011 4.72495 8.35003 4.78213 8.86328Z" stroke="currentColor" stroke-width="2"/>
    <path d="M14.3049 1.34515C15.077 1.42833 15.839 1.52021 16.5896 1.60526C17.5494 1.714 18.3124 2.4764 18.4186 3.43647C18.5012 4.18378 18.5893 4.94246 18.6687 5.7112" stroke="currentColor" stroke-width="2" stroke-linecap="round"/>
    <path d="M14.3049 18.6517C15.077 18.5686 15.839 18.4767 16.5896 18.3916C17.5494 18.2829 18.3124 17.5205 18.4186 16.5604C18.5012 15.8131 18.5893 15.0544 18.6687 14.2857" stroke="currentColor" stroke-width="2" stroke-linecap="round"/>
    <path d="M5.71436 1.34515C4.94224 1.42833 4.18025 1.52021 3.42968 1.60526C2.46991 1.714 1.70687 2.4764 1.60073 3.43647C1.5181 4.18378 1.42995 4.94246 1.35057 5.7112" stroke="currentColor" stroke-width="2" stroke-linecap="round"/>
    <path d="M5.71436 18.6517C4.94224 18.5686 4.18025 18.4767 3.42968 18.3916C2.46991 18.2829 1.70687 17.5205 1.60073 16.5604C1.5181 15.8131 1.42995 15.0544 1.35057 14.2857" stroke="currentColor" stroke-width="2" stroke-linecap="round"/>
    <path d="M5.14941 13.1604L5.14941 15.3434L7.29227 15.3434" stroke="currentColor" stroke-width="2" stroke-linecap="round" stroke-linejoin="round"/>
    <path d="M15.2903 15.3434L15.2903 13.1604L13.1474 13.1604" stroke="currentColor" stroke-width="2" stroke-linecap="round" stroke-linejoin="round"/>
    <path d="M15.3293 9.96619L13.1865 9.96619" stroke="currentColor" stroke-width="2" stroke-linecap="round" stroke-linejoin="round"/>
    <path d="M9.91382 15.3233L9.91382 13.1804" stroke="currentColor" stroke-width="2" stroke-linecap="round" stroke-linejoin="round"/>
    <path d="M15.2903 7.27814L15.2903 5.09513L13.1474 5.09513" stroke="currentColor" stroke-width="2" stroke-linecap="round" stroke-linejoin="round"/>
</svg>
