<svg width="40" height="40" viewBox="0 0 40 40" fill="none"
    xmlns="http://www.w3.org/2000/svg">
    <rect width="40" height="40" rx="20" fill="#EB5757" fill-opacity="0.1"/>
    <path d="M12 16.334H27.9996" stroke="#EB5757" stroke-width="2" stroke-linecap="round"/>
    <path d="M25.7504 16.334H14.2492L14.1669 17.8221C14.0092 20.6734 14.1431 23.5333 14.5668 26.3573C14.7515 27.5888 15.8094 28.4998 17.0546 28.4998H22.945C24.1903 28.4998 25.2481 27.5888 25.4329 26.3573C25.8565 23.5333 25.9905 20.6734 25.8328 17.8221L25.7504 16.334Z" stroke="#EB5757" stroke-width="2" stroke-linecap="round" stroke-linejoin="round"/>
    <path d="M16.8047 16.3338V15.6948C16.8047 14.8475 17.1413 14.0349 17.7404 13.4357C18.3396 12.8366 19.1522 12.5 19.9995 12.5C20.8468 12.5 21.6594 12.8366 22.2586 13.4357C22.8577 14.0349 23.1943 14.8475 23.1943 15.6948V16.3338" stroke="#EB5757" stroke-width="2" stroke-linecap="round" stroke-linejoin="round"/>
    <path d="M18.0781 19.7556V25.052" stroke="#EB5757" stroke-width="2" stroke-linecap="round" stroke-linejoin="round"/>
    <path d="M21.9141 19.7556V25.052" stroke="#EB5757" stroke-width="2" stroke-linecap="round" stroke-linejoin="round"/>
</svg>
