<svg width="14" height="14" viewBox="0 0 14 14" fill="none"
    xmlns="http://www.w3.org/2000/svg">
    <path d="M0.75 3.74512H13.25" stroke="currentColor" stroke-width="1.5" stroke-linecap="round"/>
    <path d="M11.4891 3.74512H2.50351L2.4392 4.90777C2.31599 7.13536 2.42068 9.36971 2.75163 11.576C2.89594 12.5381 3.72243 13.2499 4.69532 13.2499H9.29732C10.2702 13.2499 11.0967 12.5381 11.241 11.576C11.572 9.36971 11.6766 7.13536 11.5534 4.90777L11.4891 3.74512Z" stroke="currentColor" stroke-width="1.5" stroke-linecap="round" stroke-linejoin="round"/>
    <path d="M4.5 3.74521V3.24601C4.5 2.58402 4.76297 1.94916 5.23106 1.48106C5.69916 1.01297 6.33402 0.75 6.99601 0.75C7.65799 0.75 8.29286 1.01297 8.76095 1.48106C9.22904 1.94916 9.49201 2.58402 9.49201 3.24601V3.74521" stroke="currentColor" stroke-width="1.5" stroke-linecap="round" stroke-linejoin="round"/>
    <path d="M5.5 6.4187V10.5566" stroke="currentColor" stroke-width="1.5" stroke-linecap="round" stroke-linejoin="round"/>
    <path d="M8.49609 6.4187V10.5566" stroke="currentColor" stroke-width="1.5" stroke-linecap="round" stroke-linejoin="round"/>
</svg>
