<svg width="14" height="14" viewBox="0 0 14 14" fill="none"
    xmlns="http://www.w3.org/2000/svg">
    <path d="M1.88792 10.6059C2.05055 12.0406 3.26377 13.1592 4.70674 13.2104C5.4387 13.2364 6.19028 13.2498 7.00033 13.2498C7.81037 13.2498 8.56195 13.2364 9.29391 13.2104C10.7369 13.1592 11.9501 12.0406 12.1127 10.6059C12.1694 10.1059 12.2087 9.59781 12.2087 9.08317C12.2087 8.56853 12.1694 8.06046 12.1127 7.56041C11.9501 6.12572 10.7369 5.00711 9.29391 4.9559C8.56195 4.92993 7.81037 4.9165 7.00033 4.9165C6.19028 4.9165 5.4387 4.92993 4.70674 4.9559C3.26377 5.00711 2.05055 6.12572 1.88792 7.56041C1.83124 8.06046 1.79199 8.56853 1.79199 9.08317C1.79199 9.5978 1.83124 10.1059 1.88792 10.6059Z" stroke="currentColor" stroke-width="1.5"/>
    <path d="M9.06207 1.60427C8.51509 1.05729 7.77322 0.75 6.99967 0.75C6.22613 0.75 5.48426 1.05729 4.93728 1.60427C4.3903 2.15125 4.08301 2.89312 4.08301 3.66667V4.91667" stroke="currentColor" stroke-width="1.5" stroke-linecap="round" stroke-linejoin="round"/>
    <circle cx="7" cy="9.0835" r="1.25" fill="currentColor"/>
</svg>
