<svg width="14" height="14" viewBox="0 0 14 14" fill="none"
    xmlns="http://www.w3.org/2000/svg">
    <path d="M0.819336 10.3975V11.3484C0.819336 11.8528 1.01971 12.3365 1.37638 12.6932C1.73304 13.0499 2.21679 13.2502 2.72119 13.2502H11.2795C11.7839 13.2502 12.2677 13.0499 12.6243 12.6932C12.981 12.3365 13.1814 11.8528 13.1814 11.3484V10.3975" stroke="white" stroke-width="1.5" stroke-linecap="round" stroke-linejoin="round"/>
    <path d="M7.0004 5.9003C6.29052 5.9003 5.25381 5.79275 4.4599 5.69525C3.85338 5.62077 3.46722 5.0126 3.70883 4.45132C4.29185 3.09688 5.1934 1.84088 6.55383 1.00161C6.82765 0.832676 7.17316 0.832663 7.44699 1.00158C8.80746 1.84077 9.70899 3.09681 10.292 4.45124C10.5336 5.01251 10.1475 5.62067 9.54096 5.69517C8.74704 5.7927 7.7103 5.9003 7.0004 5.9003Z" fill="white"/>
    <path d="M7 5.90039L7 10.3973" stroke="white" stroke-width="1.5" stroke-linecap="round" stroke-linejoin="round"/>
</svg>
