<svg width="18" height="18" viewBox="0 0 18 18" fill="none"
    xmlns="http://www.w3.org/2000/svg">
    <path d="M12.082 9.01113C13.7854 9.01113 15.1663 7.63026 15.1663 5.92687C15.1663 4.60919 14.34 3.48451 13.1773 3.04272" stroke="currentColor" stroke-width="1.5" stroke-linecap="round" stroke-linejoin="round"/>
    <path d="M6.8941 8.39976C8.74056 8.39976 10.2374 6.90291 10.2374 5.05645C10.2374 3.20999 8.74056 1.71313 6.8941 1.71313C5.04763 1.71313 3.55078 3.20999 3.55078 5.05645C3.55078 6.90291 5.04763 8.39976 6.8941 8.39976Z" stroke="currentColor" stroke-width="1.5" stroke-linecap="round" stroke-linejoin="round"/>
    <path d="M12.0149 13.0969C13.6503 14.1861 12.546 16.2869 10.581 16.2869H3.20224C1.23734 16.2869 0.133043 14.1861 1.76843 13.0969C3.23533 12.1199 4.99699 11.5505 6.89165 11.5505C8.7863 11.5505 10.548 12.1199 12.0149 13.0969Z" stroke="currentColor" stroke-width="1.5"/>
    <path d="M10.2969 16.2867H14.9737C16.7864 16.2867 17.8051 14.3487 16.2965 13.3439C15.8799 13.0665 15.4375 12.8246 14.9737 12.6228" stroke="currentColor" stroke-width="1.5" stroke-linecap="round"/>
</svg>
