<svg width="18" height="18" viewBox="0 0 18 18" fill="none" xmlns="http://www.w3.org/2000/svg">
<path d="M9.00028 16.1429C12.9452 16.1429 16.1431 12.9449 16.1431 9.00004C16.1431 5.05514 12.9452 1.85718 9.00028 1.85718C5.05539 1.85718 1.85742 5.05514 1.85742 9.00004C1.85742 12.9449 5.05539 16.1429 9.00028 16.1429Z" stroke="white" stroke-width="2" stroke-linecap="round" stroke-linejoin="round"/>
<path d="M8.99968 9.04476C10.2092 9.04476 11.1898 8.06422 11.1898 6.85466C11.1898 5.64509 10.2092 4.66455 8.99968 4.66455C7.79011 4.66455 6.80957 5.64509 6.80957 6.85466C6.80957 8.06422 7.79011 9.04476 8.99968 9.04476Z" stroke="white" stroke-width="2" stroke-linecap="round" stroke-linejoin="round"/>
<path d="M13.2335 14.7537C12.0488 15.6269 10.5847 16.1429 9.00007 16.1429C7.41544 16.1429 5.95133 15.6269 4.7666 14.7537C5.00254 13.8652 5.51287 13.0711 6.22804 12.4865C7.01036 11.8471 7.98968 11.4978 9.00007 11.4978C10.0105 11.4978 10.9898 11.8471 11.7721 12.4865C12.4873 13.0711 12.9976 13.8652 13.2335 14.7537Z" stroke="white" stroke-width="2" stroke-linecap="round" stroke-linejoin="round"/>
</svg>
