<svg width="18" height="18" viewBox="0 0 18 18" fill="none"
    xmlns="http://www.w3.org/2000/svg">
    <path d="M9.00056 17.0358C13.4386 17.0358 17.0363 13.4381 17.0363 9.00007C17.0363 4.56207 13.4386 0.964355 9.00056 0.964355C4.56256 0.964355 0.964844 4.56207 0.964844 9.00007C0.964844 13.4381 4.56256 17.0358 9.00056 17.0358Z" stroke="currentColor" stroke-width="1.5" stroke-linecap="round" stroke-linejoin="round"/>
    <path d="M8.99903 9.0503C10.3598 9.0503 11.4629 7.94719 11.4629 6.58643C11.4629 5.22567 10.3598 4.12256 8.99903 4.12256C7.63827 4.12256 6.53516 5.22567 6.53516 6.58643C6.53516 7.94719 7.63827 9.0503 8.99903 9.0503Z" stroke="currentColor" stroke-width="1.5" stroke-linecap="round" stroke-linejoin="round"/>
    <path d="M13.7636 15.473C12.4308 16.4553 10.7836 17.0358 9.00094 17.0358C7.21822 17.0358 5.5711 16.4553 4.23828 15.473C4.50372 14.4734 5.07783 13.58 5.8824 12.9224C6.76251 12.203 7.86425 11.8101 9.00093 11.8101C10.1376 11.8101 11.2394 12.203 12.1195 12.9224C12.924 13.58 13.4982 14.4734 13.7636 15.473Z" stroke="currentColor" stroke-width="1.5" stroke-linecap="round" stroke-linejoin="round"/>
</svg>
