<svg width="20" height="20" viewBox="0 0 20 20" fill="none" xmlns="http://www.w3.org/2000/svg">
<path d="M18.1488 4.07422V8.51866H13.7043" stroke="#07A65D" stroke-width="2" stroke-linecap="round" stroke-linejoin="round"/>
<path d="M1.85107 15.9259V11.4814H6.29552" stroke="#07A65D" stroke-width="2" stroke-linecap="round" stroke-linejoin="round"/>
<path d="M3.71033 7.7779C4.08601 6.71626 4.72451 5.76708 5.56624 5.01895C6.40796 4.27081 7.4255 3.74809 8.52388 3.49957C9.62227 3.25105 10.7657 3.28482 11.8475 3.59773C12.9293 3.91064 13.9142 4.4925 14.7103 5.28901L18.1474 8.51864M1.85107 11.4816L5.28811 14.7112C6.08422 15.5077 7.06913 16.0896 8.15094 16.4025C9.23274 16.7154 10.3762 16.7492 11.4746 16.5007C12.573 16.2521 13.5905 15.7294 14.4322 14.9813C15.2739 14.2332 15.9124 13.284 16.2881 12.2223" stroke="#07A65D" stroke-width="2" stroke-linecap="round" stroke-linejoin="round"/>
</svg>
