<svg width="40" height="40" viewBox="0 0 40 40" fill="none" xmlns="http://www.w3.org/2000/svg">
<g filter="url(#filter0_i_7992_312615)">
<path fill-rule="evenodd" clip-rule="evenodd" d="M2.5 20C2.5 29.65 10.35 37.5 20 37.5C29.65 37.5 37.5 29.65 37.5 20C37.5 10.35 29.65 2.5 20 2.5C10.35 2.5 2.5 10.35 2.5 20ZM5.32306 18.75C5.17686 18.75 5.06167 18.625 5.07636 18.4795C5.28951 16.3689 5.94151 14.3864 6.93952 12.625C6.98349 12.5474 7.06605 12.5 7.15523 12.5H11.0794C11.2566 12.5 11.3777 12.6793 11.3145 12.8448C10.6277 14.6427 10.1985 16.5494 10.0543 18.5155C10.0446 18.6472 9.93548 18.75 9.80339 18.75H5.32306ZM12.8124 18.75C12.6674 18.75 12.5526 18.627 12.565 18.4825C12.7411 16.4358 13.2714 14.4647 14.1149 12.6432C14.1555 12.5556 14.2436 12.5 14.3402 12.5H18.5C18.6381 12.5 18.75 12.6119 18.75 12.75V18.5C18.75 18.6381 18.6381 18.75 18.5 18.75H12.8124ZM18.75 21.5C18.75 21.3619 18.6381 21.25 18.5 21.25H12.8124C12.6674 21.25 12.5526 21.373 12.565 21.5175C12.7411 23.5642 13.2714 25.5353 14.1149 27.3568C14.1555 27.4444 14.2436 27.5 14.3402 27.5H18.5C18.6381 27.5 18.75 27.3881 18.75 27.25V21.5ZM18.75 30.25C18.75 30.1119 18.6381 30 18.5 30H16.1114C15.9093 30 15.7916 30.2266 15.9116 30.3891C16.6231 31.353 17.4368 32.2486 18.3443 33.0604C18.5027 33.2021 18.75 33.0878 18.75 32.8753V30.25ZM24.4441 33.8415C24.2653 34.0279 24.441 34.3322 24.6863 34.2514C27.0291 33.4798 29.1181 32.1458 30.793 30.4098C30.9431 30.2542 30.8306 30 30.6144 30H27.4752C27.3859 30 27.3035 30.0477 27.2583 30.1247C26.473 31.4621 25.5301 32.7097 24.4441 33.8415ZM28.6853 27.1552C28.6221 27.3207 28.7432 27.5 28.9204 27.5L32.8074 27.5005C32.9189 27.5005 33.0221 27.4412 33.0769 27.3441C34.0652 25.5904 34.7117 23.6189 34.9236 21.5205C34.9383 21.375 34.8231 21.25 34.6769 21.25H30.1966C30.0645 21.25 29.9554 21.3528 29.9457 21.4845C29.8015 23.4508 29.3722 25.3576 28.6853 27.1552ZM27.1876 21.25C27.3326 21.25 27.4474 21.373 27.435 21.5175C27.2589 23.5642 26.7286 25.5353 25.8851 27.3568C25.8445 27.4444 25.7564 27.5 25.6599 27.5H21.5C21.3619 27.5 21.25 27.3881 21.25 27.25V21.5C21.25 21.3619 21.3619 21.25 21.5 21.25H27.1876ZM29.9457 18.5155C29.9554 18.6472 30.0645 18.75 30.1966 18.75H34.6769C34.8231 18.75 34.9383 18.625 34.9236 18.4795C34.7117 16.3811 34.0652 14.4096 33.0769 12.6559C33.0221 12.5588 32.9189 12.4995 32.8074 12.4995L28.9206 12.5C28.7434 12.5 28.6223 12.6793 28.6855 12.8448C29.3723 14.6427 29.8015 16.5494 29.9457 18.5155ZM25.6598 12.5C25.7564 12.5 25.8445 12.5556 25.8851 12.6432C26.7286 14.4647 27.2589 16.4358 27.435 18.4825C27.4474 18.627 27.3326 18.75 27.1876 18.75H21.5C21.3619 18.75 21.25 18.6381 21.25 18.5V12.75C21.25 12.6119 21.3619 12.5 21.5 12.5H25.6598ZM27.2592 9.87521C27.3044 9.95226 27.3869 10 27.4762 10H30.6144C30.8306 10 30.9431 9.74576 30.793 9.59019C29.1199 7.85604 27.0336 6.52309 24.6939 5.75112C24.4488 5.67024 24.2729 5.97415 24.4514 6.16064C25.5348 7.2926 26.4755 8.53941 27.2592 9.87521ZM21.6557 6.93966C21.4973 6.79795 21.25 6.91223 21.25 7.12477V9.75C21.25 9.88807 21.3619 10 21.5 10H23.8886C24.0906 10 24.2084 9.7734 24.0884 9.61088C23.3769 8.64704 22.5632 7.75144 21.6557 6.93966ZM18.75 7.12473C18.75 6.91219 18.5027 6.79791 18.3443 6.93962C17.4368 7.75142 16.6231 8.64702 15.9116 9.61088C15.7916 9.7734 15.9094 10 16.1114 10H18.5C18.6381 10 18.75 9.88807 18.75 9.75V7.12473ZM21.5 30C21.3619 30 21.25 30.1119 21.25 30.25V32.8753C21.25 33.0879 21.4973 33.2021 21.6557 33.0604C22.5632 32.2486 23.377 31.353 24.0885 30.3891C24.2084 30.2266 24.0907 30 23.8887 30H21.5ZM6.93952 27.375C6.98349 27.4526 7.06605 27.5 7.15523 27.5H11.0829C11.2602 27.5 11.3813 27.3206 11.3179 27.155C10.6295 25.3567 10.1991 23.4499 10.0545 21.4845C10.0448 21.3528 9.93564 21.25 9.80357 21.25H5.32306C5.17686 21.25 5.06167 21.375 5.07636 21.5205C5.28951 23.6311 5.94151 25.6136 6.93952 27.375ZM15.3236 34.2546C15.5688 34.3352 15.7443 34.0311 15.5656 33.8448C14.478 32.7114 13.5337 31.4626 12.7472 30.1246C12.7019 30.0477 12.6196 30 12.5303 30H9.38558C9.16941 30 9.05691 30.2542 9.207 30.4098C10.8843 32.1483 12.9768 33.4835 15.3236 34.2546ZM12.5238 10C12.6131 10 12.6955 9.95226 12.7407 9.87521C13.5244 8.53942 14.4652 7.29262 15.5485 6.16066C15.727 5.97417 15.5511 5.67026 15.306 5.75115C12.9663 6.52312 10.8801 7.85606 9.20699 9.59019C9.0569 9.74576 9.16941 10 9.38557 10H12.5238Z" fill="url(#paint0_linear_7992_312615)"/>
</g>
<path fill-rule="evenodd" clip-rule="evenodd" d="M20 37.5C10.35 37.5 2.5 29.65 2.5 20C2.5 10.35 10.35 2.5 20 2.5C29.65 2.5 37.5 10.35 37.5 20C37.5 29.65 29.65 37.5 20 37.5ZM20 36.914C28.8452 36.914 37.1094 28.8452 37.1094 20C37.1094 11.1548 28.8452 3.04686 20 3.04686C11.1548 3.04686 3.00781 11.1548 3.00781 20C3.00781 28.8452 11.1548 36.914 20 36.914Z" fill="url(#paint1_linear_7992_312615)"/>
<g filter="url(#filter1_f_7992_312615)">
<path fill-rule="evenodd" clip-rule="evenodd" d="M20 37.2852C10.4685 37.2852 2.71484 29.5316 2.71484 20C2.71484 10.4685 10.4685 2.71484 20 2.71484C29.5316 2.71484 37.2852 10.4685 37.2852 20C37.2852 29.5316 29.5316 37.2852 20 37.2852ZM20 36.5039C29.1149 36.5039 36.5039 29.1149 36.5039 20C36.5039 10.8852 29.1149 3.49611 20 3.49611C10.8852 3.49611 3.49611 10.8852 3.49611 20C3.49611 29.1149 10.8852 36.5039 20 36.5039Z" fill="url(#paint2_radial_7992_312615)"/>
</g>
<g filter="url(#filter2_f_7992_312615)">
<path d="M20.3906 4.76562L20.3906 35.2344" stroke="url(#paint3_linear_7992_312615)" stroke-width="0.9375" stroke-linecap="round"/>
</g>
<g filter="url(#filter3_f_7992_312615)">
<path d="M21.4062 4.60938C23.9062 6.25 28.9062 11.6562 28.9062 20.1562C28.9062 28.6563 23.2812 34.5833 20.4688 36.4844" stroke="url(#paint4_linear_7992_312615)" stroke-width="0.9375" stroke-linecap="round"/>
</g>
<g filter="url(#filter4_f_7992_312615)">
<path d="M19.0625 4.60938C16.5625 6.25 11.5625 11.6562 11.5625 20.1562C11.5625 28.6563 17.1875 34.5833 20 36.4844" stroke="url(#paint5_linear_7992_312615)" stroke-width="0.9375" stroke-linecap="round"/>
</g>
<g filter="url(#filter5_f_7992_312615)">
<path d="M8.35938 10.7812H32.5" stroke="url(#paint6_linear_7992_312615)" stroke-width="0.9375" stroke-linecap="round"/>
</g>
<g filter="url(#filter6_f_7992_312615)">
<path d="M8.28125 28.4375H32.5" stroke="url(#paint7_linear_7992_312615)" stroke-opacity="0.75" stroke-width="0.9375" stroke-linecap="round"/>
</g>
<g filter="url(#filter7_f_7992_312615)">
<path d="M4.60938 19.6094H36.25" stroke="url(#paint8_linear_7992_312615)" stroke-opacity="0.75" stroke-width="0.9375" stroke-linecap="round"/>
</g>
<defs>
<filter id="filter0_i_7992_312615" x="2.5" y="1.875" width="35.625" height="35.625" filterUnits="userSpaceOnUse" color-interpolation-filters="sRGB">
<feFlood flood-opacity="0" result="BackgroundImageFix"/>
<feBlend mode="normal" in="SourceGraphic" in2="BackgroundImageFix" result="shape"/>
<feColorMatrix in="SourceAlpha" type="matrix" values="0 0 0 0 0 0 0 0 0 0 0 0 0 0 0 0 0 0 127 0" result="hardAlpha"/>
<feOffset dx="0.625" dy="-0.625"/>
<feGaussianBlur stdDeviation="0.46875"/>
<feComposite in2="hardAlpha" operator="arithmetic" k2="-1" k3="1"/>
<feColorMatrix type="matrix" values="0 0 0 0 0.211765 0 0 0 0 0.54902 0 0 0 0 0.901961 0 0 0 1 0"/>
<feBlend mode="normal" in2="shape" result="effect1_innerShadow_7992_312615"/>
</filter>
<filter id="filter1_f_7992_312615" x="2.08984" y="2.08984" width="35.8203" height="35.8204" filterUnits="userSpaceOnUse" color-interpolation-filters="sRGB">
<feFlood flood-opacity="0" result="BackgroundImageFix"/>
<feBlend mode="normal" in="SourceGraphic" in2="BackgroundImageFix" result="shape"/>
<feGaussianBlur stdDeviation="0.3125" result="effect1_foregroundBlur_7992_312615"/>
</filter>
<filter id="filter2_f_7992_312615" x="18.9844" y="3.35938" width="2.8125" height="33.2812" filterUnits="userSpaceOnUse" color-interpolation-filters="sRGB">
<feFlood flood-opacity="0" result="BackgroundImageFix"/>
<feBlend mode="normal" in="SourceGraphic" in2="BackgroundImageFix" result="shape"/>
<feGaussianBlur stdDeviation="0.46875" result="effect1_foregroundBlur_7992_312615"/>
</filter>
<filter id="filter3_f_7992_312615" x="19.0625" y="3.20306" width="11.25" height="34.6876" filterUnits="userSpaceOnUse" color-interpolation-filters="sRGB">
<feFlood flood-opacity="0" result="BackgroundImageFix"/>
<feBlend mode="normal" in="SourceGraphic" in2="BackgroundImageFix" result="shape"/>
<feGaussianBlur stdDeviation="0.46875" result="effect1_foregroundBlur_7992_312615"/>
</filter>
<filter id="filter4_f_7992_312615" x="10.1562" y="3.20306" width="11.25" height="34.6876" filterUnits="userSpaceOnUse" color-interpolation-filters="sRGB">
<feFlood flood-opacity="0" result="BackgroundImageFix"/>
<feBlend mode="normal" in="SourceGraphic" in2="BackgroundImageFix" result="shape"/>
<feGaussianBlur stdDeviation="0.46875" result="effect1_foregroundBlur_7992_312615"/>
</filter>
<filter id="filter5_f_7992_312615" x="6.95312" y="9.375" width="26.9531" height="2.8125" filterUnits="userSpaceOnUse" color-interpolation-filters="sRGB">
<feFlood flood-opacity="0" result="BackgroundImageFix"/>
<feBlend mode="normal" in="SourceGraphic" in2="BackgroundImageFix" result="shape"/>
<feGaussianBlur stdDeviation="0.46875" result="effect1_foregroundBlur_7992_312615"/>
</filter>
<filter id="filter6_f_7992_312615" x="6.875" y="27.0312" width="27.0312" height="2.8125" filterUnits="userSpaceOnUse" color-interpolation-filters="sRGB">
<feFlood flood-opacity="0" result="BackgroundImageFix"/>
<feBlend mode="normal" in="SourceGraphic" in2="BackgroundImageFix" result="shape"/>
<feGaussianBlur stdDeviation="0.46875" result="effect1_foregroundBlur_7992_312615"/>
</filter>
<filter id="filter7_f_7992_312615" x="3.20312" y="18.2031" width="34.4531" height="2.8125" filterUnits="userSpaceOnUse" color-interpolation-filters="sRGB">
<feFlood flood-opacity="0" result="BackgroundImageFix"/>
<feBlend mode="normal" in="SourceGraphic" in2="BackgroundImageFix" result="shape"/>
<feGaussianBlur stdDeviation="0.46875" result="effect1_foregroundBlur_7992_312615"/>
</filter>
<linearGradient id="paint0_linear_7992_312615" x1="31.875" y1="4.60936" x2="12.1094" y2="37.5" gradientUnits="userSpaceOnUse">
<stop stop-color="#5CCFFF"/>
<stop offset="1" stop-color="#44B3FF"/>
</linearGradient>
<linearGradient id="paint1_linear_7992_312615" x1="31.3281" y1="5.54686" x2="6.71875" y2="40.7812" gradientUnits="userSpaceOnUse">
<stop stop-color="#B5F5F5"/>
<stop offset="1" stop-color="#3A6DD3"/>
</linearGradient>
<radialGradient id="paint2_radial_7992_312615" cx="0" cy="0" r="1" gradientUnits="userSpaceOnUse" gradientTransform="translate(32.7344 10.5469) rotate(128.166) scale(34.0087 34.0087)">
<stop offset="0.489105" stop-color="#7FFFFF"/>
<stop offset="1" stop-color="#3C68D0"/>
</radialGradient>
<linearGradient id="paint3_linear_7992_312615" x1="20.8906" y1="4.76562" x2="20.8906" y2="43.9062" gradientUnits="userSpaceOnUse">
<stop stop-color="#76F6FF"/>
<stop offset="1" stop-color="#76F6FF" stop-opacity="0"/>
</linearGradient>
<linearGradient id="paint4_linear_7992_312615" x1="24.6875" y1="4.60937" x2="24.6875" y2="45.5565" gradientUnits="userSpaceOnUse">
<stop stop-color="#76F6FF"/>
<stop offset="1" stop-color="#76F6FF" stop-opacity="0"/>
</linearGradient>
<linearGradient id="paint5_linear_7992_312615" x1="-1.48438" y1="11.3281" x2="32.5" y2="38.2813" gradientUnits="userSpaceOnUse">
<stop stop-color="#76F6FF"/>
<stop offset="1" stop-color="#76F6FF" stop-opacity="0"/>
</linearGradient>
<linearGradient id="paint6_linear_7992_312615" x1="1.79688" y1="12.0659" x2="37.8906" y2="12.0649" gradientUnits="userSpaceOnUse">
<stop stop-color="#76F6FF"/>
<stop offset="1" stop-color="#76F6FF" stop-opacity="0"/>
</linearGradient>
<linearGradient id="paint7_linear_7992_312615" x1="24.0625" y1="19.4375" x2="24.0628" y2="34.0625" gradientUnits="userSpaceOnUse">
<stop stop-color="#76F6FF"/>
<stop offset="1" stop-color="#76F6FF" stop-opacity="0"/>
</linearGradient>
<linearGradient id="paint8_linear_7992_312615" x1="-3.99196" y1="20.894" x2="43.3154" y2="20.8923" gradientUnits="userSpaceOnUse">
<stop stop-color="#76F6FF"/>
<stop offset="1" stop-color="#76F6FF" stop-opacity="0"/>
</linearGradient>
</defs>
</svg>
