<svg xmlns="http://www.w3.org/2000/svg" fill="none" viewBox="0 0 400 400">
    <rect width="400" height="400" fill="url(#paint0_linear_3_50)" rx="200"/>
    <path fill="#fff" d="M275.76 157.942c-.8-42.294-35.48-75.888-77.48-75.082-40.88.765-73.8 33.956-74.56 75.082 0 .202-.04.403-.04.564V298.117c0 4.713 3.8 8.499 8.44 8.499s8.44-3.826 8.44-8.499v-24.732c0-4.712 3.8-8.499 8.44-8.499s8.44 3.827 8.44 8.499v11.722c.12 4.713 3.96 8.418 8.64 8.338 4.52-.081 8.16-3.786 8.28-8.338v-11.722c0-4.712 3.8-8.499 8.44-8.499 4.68 0 8.44 3.827 8.44 8.499v3.223c0 4.713 3.8 8.499 8.44 8.499 4.68 0 8.44-3.827 8.44-8.499v-3.223c.12-4.712 3.96-8.418 8.64-8.338 4.52.081 8.16 3.787 8.28 8.338v11.722c0 4.713 3.8 8.499 8.44 8.499s8.52-3.746 8.52-8.459v-11.721c0-4.713 3.8-8.5 8.44-8.5 4.68 0 8.44 3.827 8.44 8.5v24.732c0 4.712 3.8 8.499 8.44 8.499s8.44-3.827 8.44-8.499V158.546c.04-.201.04-.402 0-.604Zm-104.08 12.286c-7.48 0-13.52-6.969-13.52-15.629s6.08-15.629 13.52-15.629c7.44 0 13.52 6.969 13.52 15.629s-6.04 15.629-13.52 15.629Zm28.64 22.073c-6.8 0-12.28-4.068-12.28-9.103s5.52-1.974 12.28-1.974 12.28-3.021 12.28 1.974-5.48 9.063-12.28 9.103Zm27.48-22.073c-7.48 0-13.52-6.969-13.52-15.629s6.04-15.629 13.52-15.629c7.48 0 13.52 6.969 13.52 15.629s-6.08 15.629-13.52 15.629Z"/>
    <defs>
        <linearGradient id="paint0_linear_3_50" x1="400" x2="-53.678" y1="0" y2="325.089" gradientUnits="userSpaceOnUse">
            <stop stop-color="#DC66D0"/>
            <stop offset="1" stop-color="#5CCBDD"/>
        </linearGradient>
    </defs>
</svg>