<svg width="600" height="600" viewBox="0 0 600 600" fill="none" xmlns="http://www.w3.org/2000/svg">
<path d="M300 600C465.685 600 600 465.685 600 300C600 134.315 465.685 0 300 0C134.315 0 0 134.315 0 300C0 465.685 134.315 600 300 600Z" fill="url(#paint0_radial_7863_57658)"/>
<path fill-rule="evenodd" clip-rule="evenodd" d="M163.2 198.48C163.2 198.48 130.92 172.68 128.7 236.4C126.48 285.78 126.54 381.66 149.4 426.96C159.06 444 171.96 438.78 195.96 421.8C216.84 406.38 292.38 336.78 324.36 306.24C356.34 275.7 421.2 188.1 434.7 247.62C440.04 272.64 446.64 293.88 441.6 349.38C440.04 366.48 432.72 379.44 399.36 356.28C374.16 340.08 350.22 322.68 350.22 322.68C350.22 322.68 345.6 314.4 334.68 327.84C326.1 338.58 321.78 341.22 335.52 349.38C349.32 357.54 419.1 405.66 445.86 413.16C467.94 419.58 480.54 419.46 481.2 376.08C481.08 341.64 479.1 243.06 466.56 201.06C457.08 174.9 443.16 163.02 413.1 192.42C383.04 221.82 288.24 313.74 236.4 355.38C202.02 381.18 187.32 404.46 174.36 361.44C165.24 328.86 153.42 227.46 190.74 246.78C214.08 257.94 225.72 257.88 216.6 264.9C207.48 271.86 181.26 295.92 181.26 295.92C181.26 295.92 173.16 302.46 176.94 316.62C180.72 326.52 180.72 331.44 201.06 312.3C221.4 293.16 236.4 278.7 236.4 278.7C236.4 278.7 239.64 273.6 249.3 283.02C258.96 292.44 260.52 295.08 260.52 295.08C260.52 295.08 263.1 302.1 273.42 289.92C283.8 277.74 290.46 270.3 270.84 258.9C251.28 247.38 163.2 198.48 163.2 198.48Z" fill="white"/>
<defs>
<radialGradient id="paint0_radial_7863_57658" cx="0" cy="0" r="1" gradientUnits="userSpaceOnUse" gradientTransform="translate(196 143.5) rotate(54.1675) scale(497.082)">
<stop stop-color="#0760E6"/>
<stop offset="1" stop-color="#0249B4"/>
</radialGradient>
</defs>
</svg>
