<svg xmlns="http://www.w3.org/2000/svg" fill="none" viewBox="0 0 400 400">
    <rect width="400" height="400" fill="url(#paint0_linear_3_58)" rx="200"/>
    <path fill="#fff" d="M286.16 176.115c3.83-25.613-15.669-39.38-42.333-48.565l8.65-34.694-21.12-5.262-8.42 33.78c-5.553-1.384-11.254-2.689-16.921-3.983l8.481-34.004-21.106-5.262-8.655 34.683c-4.594-1.046-9.107-2.08-13.485-3.169l.024-.109-29.124-7.273-5.618 22.557s15.669 3.591 15.339 3.812c8.552 2.135 10.098 7.796 9.842 12.284l-9.854 39.525a17.16 17.16 0 0 1 2.196.704c-.705-.175-1.454-.366-2.232-.552l-13.811 55.369c-1.045 2.598-3.698 6.497-9.678 5.017.212.306-15.35-3.831-15.35-3.831L102.5 261.317l27.484 6.851c5.112 1.283 10.123 2.624 15.057 3.886l-8.739 35.092 21.095 5.262 8.654-34.719a811.708 811.708 0 0 0 16.831 4.368l-8.626 34.556 21.121 5.262 8.738-35.026c36.014 6.815 63.093 4.067 74.491-28.507 9.184-26.225-.458-41.352-19.404-51.217 13.8-3.182 24.186-12.261 26.958-31.01Zm-48.253 67.663c-6.527 26.226-50.683 12.049-65 8.494l11.598-46.491c14.315 3.574 60.222 10.646 53.402 37.997Zm6.531-68.043c-5.954 23.855-42.706 11.735-54.627 8.764l10.514-42.165c11.922 2.972 50.313 8.518 44.113 33.401Z"/>
    <defs>
        <linearGradient id="paint0_linear_3_58" x1="200" x2="200" y1="0" y2="400" gradientUnits="userSpaceOnUse">
            <stop stop-color="#FFBD74"/>
            <stop offset="1" stop-color="#E9983D"/>
        </linearGradient>
    </defs>
</svg>