<svg viewBox="0 0 130 130" fill="none" xmlns="http://www.w3.org/2000/svg">
<rect width="130" height="130" rx="65" fill="url(#paint0_radial_1414_1381)"/>
<rect width="130" height="130" rx="65" fill="white" fill-opacity="0.3"/>
<path fill-rule="evenodd" clip-rule="evenodd" d="M88.8746 58.7286C89.8731 52.0037 84.7902 48.3888 77.8396 45.9773L80.0944 36.8678L74.5892 35.4861L72.3942 44.3557C70.9469 43.9921 69.4607 43.6495 67.9834 43.3099L70.1944 34.3817L64.6926 33L62.4365 42.1065C61.2389 41.8318 60.0625 41.5604 58.9213 41.2744L58.9277 41.2457L51.3358 39.3361L49.8714 45.2588C49.8714 45.2588 53.9558 46.2018 53.8697 46.2599C56.099 46.8203 56.5022 48.3068 56.4352 49.485L53.8668 59.8628C54.0203 59.9021 54.2194 59.9589 54.4391 60.0478L54.2793 60.0077C54.1435 59.9734 54.0022 59.9378 53.8572 59.9028L50.2571 74.4407C49.9847 75.1229 49.2931 76.1468 47.7345 75.758C47.7897 75.8385 43.7332 74.7522 43.7332 74.7522L41 81.0997L48.1641 82.8986C48.9486 83.0967 49.7238 83.3003 50.4911 83.5018C51.0275 83.6426 51.56 83.7824 52.0892 83.9187L49.8111 93.1327L55.3099 94.5144L57.5659 85.3983C59.0682 85.809 60.526 86.1879 61.9532 86.5451L59.7048 95.6183L65.2102 97L67.4881 87.8033C76.8757 89.5929 83.9344 88.8714 86.9055 80.3187C89.2996 73.4327 86.7863 69.4609 81.8475 66.8708C85.4447 66.0352 88.1541 63.6521 88.8766 58.7293L88.8746 58.7286ZM76.2965 76.4945C74.7356 82.8121 64.9181 80.2002 60.4262 79.0052C60.0222 78.8977 59.6612 78.8017 59.3532 78.7247L62.3763 66.5178C62.7516 66.6122 63.2103 66.7158 63.7299 66.8333C68.3762 67.8836 77.8956 70.0355 76.2965 76.4945ZM64.662 61.1679C68.4069 62.1746 76.5764 64.3707 77.9991 58.6288C79.4519 52.7562 71.5131 50.9856 67.6355 50.1209C67.1993 50.0236 66.8144 49.9378 66.5002 49.8589L63.7594 60.9298C64.0181 60.9948 64.3218 61.0764 64.662 61.1679Z" fill="white"/>
<defs>
<radialGradient id="paint0_radial_1414_1381" cx="0" cy="0" r="1" gradientUnits="userSpaceOnUse" gradientTransform="translate(37 34) rotate(55.8403) scale(67.6757 75.6777)">
<stop stop-color="#FFE7C5"/>
<stop offset="1" stop-color="#FF8924"/>
</radialGradient>
</defs>
</svg>
