<svg xmlns="http://www.w3.org/2000/svg" fill="none" viewBox="0 0 400 400">
    <rect width="400" height="400" fill="url(#paint0_linear_3_67)" rx="200"/>
    <path fill="#fff" fill-rule="evenodd" d="M292.312 261.637c0 2.263-1.308 4.332-3.442 5.431l-17.965 9.115v-77.058c0-5.496-3.029-10.472-7.986-13.318l-77.783-43.766V96.983c0-1.357.41-2.715 1.099-3.878 2.343-3.685 7.368-4.978 11.29-2.844l86.595 47.255c5.096 2.78 8.192 7.887 8.192 13.383v110.738Zm-37.936-54.754v75.766c0 2.262-1.237 4.332-3.301 5.366l-19 10.02a2.623 2.623 0 0 1-.756.324v-42.085c0-5.431-3.029-10.474-8.054-13.318l-75.994-42.732v-47.449c0-4.268 3.717-7.757 8.258-7.757a9.04 9.04 0 0 1 4.131 1.033l86.528 47.451c5.092 2.78 8.188 7.887 8.188 13.381Zm-39.508 94.642v-37.366c0-5.496-3.096-10.603-8.191-13.382l-86.596-47.385a8.351 8.351 0 0 0-4.131-1.1c-4.54 0-8.258 3.491-8.258 7.757v36.009c0 6.464 3.58 12.476 9.432 15.838l82.669 47.515c1.583.905 3.375 1.358 5.23 1.358 5.438 0 9.845-4.137 9.845-9.244Z" clip-rule="evenodd"/>
    <defs>
        <linearGradient id="paint0_linear_3_67" x1="200" x2="200" y1="0" y2="400" gradientUnits="userSpaceOnUse">
            <stop stop-color="#40BCBC"/>
            <stop offset="1" stop-color="#198484"/>
        </linearGradient>
    </defs>
</svg>