<svg xmlns="http://www.w3.org/2000/svg" fill="none" viewBox="0 0 400 400">
    <rect width="400" height="400" fill="url(#paint0_linear_3_42)" rx="200"/>
    <path fill="#fff" d="M207.687 210.361h65.392c1.394 0 2.052 0 2.152-1.828.535-6.652.535-13.343 0-20.003 0-1.293-.642-1.828-2.044-1.828H143.046c-1.611 0-2.044.535-2.044 2.045v19.143c0 2.471 0 2.471 2.579 2.471h64.106Zm60.242-46.032a2.091 2.091 0 0 0 0-1.502 42.601 42.601 0 0 0-3.888-6.776 54.859 54.859 0 0 0-7.961-10.006 26.465 26.465 0 0 0-4.948-4.84 77.32 77.32 0 0 0-32.27-16.348 80.256 80.256 0 0 0-18.284-1.936h-57.756c-1.611 0-1.828.643-1.828 2.045v38.179c0 1.61 0 2.044 2.044 2.044h124.116s1.077-.217 1.294-.86h-.527.008Zm0 68.405a25.025 25.025 0 0 0-5.499 0H143.155c-1.611 0-2.153 0-2.153 2.153v37.327c0 1.719 0 2.152 2.153 2.152h55.068c2.633.202 5.266.016 7.845-.534a81.996 81.996 0 0 0 23.349-5.165 42.699 42.699 0 0 0 7.845-3.656h.751a69.871 69.871 0 0 0 30.009-30.21s.751-1.626-.093-2.052v-.015Zm-148.541 60.985v-59.475c0-1.402 0-1.611-1.719-1.611H94.328c-1.294 0-1.828 0-1.828-1.719v-20.437h24.952c1.394 0 1.936 0 1.936-1.828v-20.22c0-1.293 0-1.61-1.719-1.61H94.328c-1.294 0-1.828 0-1.828-1.72v-18.926c0-1.185 0-1.503 1.72-1.503h23.123c1.611 0 2.045 0 2.045-2.044v-57.973c0-1.719 0-2.153 2.153-2.153h80.663c5.855.232 11.67.875 17.424 1.936a105.143 105.143 0 0 1 33.664 12.476 94.852 94.852 0 0 1 18.927 14.629c4.259 4.422 8.1 9.207 11.508 14.303a86.268 86.268 0 0 1 8.402 16.456 2.802 2.802 0 0 0 3.214 2.262h19.252c2.47 0 2.47 0 2.579 2.37v17.641c0 1.719-.643 2.153-2.37 2.153h-14.845c-1.503 0-1.936 0-1.828 1.936.589 6.551.589 13.126 0 19.678 0 1.827 0 2.044 2.052 2.044h16.983c.751.968 0 1.936 0 2.912a21.612 21.612 0 0 1 0 3.756v13.018c0 1.827-.534 2.369-2.153 2.369h-20.328a2.691 2.691 0 0 0-3.121 2.045 86.01 86.01 0 0 1-22.59 32.913 129.376 129.376 0 0 1-11.508 9.246c-4.305 2.478-8.495 5.057-12.909 7.102a116.275 116.275 0 0 1-25.386 8.061 132.335 132.335 0 0 1-25.168 2.045h-74.646v-.109l.031-.023Z"/>
    <defs>
        <linearGradient id="paint0_linear_3_42" x1="200" x2="200" y1="0" y2="400" gradientUnits="userSpaceOnUse">
            <stop stop-color="#FFCE77"/>
            <stop offset="1" stop-color="#EEB042"/>
        </linearGradient>
    </defs>
</svg>