<svg width="588" height="588" viewBox="0 0 588 588" fill="none" xmlns="http://www.w3.org/2000/svg">
<path d="M294 588C456.372 588 588 456.372 588 294C588 131.628 456.372 0 294 0C131.628 0 0 131.628 0 294C0 456.372 131.628 588 294 588Z" fill="url(#paint0_radial_1_141)"/>
<path d="M155.912 212.201L329.261 135.05C345.078 127.948 363.801 135.05 370.903 151.19C378.005 167.008 370.903 185.731 354.763 192.833L181.737 269.984C165.919 277.086 147.196 269.984 140.094 253.844C132.669 238.026 140.094 219.303 155.912 212.201Z" fill="#37BEC1"/>
<path d="M165.594 311.949L281.16 260.622C296.978 253.52 315.701 260.622 322.803 276.763C329.905 292.58 322.803 311.303 306.662 318.405L191.419 369.732C175.601 376.834 156.879 369.732 149.777 353.591C142.352 337.774 149.777 319.051 165.594 311.949Z" fill="#FBB144"/>
<path d="M233.059 385.547L406.408 308.395C422.225 301.294 440.948 308.395 448.05 324.536C455.152 340.354 448.05 359.076 431.91 366.178L258.561 443.33C242.743 450.432 224.02 443.33 216.918 427.189C210.139 411.372 217.241 392.649 233.059 385.547Z" fill="#E4615E"/>
<defs>
<radialGradient id="paint0_radial_1_141" cx="0" cy="0" r="1" gradientUnits="userSpaceOnUse" gradientTransform="translate(192.08 140.63) rotate(54.1675) scale(487.14)">
<stop stop-color="#2A5765"/>
<stop offset="1" stop-color="#082129"/>
</radialGradient>
</defs>
</svg>
