<svg width="600" height="600" viewBox="0 0 600 600" fill="none" xmlns="http://www.w3.org/2000/svg">
<path fill-rule="evenodd" clip-rule="evenodd" d="M0 300C0 134.315 134.315 0 300 0C465.685 0 600 134.315 600 300C600 465.685 465.685 600 300 600C134.315 600 0 465.685 0 300Z" fill="url(#paint0_radial_7471_55453)"/>
<path d="M102.593 287.361C108.769 188.739 188.164 109.097 286.765 102.63C338.597 99.231 386.521 115.975 423.576 145.727C427.172 148.613 432.324 148.483 435.765 145.412L450.298 132.445C454.609 128.601 454.521 121.786 450.067 118.105C406.845 82.3823 350.727 61.731 289.845 64.2983C169.097 69.3907 70.8404 166.517 64.4287 287.206C61.6556 339.408 75.9707 388.202 102.261 428.513C105.408 433.34 112.151 434.176 116.454 430.34L130.971 417.387C134.403 414.323 135.143 409.231 132.685 405.344C111.307 371.521 99.8741 330.823 102.597 287.361H102.593Z" fill="white"/>
<path d="M193.538 313.756L182.668 328.428C180.097 333.517 183.799 339.533 189.5 339.533H225.072C236.32 386.033 268.71 417.743 312.109 417.088C342.92 417.088 366.147 401.769 381.656 371.264C383.63 367.382 381.899 362.617 377.92 360.84L360.954 353.26C357.219 351.592 352.815 353.155 351.004 356.823C342.996 373.075 329.689 383.432 312.109 383.432C296.193 383.432 283.425 375.638 273.643 359.89C269.82 353.794 266.778 346.991 264.462 339.538H310.021C312.908 339.538 315.551 337.911 316.853 335.336L327.723 320.664C330.294 315.571 326.593 309.559 320.891 309.559H259.336C259.16 306.403 259.051 303.185 259.051 299.865C259.017 296.575 259.109 293.357 259.282 290.185H310.021C312.908 290.185 315.551 288.559 316.853 285.983L327.723 271.311C330.294 266.222 326.593 260.206 320.891 260.206H264.408C272.668 233.269 289.916 215.622 312.109 215.97C329.017 215.97 342.147 225.227 350.567 240.39C352.454 243.79 356.702 245.092 360.257 243.521L377.311 235.991C381.391 234.189 383.126 229.256 380.967 225.353C365.227 196.924 342.273 182.643 312.109 182.643C284.584 182.643 262.534 193.584 245.79 215.306C236.004 228.101 229.189 243.109 225.147 260.206H200.374C197.488 260.206 194.845 261.832 193.542 264.407L182.672 279.08C180.101 284.172 183.803 290.185 189.504 290.185H221.055C220.904 293.369 220.757 296.563 220.757 299.865C220.714 303.138 220.794 306.365 220.933 309.559H200.378C197.492 309.559 194.849 311.185 193.546 313.76L193.538 313.756Z" fill="white"/>
<path d="M483.546 169.655C487.849 165.819 494.593 166.66 497.74 171.483H497.736C524.021 211.786 538.336 260.58 535.567 312.777C529.164 433.466 430.908 530.597 310.16 535.693C249.273 538.26 193.156 517.613 149.929 481.886C145.475 478.206 145.387 471.391 149.698 467.546L164.227 454.58C167.668 451.508 172.82 451.378 176.416 454.265C213.475 484.017 261.395 500.76 313.227 497.361C411.828 490.895 491.223 411.256 497.404 312.639C500.13 269.176 488.694 228.475 467.315 194.651C464.857 190.765 465.597 185.672 469.03 182.609L483.546 169.655Z" fill="white"/>
<defs>
<radialGradient id="paint0_radial_7471_55453" cx="0" cy="0" r="1" gradientUnits="userSpaceOnUse" gradientTransform="translate(201.5 169.5) rotate(50.8515) scale(457.762)">
<stop stop-color="#1AA3FF"/>
<stop offset="1" stop-color="#8656EF"/>
</radialGradient>
</defs>
</svg>
