<svg viewBox="0 0 100 100" fill="none" xmlns="http://www.w3.org/2000/svg">
<path d="M0 50C0 22.3858 22.3858 0 50 0V0C77.6142 0 100 22.3858 100 50V50C100 77.6142 77.6142 100 50 100V100C22.3858 100 0 77.6142 0 50V50Z" fill="#3B82F6" fill-opacity="0.1"/>
<path d="M27 10.1628C18.2662 15.2053 11.4315 22.9782 7.54779 32.2854C3.66407 41.5925 2.94657 51.918 5.5057 61.6729C8.06483 71.4277 13.7588 80.0712 21.7112 86.2732C29.6637 92.4752 39.4339 95.8919 49.5183 95.9975C59.6027 96.1031 69.4424 92.8918 77.5229 86.8577C85.6035 80.8236 91.4772 72.3012 94.2401 62.6021C97.003 52.903 96.5019 42.5647 92.8139 33.1783C89.126 23.7919 82.4556 15.8775 73.8293 10.6533" stroke="#3B82F6" stroke-width="8" stroke-linecap="round" stroke-linejoin="round"/>
<circle cx="50" cy="6" r="6" fill="#3B82F6"/>
<path d="M50.4357 22.4102V43.1774L67.9883 51.0207L50.4357 22.4102Z" fill="#3B82F6" fill-opacity="0.602"/>
<path d="M50.4358 22.4102L32.8807 51.0207L50.4358 43.1774V22.4102Z" fill="#3B82F6"/>
<path d="M50.4357 64.4787V78.5898L68 54.2893L50.4357 64.4787Z" fill="#3B82F6" fill-opacity="0.602"/>
<path d="M50.4358 78.5898V64.4763L32.8807 54.2893L50.4358 78.5898Z" fill="#3B82F6"/>
<path d="M50.4357 61.212L67.9883 51.0203L50.4357 43.1816V61.212Z" fill="#3B82F6" fill-opacity="0.2"/>
<path d="M32.8807 51.0203L50.4358 61.212V43.1816L32.8807 51.0203Z" fill="#3B82F6" fill-opacity="0.602"/>
</svg>
