<svg xmlns="http://www.w3.org/2000/svg" fill="none" viewBox="0 0 400 400">
    <rect width="400" height="400" fill="url(#paint0_linear_3_30)" rx="200"/>
    <path fill="#fff" d="M199.998 300.382c0 6.397 5.179 11.644 11.511 10.992 56.132-5.788 99.92-53.442 99.92-111.374 0-57.931-43.788-105.586-99.92-111.373-6.332-.656-11.511 4.594-11.511 10.992v30.886c0 6.398 5.214 11.463 11.455 12.726 26.345 5.339 46.183 28.724 46.183 56.769 0 28.046-19.838 51.43-46.183 56.77-6.241 1.262-11.455 6.332-11.455 12.725v30.887Zm-34.581-190.887c0-7.876-7.673-13.428-14.698-9.942C113.897 117.826 88.571 155.941 88.571 200c0 44.06 25.326 82.174 62.148 100.448 7.025 3.486 14.698-2.066 14.698-9.942V109.495Z"/>
    <defs>
        <linearGradient id="paint0_linear_3_30" x1="200" x2="200" y1="0" y2="400" gradientUnits="userSpaceOnUse">
            <stop stop-color="#7796FF"/>
            <stop offset="1" stop-color="#4D74F6"/>
        </linearGradient>
    </defs>
</svg>