<svg viewBox="0 0 100 100" fill="none" xmlns="http://www.w3.org/2000/svg">
<path d="M0 50C0 22.3858 22.3858 0 50 0V0C77.6142 0 100 22.3858 100 50V50C100 77.6142 77.6142 100 50 100V100C22.3858 100 0 77.6142 0 50V50Z" fill="#3B82F6" fill-opacity="0.1"/>
<path d="M27 10.1628C18.2662 15.2053 11.4315 22.9782 7.54779 32.2854C3.66407 41.5925 2.94657 51.918 5.5057 61.6729C8.06483 71.4277 13.7588 80.0712 21.7112 86.2732C29.6637 92.4752 39.4339 95.8919 49.5183 95.9975C59.6027 96.1031 69.4424 92.8918 77.5229 86.8577C85.6035 80.8236 91.4772 72.3012 94.2401 62.6021C97.003 52.903 96.5019 42.5647 92.8139 33.1783C89.126 23.7919 82.4556 15.8775 73.8293 10.6533" stroke="#3B82F6" stroke-width="8" stroke-linecap="round" stroke-linejoin="round"/>
<circle cx="50" cy="6" r="6" fill="#3B82F6"/>
<path d="M59.5065 55.1302C59.5065 50.0884 56.4814 48.3598 50.4311 47.6396C46.1095 47.0633 45.2452 45.9109 45.2452 43.894C45.2452 41.877 46.6858 40.5808 49.5668 40.5808C52.1598 40.5808 53.6004 41.4451 54.3206 43.606C54.4647 44.0381 54.8969 44.3261 55.3291 44.3261H57.6337C58.21 44.3261 58.6422 43.894 58.6422 43.318V43.1738C58.0659 40.0045 55.4729 37.5557 52.1598 37.2677V33.8104C52.1598 33.234 51.7276 32.8019 51.0074 32.6577H48.8466C48.2703 32.6577 47.8381 33.0899 47.694 33.8104V37.1235C43.3723 37.6998 40.6355 40.5808 40.6355 44.1823C40.6355 48.9361 43.5165 50.8086 49.5668 51.5291C53.6004 52.2492 54.8969 53.1136 54.8969 55.4185C54.8969 57.7235 52.8799 59.308 50.1431 59.308C46.3975 59.308 45.101 57.7232 44.6688 55.5624C44.525 54.9864 44.0928 54.698 43.6607 54.698H41.2115C40.6355 54.698 40.2034 55.1302 40.2034 55.7065V55.8507C40.7794 59.4518 43.0843 62.0448 47.8381 62.7653V66.2226C47.8381 66.7986 48.2703 67.2308 48.9905 67.3749H51.1513C51.7276 67.3749 52.1598 66.9428 52.3039 66.2226V62.7653C56.6256 62.0448 59.5065 59.0197 59.5065 55.1302V55.1302Z" fill="#3B82F6"/>
<path fill-rule="evenodd" clip-rule="evenodd" d="M29.8331 42.5964C25.6553 53.6888 31.4176 66.2215 42.6538 70.2548C43.086 70.5431 43.5182 71.1191 43.5182 71.5513V73.5683C43.5182 73.8563 43.5182 74.0004 43.374 74.1443C43.2302 74.7206 42.6538 75.0086 42.0775 74.7206C34.0106 72.1276 27.8161 65.9332 25.2231 57.8662C20.9015 44.1812 28.3925 29.6315 42.0775 25.3098C42.2217 25.166 42.5097 25.166 42.6538 25.166C43.2302 25.3098 43.5182 25.742 43.5182 26.3183V28.335C43.5182 29.0555 43.2302 29.4876 42.6538 29.7756C36.7477 31.9365 31.9939 36.5461 29.8331 42.5964ZM56.6266 25.887C56.7705 25.3107 57.3468 25.0227 57.9231 25.3107C65.8459 27.9037 72.1845 34.0981 74.7775 42.3092C79.0991 55.9943 71.6082 70.544 57.9231 74.8656C57.7789 75.0095 57.491 75.0095 57.3468 75.0095C56.7705 74.8656 56.4825 74.4335 56.4825 73.8571V71.8405C56.4825 71.12 56.7705 70.6878 57.3468 70.3998C63.2529 68.239 68.0067 63.6294 70.1675 57.5791C74.3453 46.4867 68.583 33.954 57.3468 29.9207C56.9146 29.6323 56.4825 29.0563 56.4825 28.48V26.4634C56.4825 26.175 56.4825 26.0312 56.6266 25.887Z" fill="#3B82F6"/>
</svg>
