<svg viewBox="0 0 100 100" fill="none" xmlns="http://www.w3.org/2000/svg">
<path d="M0 50C0 22.3858 22.3858 0 50 0V0C77.6142 0 100 22.3858 100 50V50C100 77.6142 77.6142 100 50 100V100C22.3858 100 0 77.6142 0 50V50Z" fill="#3B82F6" fill-opacity="0.1"/>
<path d="M27 10.1628C18.2662 15.2053 11.4315 22.9782 7.54779 32.2854C3.66407 41.5925 2.94657 51.918 5.5057 61.6729C8.06483 71.4277 13.7588 80.0712 21.7112 86.2732C29.6637 92.4752 39.4339 95.8919 49.5183 95.9975C59.6027 96.1031 69.4424 92.8918 77.5229 86.8577C85.6035 80.8236 91.4772 72.3012 94.2401 62.6021C97.003 52.903 96.5019 42.5647 92.8139 33.1783C89.126 23.7919 82.4556 15.8775 73.8293 10.6533" stroke="#3B82F6" stroke-width="8" stroke-linecap="round" stroke-linejoin="round"/>
<circle cx="50" cy="6" r="6" fill="#3B82F6"/>
<path fill-rule="evenodd" clip-rule="evenodd" d="M31.7361 70.5532V70.6903L31.7294 70.6953V70.7184H47.6539C49.4564 70.7432 51.2522 70.5995 53.0232 70.2823C54.8884 69.9172 56.7057 69.3422 58.4388 68.5625C59.1902 68.2144 59.9112 67.7938 60.6385 67.3694C60.8227 67.262 61.0072 67.1543 61.1928 67.0475C62.0486 66.4379 62.868 65.777 63.6478 65.0749C65.7823 63.1453 67.4344 60.7382 68.4669 58.0535C68.5363 57.7528 68.8304 57.5595 69.1327 57.6174H73.4695C73.8147 57.6174 73.9287 57.5017 73.9287 57.1118V54.3347C73.9519 54.0687 73.9519 53.7994 73.9287 53.5334C73.9287 53.4639 73.9466 53.3946 73.9645 53.3254C74 53.1873 74.0355 53.0498 73.9287 52.9122H70.3057C69.8679 52.9122 69.8679 52.866 69.8679 52.4761C69.9935 51.0784 69.9935 49.6758 69.8679 48.2781C69.8448 47.8651 69.9373 47.8651 70.2578 47.8651H73.4249C73.7933 47.8651 73.9304 47.7726 73.9304 47.4058V43.6423C73.919 43.393 73.9132 43.2667 73.8471 43.2026C73.7791 43.1368 73.6474 43.1368 73.3803 43.1368H69.2732C68.9527 43.1913 68.6454 42.9749 68.5875 42.6544C68.1167 41.4236 67.517 40.2457 66.795 39.1437C66.0681 38.0566 65.2487 37.0356 64.34 36.0923C63.1323 34.8863 61.776 33.8389 60.3023 32.9715C58.0803 31.6812 55.65 30.7775 53.1207 30.31C51.8932 30.0837 50.6525 29.9465 49.4035 29.897H32.1953C31.7361 29.897 31.7361 29.9895 31.7361 30.3563V42.7238C31.7361 43.1599 31.6435 43.1599 31.2999 43.1599H26.3668C26 43.1599 26 43.2277 26 43.4804V47.5181C26 47.8849 26.114 47.8849 26.3899 47.8849H31.3693C31.7361 47.8849 31.7361 47.9526 31.7361 48.2285V52.5422C31.7361 52.932 31.6204 52.932 31.323 52.932H26V57.2919C26 57.6587 26.114 57.6587 26.3899 57.6587H31.3693C31.7361 57.6587 31.7361 57.7033 31.7361 58.0023V63.3947V65.2071V70.5532ZM63.4244 42.7678C63.4641 42.8702 63.4641 42.9842 63.4244 43.0883H63.5351C63.4888 43.2254 63.2592 43.2717 63.2592 43.2717H36.7812C36.345 43.2717 36.345 43.1791 36.345 42.8355V34.6907C36.345 34.3917 36.3913 34.2545 36.7349 34.2545H49.0562C50.368 34.243 51.6764 34.3801 52.9568 34.6676C55.4944 35.2689 57.8552 36.465 59.841 38.1551C60.2375 38.4509 60.5911 38.7994 60.8967 39.1877C61.5443 39.8303 62.1126 40.5457 62.5951 41.3222C62.9156 41.7765 63.1915 42.2606 63.4244 42.7678ZM64.524 52.9077H50.5738H36.8978C36.3476 52.9077 36.3476 52.9077 36.3476 52.3807V48.2967C36.3476 47.9746 36.4402 47.8606 36.7838 47.8606H64.5471C64.8462 47.8606 64.9833 47.9746 64.9833 48.2505C65.0973 49.6712 65.0973 51.0987 64.9833 52.5178C64.9618 52.9077 64.8214 52.9077 64.524 52.9077ZM63.4254 57.6792C63.0355 57.6362 62.6423 57.6362 62.2524 57.6792H36.8069C36.4633 57.6792 36.3476 57.6792 36.3476 58.1384V66.1015C36.3476 66.4683 36.3476 66.5608 36.8069 66.5608H48.5549C49.1166 66.6037 49.6783 66.5641 50.2285 66.4468C51.9334 66.3245 53.6103 65.9545 55.2095 65.3448C55.7911 65.1433 56.3528 64.8806 56.8831 64.5651H57.0434C59.7974 63.1327 62.0343 60.8826 63.4452 58.1203C63.4452 58.1203 63.6055 57.7733 63.4254 57.6825V57.6792Z" fill="#3B82F6"/>
</svg>
