<svg viewBox="0 0 100 100" fill="none" xmlns="http://www.w3.org/2000/svg">
<path d="M0 50C0 22.3858 22.3858 0 50 0V0C77.6142 0 100 22.3858 100 50V50C100 77.6142 77.6142 100 50 100V100C22.3858 100 0 77.6142 0 50V50Z" fill="#3B82F6" fill-opacity="0.1"/>
<path d="M27 10.1628C18.2662 15.2053 11.4315 22.9782 7.54779 32.2854C3.66407 41.5925 2.94657 51.918 5.5057 61.6729C8.06483 71.4277 13.7588 80.0712 21.7112 86.2732C29.6637 92.4752 39.4339 95.8919 49.5183 95.9975C59.6027 96.1031 69.4424 92.8918 77.5229 86.8577C85.6035 80.8236 91.4772 72.3012 94.2401 62.6021C97.003 52.903 96.5019 42.5647 92.8139 33.1783C89.126 23.7919 82.4556 15.8775 73.8293 10.6533" stroke="#3B82F6" stroke-width="8" stroke-linecap="round" stroke-linejoin="round"/>
<circle cx="50" cy="6" r="6" fill="#3B82F6"/>
<path d="M67.4153 33.7028L65.8679 35.2488C73.5211 43.6105 73.5211 56.4257 65.8679 64.7874L67.4153 66.3334C75.9299 57.106 75.9299 42.8941 67.4153 33.6667V33.7028Z" fill="#3B82F6"/>
<path d="M35.2481 34.1323C43.6098 26.4792 56.425 26.4792 64.7867 34.1323L66.3327 32.5849C57.1053 24.0703 42.8934 24.0703 33.666 32.5849L35.2481 34.1323Z" fill="#3B82F6"/>
<path d="M34.1323 64.7359C26.4886 56.3764 26.4886 43.5722 34.1323 35.2127L32.5849 33.6667C24.0703 42.8941 24.0703 57.106 32.5849 66.3334L34.1323 64.7359Z" fill="#3B82F6"/>
<path d="M64.7506 65.8677C56.3889 73.5208 43.5737 73.5208 35.212 65.8677L33.666 67.4151C42.8934 75.9297 57.1053 75.9297 66.3327 67.4151L64.7506 65.8677Z" fill="#3B82F6"/>
<path fill-rule="evenodd" clip-rule="evenodd" d="M59.6175 45.0422C59.3131 41.8297 56.574 40.752 53.1095 40.4236V36H50.4312V40.3415H48.2906V36H45.6326V40.4544H40.2V43.3538C40.2 43.3538 42.1782 43.3179 42.1478 43.3538C42.8892 43.2713 43.562 43.7977 43.6695 44.5444V56.7375C43.6541 56.9935 43.5371 57.2323 43.3449 57.3995C43.1563 57.57 42.9072 57.6553 42.655 57.6356C42.6906 57.6664 40.7072 57.6356 40.7072 57.6356L40.2 60.8738H45.5819V65.4H48.2602V60.9405H50.4008V65.3795H53.0841V60.9046C57.6088 60.6274 60.7639 59.4984 61.1595 55.2134C61.4791 51.7648 59.8762 50.2253 57.3146 49.6044C58.8718 48.8295 59.8356 47.3926 59.6175 45.0422ZM55.8635 54.6805C55.8635 57.771 51.0585 57.7 48.8657 57.6676H48.8655C48.6698 57.6647 48.4949 57.6621 48.3461 57.6621V51.6887C48.532 51.6892 48.7587 51.6841 49.0159 51.6784C51.2699 51.628 55.8635 51.5252 55.8635 54.6805ZM48.8067 48.9753C50.6442 49.0083 54.6203 49.0797 54.6203 46.265C54.6203 43.379 50.7681 43.4804 48.8948 43.5296C48.6862 43.5351 48.5022 43.54 48.3507 43.54V48.9694C48.4805 48.9694 48.6342 48.9722 48.8067 48.9753Z" fill="#3B82F6"/>
<path fill-rule="evenodd" clip-rule="evenodd" d="M22 49.9983C21.9991 65.4609 34.5322 77.9972 49.9949 78C57.4227 78.0014 64.5467 75.0513 69.799 69.799C75.0513 64.5467 78.0014 57.4227 78 49.9949C77.9972 34.5322 65.4609 21.9991 49.9983 22C34.5357 22.0009 22.0009 34.5357 22 49.9983ZM24.2148 49.9966C24.2092 35.751 35.7499 24.1965 49.9955 24.1851C56.8438 24.1797 63.4132 26.897 68.2566 31.7385C73.1 36.58 75.82 43.1484 75.8173 49.9966C75.8116 64.2422 64.2617 75.7875 50.016 75.7875C35.7704 75.7875 24.2205 64.2422 24.2148 49.9966Z" fill="#3B82F6"/>
</svg>
