<svg xmlns="http://www.w3.org/2000/svg" fill="none" viewBox="0 0 400 400">
    <rect width="400" height="400" fill="url(#paint0_linear_3_45)" rx="200"/>
    <path fill="#fff" fill-rule="evenodd" d="M98.704 159.1v100.895H80V142.808c.02-4.311 2.359-8.244 6.05-10.172 3.693-1.928 8.109-1.523 11.423 1.047l88.84 69.862c2.729 2.147 4.337 5.506 4.344 9.075v47.375H171.96v-43.309L98.704 159.1Zm202.591.003v100.894h18.704V142.811c-.029-4.306-2.373-8.229-6.063-10.15-3.69-1.921-8.1-1.514-11.409 1.054l-88.841 69.833c-2.729 2.147-4.337 5.506-4.344 9.075v47.374h18.697v-43.308l73.256-57.586Z" clip-rule="evenodd"/>
    <defs>
        <linearGradient id="paint0_linear_3_45" x1="200" x2="200" y1="0" y2="400" gradientUnits="userSpaceOnUse">
            <stop stop-color="#48D9A9"/>
            <stop offset="1" stop-color="#1FAA7C"/>
        </linearGradient>
    </defs>
</svg>