<svg  viewBox="0 0 40 40" fill="none" xmlns="http://www.w3.org/2000/svg">
<path d="M20.0417 39.9946C30.959 39.9946 39.8092 31.0927 39.8092 20.1116C39.8092 9.13046 30.959 0.228516 20.0417 0.228516C9.12448 0.228516 0.274292 9.13046 0.274292 20.1116C0.274292 31.0927 9.12448 39.9946 20.0417 39.9946Z" fill="#F8FAFA"/>
<path d="M20.0417 39.9946C30.959 39.9946 39.8092 31.0927 39.8092 20.1116C39.8092 9.13046 30.959 0.228516 20.0417 0.228516C9.12448 0.228516 0.274292 9.13046 0.274292 20.1116C0.274292 31.0927 9.12448 39.9946 20.0417 39.9946Z" fill="url(#paint0_radial_814_209)"/>
<path opacity="0.1" fill-rule="evenodd" clip-rule="evenodd" d="M19.9946 35.9011C28.6643 35.9011 35.6922 28.8319 35.6922 20.1116C35.6922 11.3913 28.6643 4.32209 19.9946 4.32209C11.325 4.32209 4.29695 11.3913 4.29695 20.1116C4.29695 28.8319 11.325 35.9011 19.9946 35.9011ZM19.9946 39.9947C30.912 39.9947 39.762 31.0927 39.762 20.1116C39.762 9.13047 30.912 0.228516 19.9946 0.228516C9.07737 0.228516 0.227173 9.13047 0.227173 20.1116C0.227173 31.0927 9.07737 39.9947 19.9946 39.9947Z" fill="#2DE1E8"/>
<path d="M20.8816 11.2227H22.5023V22.4761L20.8816 20.8489V11.2227Z" fill="#1F9B99"/>
<path d="M25.744 11.2227H24.1233V24.1032L25.744 25.7304V11.2227Z" fill="#1F9B99"/>
<path d="M28.9858 11.2227H27.3651V27.3577L28.9858 28.9849V11.2227Z" fill="#1F9B99"/>
<path d="M11.1573 11.2227H11.2235L12.778 12.7834V28.9856H11.1573V11.2227Z" fill="#2DE1E8"/>
<path d="M14.4 14.4101V28.986H16.0207V16.0373L14.4 14.4101Z" fill="#2DE1E8"/>
<path d="M17.6413 17.6648V28.9858H19.262V19.292L17.6413 17.6648Z" fill="#2DE1E8"/>
<g opacity="0.47">
<mask id="mask0_814_209" style="mask-type:alpha" maskUnits="userSpaceOnUse" x="0" y="0" width="40" height="40">
<path fill-rule="evenodd" clip-rule="evenodd" d="M39.762 20.1116C39.762 9.13047 30.912 0.228516 19.9946 0.228516C9.07735 0.228516 0.227173 9.13047 0.227173 20.1116C0.227173 31.0927 9.07735 39.9947 19.9946 39.9947C30.912 39.9947 39.762 31.0927 39.762 20.1116ZM0.468388 20.1115L5.38235 14.0235L6.18753 6.22354L13.9421 5.41367L19.9948 0.470962L26.0473 5.41367L33.802 6.22354L34.6071 14.0235L39.521 20.1115L34.6071 26.1996L33.802 33.9996L26.0473 34.8094L19.9948 39.7521L13.9421 34.8094L6.18753 33.9996L5.38235 26.1996L0.468388 20.1115Z" fill="white"/>
</mask>
<g mask="url(#mask0_814_209)">
<path fill-rule="evenodd" clip-rule="evenodd" d="M39.7611 20.1116C39.7611 9.13047 30.9111 0.228516 19.9938 0.228516C9.07649 0.228516 0.226318 9.13047 0.226318 20.1116C0.226318 31.0927 9.07649 39.9947 19.9938 39.9947C30.9111 39.9947 39.7611 31.0927 39.7611 20.1116ZM0.467533 20.1115L5.38149 14.0235L6.18668 6.22354L13.9413 5.41367L19.9939 0.470962L26.0465 5.41367L33.8011 6.22354L34.6062 14.0235L39.5202 20.1115L34.6062 26.1996L33.8011 33.9996L26.0465 34.8094L19.9939 39.7521L13.9413 34.8094L6.18668 33.9996L5.38149 26.1996L0.467533 20.1115Z" fill="url(#paint1_linear_814_209)"/>
<path d="M5.38236 14.0235L5.56292 14.1709L5.60652 14.1169L5.61369 14.0477L5.38236 14.0235ZM0.468402 20.1116L0.287855 19.9641L0.168851 20.1116L0.287855 20.259L0.468402 20.1116ZM6.18755 6.22357L6.16352 5.99092L5.97573 6.01052L5.95622 6.19943L6.18755 6.22357ZM13.9421 5.4137L13.9661 5.64636L14.035 5.63918L14.0887 5.59529L13.9421 5.4137ZM19.9948 0.470993L20.1414 0.289389L19.9948 0.169689L19.8482 0.289389L19.9948 0.470993ZM26.0473 5.4137L25.9008 5.59529L25.9545 5.63918L26.0234 5.64636L26.0473 5.4137ZM33.802 6.22357L34.0334 6.19943L34.0138 6.01052L33.8259 5.99092L33.802 6.22357ZM34.6071 14.0235L34.3759 14.0477L34.3829 14.1169L34.4266 14.1709L34.6071 14.0235ZM39.5211 20.1116L39.7018 20.259L39.8206 20.1116L39.7018 19.9641L39.5211 20.1116ZM34.6071 26.1996L34.4266 26.0523L34.3829 26.1063L34.3759 26.1756L34.6071 26.1996ZM33.802 33.9996L33.8259 34.2322L34.0138 34.2125L34.0334 34.0237L33.802 33.9996ZM26.0473 34.8095L26.0234 34.5767L25.9545 34.584L25.9008 34.6277L26.0473 34.8095ZM19.9948 39.7522L19.8482 39.9337L19.9948 40.0534L20.1414 39.9337L19.9948 39.7522ZM13.9421 34.8095L14.0887 34.6277L14.035 34.584L13.9661 34.5767L13.9421 34.8095ZM6.18755 33.9996L5.95622 34.0237L5.97573 34.2125L6.16352 34.2322L6.18755 33.9996ZM5.38236 26.1996L5.61369 26.1756L5.60652 26.1063L5.56292 26.0523L5.38236 26.1996ZM19.9946 0.462465C30.7834 0.462465 39.5294 9.25969 39.5294 20.1116H39.9945C39.9945 9.00131 31.0404 -0.00537109 19.9946 -0.00537109V0.462465ZM0.459746 20.1116C0.459746 9.25969 9.2058 0.462465 19.9946 0.462465V-0.00537109C8.94894 -0.00537109 -0.00537109 9.00131 -0.00537109 20.1116H0.459746ZM19.9946 39.7608C9.2058 39.7608 0.459746 30.9634 0.459746 20.1116H-0.00537109C-0.00537109 31.2219 8.94894 40.2287 19.9946 40.2287V39.7608ZM39.5294 20.1116C39.5294 30.9634 30.7834 39.7608 19.9946 39.7608V40.2287C31.0404 40.2287 39.9945 31.2219 39.9945 20.1116H39.5294ZM5.20182 13.8761L0.287855 19.9641L0.648948 20.259L5.56292 14.1709L5.20182 13.8761ZM5.95622 6.19943L5.15106 13.9993L5.61369 14.0477L6.41885 6.24774L5.95622 6.19943ZM13.9181 5.18102L6.16352 5.99092L6.21157 6.45625L13.9661 5.64636L13.9181 5.18102ZM19.8482 0.289389L13.7955 5.23209L14.0887 5.59529L20.1414 0.652596L19.8482 0.289389ZM26.1941 5.23209L20.1414 0.289389L19.8482 0.652596L25.9008 5.59529L26.1941 5.23209ZM33.8259 5.99092L26.0715 5.18102L26.0234 5.64636L33.778 6.45625L33.8259 5.99092ZM34.8385 13.9993L34.0334 6.19943L33.5706 6.24774L34.3759 14.0477L34.8385 13.9993ZM39.7018 19.9641L34.7878 13.8761L34.4266 14.1709L39.3406 20.259L39.7018 19.9641ZM34.7878 26.347L39.7018 20.259L39.3406 19.9641L34.4266 26.0523L34.7878 26.347ZM34.0334 34.0237L34.8385 26.2237L34.3759 26.1756L33.5706 33.9753L34.0334 34.0237ZM26.0715 35.042L33.8259 34.2322L33.778 33.7669L26.0234 34.5767L26.0715 35.042ZM20.1414 39.9337L26.1941 34.991L25.9008 34.6277L19.8482 39.5704L20.1414 39.9337ZM13.7955 34.991L19.8482 39.9337L20.1414 39.5704L14.0887 34.6277L13.7955 34.991ZM6.16352 34.2322L13.9181 35.042L13.9661 34.5767L6.21157 33.7669L6.16352 34.2322ZM5.15106 26.2237L5.95622 34.0237L6.41885 33.9753L5.61369 26.1756L5.15106 26.2237ZM0.287855 20.259L5.20182 26.347L5.56292 26.0523L0.648948 19.9641L0.287855 20.259Z" fill="white"/>
</g>
</g>
<g opacity="0.4">
<mask id="mask1_814_209" style="mask-type:alpha" maskUnits="userSpaceOnUse" x="0" y="0" width="40" height="40">
<path opacity="0.4" fill-rule="evenodd" clip-rule="evenodd" d="M38.6931 26.5613C42.2345 16.174 36.734 4.8657 26.407 1.30353C16.0801 -2.25864 4.8376 3.27419 1.29615 13.6615C-2.24532 24.0487 3.25537 35.357 13.5823 38.9192C23.9091 42.4813 35.1517 36.9486 38.6931 26.5613ZM1.52433 13.7402L8.13599 9.58469L11.4131 2.46928L19.0096 4.23342L26.3289 1.53291L30.4603 8.18324L37.5342 11.4795L35.7805 19.1204L38.4652 26.4827L31.8535 30.638L28.5763 37.7535L20.98 35.9893L13.6606 38.6899L9.52927 32.0396L2.45525 28.7432L4.20913 21.1024L1.52433 13.7402Z" fill="white"/>
</mask>
<g mask="url(#mask1_814_209)">
<path fill-rule="evenodd" clip-rule="evenodd" d="M38.6933 26.5613C42.2347 16.174 36.7342 4.8657 26.4073 1.30353C16.0804 -2.25864 4.83784 3.27419 1.29639 13.6615C-2.24507 24.0487 3.25561 35.357 13.5825 38.9192C23.9094 42.4813 35.1519 36.9486 38.6933 26.5613ZM1.52457 13.7402L8.13624 9.58469L11.4134 2.46928L19.0098 4.23342L26.3291 1.53291L30.4605 8.18324L37.5345 11.4795L35.7808 19.1204L38.4654 26.4827L31.8538 30.638L28.5766 37.7535L20.9802 35.9893L13.6608 38.6899L9.52952 32.0396L2.45549 28.7432L4.20938 21.1024L1.52457 13.7402Z" fill="url(#paint2_linear_814_209)"/>
<path d="M8.13607 9.58478L8.2593 9.78315L8.31798 9.74626L8.34707 9.6831L8.13607 9.58478ZM1.5244 13.7402L1.40117 13.5419L1.24105 13.6425L1.30607 13.8208L1.5244 13.7402ZM11.4132 2.46937L11.4655 2.24145L11.2816 2.19873L11.2022 2.37105L11.4132 2.46937ZM19.0096 4.23351L18.9573 4.46141L19.0247 4.47709L19.0897 4.45311L19.0096 4.23351ZM26.329 1.533L26.5262 1.40905L26.4262 1.24799L26.249 1.31339L26.329 1.533ZM30.4604 8.18333L30.2631 8.30729L30.2999 8.3663L30.3627 8.39557L30.4604 8.18333ZM37.5343 11.4796L37.761 11.5323L37.8034 11.3472L37.6322 11.2674L37.5343 11.4796ZM35.7806 19.1205L35.5538 19.0679L35.5383 19.1357L35.5622 19.201L35.7806 19.1205ZM38.4652 26.4827L38.5885 26.6811L38.7487 26.5805L38.6836 26.402L38.4652 26.4827ZM31.8536 30.6381L31.7304 30.4397L31.6717 30.4767L31.6427 30.5398L31.8536 30.6381ZM28.5764 37.7536L28.5241 37.9815L28.708 38.0243L28.7876 37.8519L28.5764 37.7536ZM20.9801 35.9894L21.0324 35.7616L20.965 35.7459L20.9 35.7698L20.9801 35.9894ZM13.6607 38.69L13.4634 38.814L13.5635 38.9749L13.7407 38.9096L13.6607 38.69ZM9.52935 32.0397L9.72658 31.9157L9.68991 31.8565L9.62712 31.8273L9.52935 32.0397ZM2.45533 28.7433L2.22873 28.6907L2.18626 28.8757L2.35758 28.9555L2.45533 28.7433ZM4.20921 21.1024L4.43579 21.1551L4.45137 21.0872L4.42754 21.0219L4.20921 21.1024ZM26.3317 1.52489C36.5371 5.04516 41.9729 16.2204 38.4731 26.4856L38.9131 26.6371C42.4964 16.1277 36.9308 4.68642 26.4824 1.08235L26.3317 1.52489ZM1.5162 13.7374C5.016 3.47236 16.1263 -1.99538 26.3317 1.52489L26.4824 1.08235C16.0341 -2.52172 4.65937 3.0762 1.07624 13.5857L1.5162 13.7374ZM13.6577 38.698C3.45237 35.1777 -1.98359 24.0025 1.5162 13.7374L1.07624 13.5857C-2.50688 24.0951 3.05849 35.5365 13.5069 39.1405L13.6577 38.698ZM38.4731 26.4856C34.9734 36.7506 23.8631 42.2182 13.6577 38.698L13.5069 39.1405C23.9552 42.7447 35.3301 37.1466 38.9131 26.6371L38.4731 26.4856ZM8.01284 9.3864L1.40117 13.5419L1.64764 13.9386L8.2593 9.78315L8.01284 9.3864ZM11.2022 2.37105L7.92505 9.48644L8.34707 9.6831L11.6242 2.56771L11.2022 2.37105ZM19.062 4.00558L11.4655 2.24145L11.3609 2.6973L18.9573 4.46141L19.062 4.00558ZM26.249 1.31339L18.9296 4.01388L19.0897 4.45311L26.4092 1.75261L26.249 1.31339ZM30.6576 8.05938L26.5262 1.40905L26.1317 1.65696L30.2631 8.30729L30.6576 8.05938ZM37.6322 11.2674L30.558 7.97108L30.3627 8.39557L37.4366 11.6919L37.6322 11.2674ZM36.0071 19.1731L37.761 11.5323L37.3078 11.427L35.5538 19.0679L36.0071 19.1731ZM38.6836 26.402L35.9987 19.0399L35.5622 19.201L38.2469 26.5632L38.6836 26.402ZM31.9769 30.8364L38.5885 26.6811L38.342 26.2844L31.7304 30.4397L31.9769 30.8364ZM28.7876 37.8519L32.0648 30.7365L31.6427 30.5398L28.3655 37.6551L28.7876 37.8519ZM20.9277 36.2172L28.5241 37.9815L28.6287 37.5256L21.0324 35.7616L20.9277 36.2172ZM13.7407 38.9096L21.0601 36.2091L20.9 35.7698L13.5806 38.4703L13.7407 38.9096ZM9.33214 32.1634L13.4634 38.814L13.8579 38.566L9.72658 31.9157L9.33214 32.1634ZM2.35758 28.9555L9.43161 32.2519L9.62712 31.8273L2.5531 28.5309L2.35758 28.9555ZM3.98261 21.0498L2.22873 28.6907L2.68193 28.796L4.43579 21.1551L3.98261 21.0498ZM1.30607 13.8208L3.99086 21.183L4.42754 21.0219L1.74274 13.6597L1.30607 13.8208Z" fill="white"/>
</g>
</g>
<defs>
<radialGradient id="paint0_radial_814_209" cx="0" cy="0" r="1" gradientUnits="userSpaceOnUse" gradientTransform="translate(20.0417 20.1116) rotate(90) scale(19.883 19.7674)">
<stop offset="0.503789" stop-color="white"/>
<stop offset="0.847559" stop-color="#F6F8F8"/>
</radialGradient>
<linearGradient id="paint1_linear_814_209" x1="4.76121" y1="4.90689" x2="36.5593" y2="34.1958" gradientUnits="userSpaceOnUse">
<stop stop-color="#2DE1E8" stop-opacity="0.58"/>
<stop offset="1" stop-color="#1F9B99"/>
</linearGradient>
<linearGradient id="paint2_linear_814_209" x1="39.2389" y1="41.2413" x2="-7.28459" y2="-9.45869" gradientUnits="userSpaceOnUse">
<stop stop-color="#2DE1E8"/>
<stop offset="1" stop-color="#1F9B99"/>
</linearGradient>
</defs>
</svg>
