<svg width="600" height="600" viewBox="0 0 600 600" fill="none" xmlns="http://www.w3.org/2000/svg">
<path d="M300 600C465.685 600 600 465.685 600 300C600 134.315 465.685 0 300 0C134.315 0 0 134.315 0 300C0 465.685 134.315 600 300 600Z" fill="url(#paint0_radial_7089_46652)"/>
<path fill-rule="evenodd" clip-rule="evenodd" d="M126.383 386.977C140.829 397.659 159.36 403 181.978 403C209.349 403 231.207 396.61 247.553 383.83C263.899 370.86 275.398 351.309 282.05 325.177C286.042 309.156 289.464 292.656 292.314 275.68C293.265 269.576 293.741 264.522 293.741 260.516C293.741 247.165 290.413 235.719 283.761 226.183C277.109 216.455 267.986 209.206 256.391 204.438C244.796 199.479 231.682 197 217.047 197C163.257 197 129.899 223.227 116.975 275.68C112.413 294.944 108.897 311.444 106.425 325.177C105.476 331.281 105 336.431 105 340.628C105 360.656 112.128 376.105 126.383 386.977ZM213.055 352.358C205.642 358.652 196.615 361.8 185.97 361.8C167.724 361.8 158.6 353.026 158.6 335.477C158.6 331.281 158.98 327.275 159.741 323.461C163.161 304.959 166.583 289.318 170.005 276.539C173.235 263.569 178.558 253.936 185.97 247.64C193.573 241.346 202.696 238.199 213.341 238.199C231.396 238.199 240.425 246.878 240.425 264.235C240.425 268.433 240.045 272.533 239.285 276.539C237.005 289.89 233.677 305.531 229.306 323.461C226.075 336.431 220.659 346.064 213.055 352.358Z" fill="white"/>
<path fill-rule="evenodd" clip-rule="evenodd" d="M301.983 398.137C303.123 399.473 304.739 400.141 306.83 400.141H345.605C347.504 400.141 349.311 399.473 351.022 398.137C352.731 396.801 353.776 395.086 354.158 392.988L367.272 330.329H405.761C430.661 330.329 450.239 325.084 464.494 314.593C478.939 304.102 488.538 287.889 493.289 265.953C494.43 260.804 495 255.844 495 251.076C495 234.481 488.538 221.798 475.612 213.022C462.877 204.249 445.961 199.862 424.864 199.862H349.025C347.124 199.862 345.319 200.53 343.608 201.864C341.897 203.2 340.852 204.917 340.472 207.015L301.128 392.988C300.748 394.895 301.032 396.611 301.983 398.137ZM428.57 284.264C422.677 288.651 415.74 290.846 407.758 290.846H374.97L385.803 239.632H420.017C427.81 239.632 433.321 241.157 436.553 244.209C439.785 247.07 441.4 251.266 441.4 256.798C441.4 259.277 441.114 262.138 440.544 265.381C438.644 273.583 434.652 279.878 428.57 284.264Z" fill="white"/>
<defs>
<radialGradient id="paint0_radial_7089_46652" cx="0" cy="0" r="1" gradientUnits="userSpaceOnUse" gradientTransform="translate(196 143.5) rotate(54.1675) scale(497.082)">
<stop stop-color="#FF7374"/>
<stop offset="1" stop-color="#E30019"/>
</radialGradient>
</defs>
</svg>
