<svg width="600" height="600" viewBox="0 0 600 600" fill="none" xmlns="http://www.w3.org/2000/svg">
<path d="M300 600C465.685 600 600 465.685 600 300C600 134.315 465.685 0 300 0C134.315 0 0 134.315 0 300C0 465.685 134.315 600 300 600Z" fill="url(#paint0_radial_7863_57695)"/>
<path fill-rule="evenodd" clip-rule="evenodd" d="M226.379 159.076C244.555 141.271 273.633 141.271 291.809 159.076L340.906 207.172L349.098 199.148C367.274 181.343 396.351 181.343 414.527 199.148L462.936 246.569C481.65 264.901 481.65 295.03 462.936 313.362L332.715 440.926C314.539 458.731 285.461 458.731 267.285 440.926L137.064 313.362C118.35 295.03 118.35 264.901 137.064 246.569L226.379 159.076ZM307.503 239.894L259.094 192.473L169.779 279.965L218.188 327.386L307.503 239.894ZM251.591 360.108L300 407.529L348.409 360.108L300 312.687L251.591 360.108ZM333.404 279.965L381.813 327.386L430.222 279.965L381.813 232.544L333.404 279.965Z" fill="black" fill-opacity="0.8"/>
<defs>
<radialGradient id="paint0_radial_7863_57695" cx="0" cy="0" r="1" gradientUnits="userSpaceOnUse" gradientTransform="translate(196 143.5) rotate(54.1675) scale(497.082)">
<stop stop-color="#3FFBB6"/>
<stop offset="1" stop-color="#00BA76"/>
</radialGradient>
</defs>
</svg>
