<svg xmlns="http://www.w3.org/2000/svg" fill="none" viewBox="0 0 400 400">
    <rect width="400" height="400" fill="url(#paint0_linear_3_39)" rx="200"/>
    <path fill="#fff" fill-rule="evenodd" d="M221.364 216.481c-1.193.089-7.358.457-21.11.457-10.938 0-18.704-.328-21.429-.457-42.27-1.86-73.822-9.218-73.822-18.028 0-8.81 31.552-16.158 73.822-18.048v28.747c2.764.199 10.679.667 21.617.667 13.126 0 19.699-.547 20.882-.657v-28.737c42.181 1.88 73.663 9.238 73.663 18.028s-31.472 16.149-73.663 18.018l.04.01Zm0-39.029v-25.724h58.866V112.5H119.959v39.228h58.856v25.714C130.976 179.64 95 189.116 95 200.472c0 11.355 35.976 20.822 83.815 23.029v82.433h42.539v-82.463c47.73-2.197 83.646-11.664 83.646-23.009 0-11.346-35.887-20.812-83.646-23.02l.01.01Z" clip-rule="evenodd"/>
    <defs>
        <linearGradient id="paint0_linear_3_39" x1="200" x2="200" y1="0" y2="400" gradientUnits="userSpaceOnUse">
            <stop stop-color="#68C3C5"/>
            <stop offset="1" stop-color="#409192"/>
        </linearGradient>
    </defs>
</svg>