<svg xmlns="http://www.w3.org/2000/svg" fill="none" viewBox="0 0 400 400">
    <rect width="400" height="400" fill="url(#paint0_linear_3_33)" rx="200"/>
    <path fill="#fff" fill-rule="evenodd" d="M147.816 142.887c-9.719-8.575-29.982-26.454-56.361-58.276-2.956-3.564-5.287-6.486-5.203-6.486.44 0 69.222 59.188 76.334 67.432l1.976 2.263-.169 3.547a14.412 14.412 0 0 1-5.236 11.014c-4.054 3.716-8.97 5.692-16.723 6.756-4.763.642-6.486 1.352-8.412 3.446-1.841 2.027-2.534 4.544-3.041 10.912-.793 9.848-1.959 14.02-6.655 23.818-4.527 9.442-5.456 13.006-4.645 18.074.946 6.165 4.459 10.641 12.669 16.216 6.25 4.256 9.087 7.01 10.641 10.304.963 2.027 1.081 2.77 1.065 6.283-.034 5.389-.896 7.551-4.612 11.487-5.996 6.368-16.655 11.537-29.763 14.476-5.507 1.233-5.743 1.233-5.743-.017 0-1.588-2.027-5.642-5.574-11.098-4.105-6.317-5.727-9.459-7.247-14.256-1.757-5.456-2.247-9.139-1.993-14.865.236-5.389.828-7.787 2.99-12.061 1.723-3.412 2.837-4.949 9.628-13.378 11.621-14.409 15.811-22.821 17.297-34.729 1.334-10.625 3.176-15.76 7.297-20.321 2.466-2.753 3.024-3.801 3.024-5.794 0-.201.101-.466.235-.82.522-1.374 1.551-4.085-.826-9.551-16.309-29.008-18.29-32.509-18.164-32.587.018-.011.075.043.14.104a2246.296 2246.296 0 0 1 19.054 29.155c6.488 11.447 7.9 12.65 9.121 13.691.169.143.333.284.507.447 0 0 .862.946 3.345.946a23.328 23.328 0 0 0 8.699-2.415c3.818-2.162 4.662-4.933 2.432-8.007-.687-.945-2.774-2.787-6.087-5.71Zm-39.23 103.006a6.244 6.244 0 0 1-.645 4.51c-1.554 2.72-4.493 3.598-6.571 1.994-1.283-1.014-1.385-2.484-.253-4.156 1.115-1.672 1.013-2.483-.405-3.209-.845-.423-1.217-.912-1.217-1.588 0-2.179 3.97-2.99 6.504-1.301a6.252 6.252 0 0 1 2.587 3.75ZM161.167 179.965c1.115-4.02 4.645-7.855 8.277-8.953a16.3 16.3 0 0 1 9.341.879c4.358 2.213 7.517 7.213 6.841 10.827-.845 4.426-8.04 7.956-16.317 8.007-4.24.017-5.794-.541-7.416-2.686-.996-1.317-1.385-5.625-.726-8.074Zm16.503-6.503c2.179 1.317 2.736 3.26 1.47 5.067-.879 1.25-3.615 2.433-5.608 2.433-2.99 0-6.25-2.112-6.25-4.054 0-3.886 6.266-5.963 10.388-3.446Z" clip-rule="evenodd"/>
    <path fill="#fff" d="M154.579 95.118c-1.503.22-1.368.27 1.808.76v.017c11.57 1.774 20.607 6.334 29.813 15.034 4.054 3.817 8.108 8.564 14.696 17.162 14.831 19.324 21.115 24.695 33.598 28.749 7.331 2.382 14.729 3.497 27.803 4.172 14.46.761 19.933 1.926 25.102 5.321a24.707 24.707 0 0 1 7.347 7.652l1.284 1.994-.27-2.196c-1.03-8.412-7.078-20.237-14.797-28.919l-1.402-1.588-.71 3.193c-1.773 8.006-5.625 13.75-9.206 13.75a4.63 4.63 0 0 1-4.155-2.602c-.794-1.892-.726-2.584.456-4.78 2.179-4.037 2.703-9.426 1.622-16.486-.287-2.044-.744-3.936-1.014-4.24-.76-.929-7.01-4.544-10.979-6.368-14.409-6.605-31.605-8.75-48.53-6.048l-4.02.642-2.804-3.108c-10.575-11.706-20.473-18.293-31.351-20.861-4.663-1.098-11.419-1.69-14.291-1.25Z"/>
    <path fill="#fff" d="M272.213 102.044c-1.588 3.463-2.365 7.263-2.686 13.006h-.017c-.202 3.716-.422 4.983-.844 5.152-.659.237-1.537-.017-6.909-2.077-3.598-1.369-12.55-3.97-12.804-3.717a32.156 32.156 0 0 0 4.155 2.027 101.092 101.092 0 0 1 8.514 4.392c9.172 5.372 10.76 8.531 10.76 21.622 0 6.52-.085 7.398-.895 9.358-1.081 2.652-.896 3.158.304.794 2.229-4.308 3.158-8.632 3.277-15.372.101-4.324.219-5.236.844-5.844.659-.659.828-.659 1.909-.119 1.622.828 8.919 6.605 12.094 9.561l2.602 2.416-2.602-3.379c-1.435-1.875-5.371-6.199-8.766-9.645-7.213-7.331-7.77-8.311-8.784-15.101-.811-5.355-.608-9.949.541-13.328.422-1.233.692-2.246.608-2.246a13.94 13.94 0 0 0-1.301 2.5ZM152.991 105c-.878 10.118 3.125 23.648 9.561 32.466 5 6.841 12.753 12.162 18.48 12.668 3.75.338 4.864-.827 3.175-3.294-2.348-3.412-5.253-8.665-6.013-10.912-.473-1.418-1.504-5.54-2.297-9.189-2.686-12.466-5.338-17.314-11.436-20.996-2.23-1.351-6.976-3.108-9.747-3.615l-1.469-.253-.254 3.125ZM220.947 162.955c0 17.652 10.608 28.125 40.742 40.169v.016c20.068 8.024 28.277 12.179 34.392 17.399 5.372 4.594 8.581 10.726 8.885 17.01.051 1.182.27 2.044.507 1.959.811-.27 3.885-7.111 4.898-10.912 1.301-4.814 1.74-13.935.963-18.8-2.719-16.774-14.088-29.071-32.499-35.135-5.794-1.909-12.044-3.209-23.193-4.831-18.952-2.753-25.793-4.831-31.908-9.696-1.318-1.064-2.483-1.909-2.585-1.909-.118 0-.202 2.129-.202 4.73ZM239.088 201.806a52.85 52.85 0 0 1 1.453 6.334c2.416 14.291-5.135 25.828-19.797 30.287-1.554.473-7.686 1.672-13.598 2.652-11.993 1.977-17.348 3.379-22.719 5.963-3.801 1.824-8.429 4.561-8.159 4.831a5.476 5.476 0 0 0 1.943-.456c6.773-2.365 14.324-3.598 25.793-4.189 4.544-.237 9.713-.608 11.487-.828 10.219-1.284 17.297-4.358 22.803-9.932a25.634 25.634 0 0 0 6.352-10.068c.946-2.567 1.081-3.53 1.081-8.108 0-4.662-.102-5.506-1.115-8.378-1.318-3.767-2.889-6.588-4.865-8.784l-1.436-1.604.777 2.28Z"/>
    <path fill="#fff" d="M254.358 232.532c-4.003-8.547-4.932-16.807-2.736-24.51.236-.845.608-1.503.844-1.503.22 0 1.183.506 2.095 1.131 1.858 1.234 5.54 3.311 15.405 8.649 12.297 6.672 19.324 11.824 24.088 17.736 4.172 5.152 6.756 11.047 8.006 18.209.71 4.054.288 13.852-.76 17.939-3.31 12.906-10.979 23.041-21.959 28.953-1.605.861-3.04 1.571-3.209 1.571-.152 0 .439-1.47 1.3-3.277 3.7-7.669 4.122-15.118 1.335-23.412-1.723-5.085-5.203-11.284-12.23-21.774-8.175-12.162-10.169-15.422-12.179-19.712ZM141.15 278.697c11.199-9.392 25.101-16.047 37.787-18.108a59.285 59.285 0 0 1 19.611.76c8.108 2.061 15.372 6.689 19.138 12.179 3.683 5.388 5.271 10.067 6.926 20.507.642 4.104 1.351 8.243 1.554 9.172 1.233 5.405 3.649 9.729 6.622 11.891 4.729 3.446 12.905 3.666 20.928.558a10.454 10.454 0 0 1 2.619-.811c.287.287-3.75 2.973-6.588 4.392a22.538 22.538 0 0 1-10.946 2.635c-7.348 0-13.446-3.716-18.547-11.284a89.475 89.475 0 0 1-5-9.932c-5.372-12.179-8.024-15.878-14.257-19.949-5.439-3.547-12.449-4.172-17.719-1.605-6.926 3.379-8.851 12.162-3.885 17.737a15.388 15.388 0 0 0 8.649 4.493 9.2 9.2 0 0 0 7.327-2.206 9.207 9.207 0 0 0 3.128-6.983c0-3.666-1.418-5.744-4.983-7.365-4.881-2.179-10.101.371-10.084 4.915 0 1.943.862 3.159 2.821 4.054 1.25.558 1.284.592.253.389-4.459-.929-5.506-6.284-1.925-9.831 4.324-4.257 13.243-2.382 16.3 3.446 1.284 2.449 1.436 7.314.321 10.253-2.534 6.588-9.831 10.051-17.263 8.159-5.068-1.284-7.112-2.669-13.209-8.902-10.592-10.845-14.696-12.956-29.966-15.321l-2.939-.456 3.327-2.787Z"/>
    <defs>
        <linearGradient id="paint0_linear_3_33" x1="200" x2="200" y1="0" y2="400" gradientUnits="userSpaceOnUse">
            <stop stop-color="#FC8AD6"/>
            <stop offset="1" stop-color="#DF55B1"/>
        </linearGradient>
    </defs>
</svg>