<svg xmlns="http://www.w3.org/2000/svg" fill="none" viewBox="0 0 400 400">
    <rect width="400" height="400" fill="url(#paint0_linear_3_27)" rx="200"/>
    <path fill="#fff" d="M105.467 164.868c-19.584 51.995 7.427 110.742 60.097 129.648 2.025 1.351 4.051 4.051 4.051 6.077v9.455c0 1.35 0 2.026-.676 2.7-.674 2.701-3.375 4.051-6.077 2.701-37.813-12.154-66.85-41.191-79.004-79.004-20.258-64.149 14.856-132.35 79.004-152.608.676-.674 2.026-.674 2.702-.674 2.701.674 4.051 2.7 4.051 5.402v9.453c0 3.377-1.35 5.403-4.051 6.753-27.685 10.128-49.968 31.736-60.097 60.097ZM231.064 86.539c.674-2.702 3.375-4.052 6.077-2.702 37.138 12.155 66.85 41.191 79.004 79.681 20.258 64.148-14.856 132.349-79.004 152.607-.676.674-2.026.674-2.702.674-2.701-.674-4.051-2.7-4.051-5.401v-9.453c0-3.378 1.35-5.403 4.051-6.753 27.685-10.129 49.968-31.737 60.097-60.097 19.584-51.996-7.427-110.743-60.097-129.648-2.025-1.352-4.051-4.052-4.051-6.754V89.24c0-1.351 0-2.025.676-2.701Z"/>
    <path fill="#fff" d="M202.01 188.498c28.361 3.376 42.541 11.479 42.541 35.112 0 18.232-13.505 32.412-33.762 35.79v16.206c-.676 3.376-2.701 5.401-5.403 5.401h-10.128c-3.376-.676-5.402-2.701-5.402-5.401V259.4c-22.283-3.378-33.087-15.532-35.787-32.413v-.675c0-2.702 2.026-4.728 4.725-4.728h11.481c2.025 0 4.051 1.352 4.725 4.052 2.026 10.129 8.103 17.558 25.661 17.558 12.828 0 22.283-7.428 22.283-18.232 0-10.805-6.078-14.856-24.985-18.232-28.36-3.377-41.864-12.155-41.864-34.438 0-16.882 12.828-30.387 33.085-33.088v-15.53c.676-3.378 2.702-5.404 5.403-5.404h10.129c3.376.676 5.401 2.702 5.401 5.404v16.206c15.53 1.35 27.685 12.828 30.386 27.685v.675c0 2.7-2.025 4.726-4.727 4.726h-10.803c-2.025 0-4.051-1.35-4.727-3.376-3.376-10.128-10.129-14.18-22.283-14.18-13.504 0-20.257 6.076-20.257 15.53 0 9.455 4.051 14.856 24.308 17.558Z"/>
    <defs>
        <linearGradient id="paint0_linear_3_27" x1="200" x2="200" y1="0" y2="400" gradientUnits="userSpaceOnUse">
            <stop stop-color="#5791E9"/>
            <stop offset="1" stop-color="#3E73C4"/>
        </linearGradient>
    </defs>
</svg>