<svg width="400" height="400" viewBox="0 0 400 400" fill="none"
    xmlns="http://www.w3.org/2000/svg">
    <path d="M390 200C390 95.0659 304.934 10 200 10C95.0659 10 10 95.0659 10 200C10 304.934 95.0659 390 200 390C304.934 390 390 304.934 390 200Z" fill="#E82574"/>
    <path d="M380 220C380 131.634 308.366 60 220 60C131.634 60 60 131.634 60 220C60 308.366 131.634 380 220 380C308.366 380 380 308.366 380 220Z" fill="white" stroke="black" stroke-width="2"/>
    <path d="M121.162 239.849L133.906 186.016H141.025L142.651 194.98L129.072 250H121.426L121.162 239.849ZM114.614 186.016L125.161 239.849L124.282 250H115.757L101.562 186.016H114.614ZM153.857 239.629L164.272 186.016H177.324L163.174 250H154.648L153.857 239.629ZM145.024 186.016L157.856 240.068L157.505 250H149.858L136.191 194.937L137.949 186.016H145.024Z" fill="black"/>
    <path d="M227.422 239.717V250H193.364V239.717H227.422ZM197.671 186.016V250H184.487V186.016H197.671ZM222.983 212.075V222.095H193.364V212.075H222.983ZM227.378 186.016V196.343H193.364V186.016H227.378Z" fill="black"/>
    <path d="M264.6 186.016V250H251.46V186.016H264.6ZM284.287 186.016V196.343H232.08V186.016H284.287Z" fill="black"/>
    <path d="M334.473 212.075V222.358H301.074V212.075H334.473ZM304.985 186.016V250H291.802V186.016H304.985ZM343.877 186.016V250H330.737V186.016H343.877Z" fill="black"/>
    <path d="M71.5494 158.105L13.5938 142.576L8.41743 161.895L66.373 177.424L71.5494 158.105Z" fill="black"/>
    <path d="M71.5494 238.105L13.5938 222.576L8.41743 241.895L66.373 257.424L71.5494 238.105Z" fill="black"/>
    <path d="M390 200C390 95.0659 304.934 10 200 10C95.0659 10 10 95.0659 10 200C10 304.934 95.0659 390 200 390C304.934 390 390 304.934 390 200Z" stroke="black" stroke-width="2"/>
</svg>
