<svg width="400" height="400" viewBox="0 0 400 400" fill="none"
    xmlns="http://www.w3.org/2000/svg">
    <rect x="1" y="1" width="398" height="398" rx="199" fill="#E82574"/>
    <rect x="51" y="51" width="338" height="338" rx="39" fill="white" stroke="black" stroke-width="2"/>
    <path d="M121.162 239.849L133.906 186.016H141.025L142.651 194.98L129.072 250H121.426L121.162 239.849ZM114.614 186.016L125.161 239.849L124.282 250H115.757L101.562 186.016H114.614ZM153.857 239.629L164.272 186.016H177.324L163.174 250H154.648L153.857 239.629ZM145.024 186.016L157.856 240.068L157.505 250H149.858L136.191 194.937L137.949 186.016H145.024Z" fill="black"/>
    <path d="M227.422 239.717V250H193.364V239.717H227.422ZM197.671 186.016V250H184.487V186.016H197.671ZM222.983 212.075V222.095H193.364V212.075H222.983ZM227.378 186.016V196.343H193.364V186.016H227.378Z" fill="black"/>
    <path d="M264.6 186.016V250H251.46V186.016H264.6ZM284.287 186.016V196.343H232.08V186.016H284.287Z" fill="black"/>
    <path d="M334.473 212.075V222.358H301.074V212.075H334.473ZM304.985 186.016V250H291.802V186.016H304.985ZM343.877 186.016V250H330.737V186.016H343.877Z" fill="black"/>
    <rect x="13.5938" y="142.576" width="60" height="20" transform="rotate(15 13.5938 142.576)" fill="black"/>
    <rect x="13.6104" y="222.576" width="60" height="20" transform="rotate(15 13.6104 222.576)" fill="black"/>
    <rect x="1" y="1" width="398" height="398" rx="199" stroke="black" stroke-width="2"/>
</svg>
