<svg width="600" height="600" viewBox="0 0 600 600" fill="none" xmlns="http://www.w3.org/2000/svg">
<path d="M300 600C465.685 600 600 465.685 600 300C600 134.315 465.685 0 300 0C134.315 0 0 134.315 0 300C0 465.685 134.315 600 300 600Z" fill="url(#paint0_radial_6846_44087)"/>
<path d="M397.262 236.033C393.612 233.987 389.483 232.911 385.28 232.911C381.078 232.911 376.949 233.987 373.299 236.033L318.325 267.875L280.97 288.642L225.996 320.484C218.948 324.638 209.786 324.638 202.033 320.484L158.336 295.564C154.762 293.499 151.784 290.571 149.687 287.057C147.59 283.544 146.443 279.562 146.354 275.49V226.342C146.354 218.035 150.583 210.421 158.336 206.267L201.328 182.039C208.376 177.886 217.539 177.886 225.292 182.039L268.284 206.267C275.332 210.421 280.266 218.035 280.266 226.342V258.184L317.62 236.725V204.883C317.62 196.576 313.391 188.962 305.638 184.808L225.996 139.121C222.347 137.076 218.217 136 214.015 136C209.813 136 205.683 137.076 202.033 139.121L120.982 184.808C113.229 188.962 109 196.576 109 204.883V296.949C109 305.255 113.229 312.87 120.982 317.023L202.033 362.71C209.081 366.863 218.244 366.863 225.996 362.71L280.97 331.56L318.325 310.101L373.299 278.951C380.347 274.797 389.509 274.797 397.262 278.951L440.255 303.179C447.303 307.332 452.236 314.947 452.236 323.253V372.401C452.236 380.708 448.007 388.322 440.255 392.476L397.262 417.396C390.214 421.549 381.052 421.549 373.299 417.396L330.306 393.168C326.732 391.103 323.755 388.175 321.658 384.661C319.561 381.147 318.413 377.165 318.325 373.093V341.251L280.97 362.71V394.552C280.97 402.859 285.199 410.474 292.952 414.627L374.004 460.314C381.052 464.467 390.214 464.467 397.967 460.314L479.018 414.627C486.066 410.474 491 402.859 491 394.552V302.487C491 294.18 486.771 286.565 479.018 282.412L397.262 236.033V236.033Z" fill="white"/>
<path d="M94.2498 518.328C144 535.5 198.5 548 300 548C401.5 548 455.5 531.5 510.742 513.513C552.335 472.457 581.99 419.337 594.034 359.829C567.53 367.663 454.906 409 300 409C122 409 37.1191 374.718 7.70996 367.872C21.2586 426.453 51.9648 478.465 94.2498 518.328Z" fill="white"/>
<path d="M97.5655 487.434L95.9575 426.859L110.988 430.804L109.801 469.909L110.268 470.031L129.646 435.701L141.902 438.917L141.902 478.421L142.369 478.544L160.587 443.821L175.59 447.758L144.471 499.744L131.364 496.304L130.181 459.514L129.742 459.399L110.645 490.866L97.5655 487.434Z" fill="#6A33C7"/>
<path fill-rule="evenodd" clip-rule="evenodd" d="M173.537 505.648L182.256 448.123L206.019 451.725C210.325 452.378 213.925 453.718 216.816 455.746C219.729 457.759 221.819 460.336 223.086 463.478C224.356 466.601 224.693 470.129 224.097 474.061C223.492 478.05 222.108 481.307 219.944 483.833C217.798 486.323 215.03 488.057 211.64 489.036L220.247 512.728L205.08 510.429L197.546 489.145L190.425 488.065L187.44 507.755L173.537 505.648ZM198.939 478.15L192.085 477.111L194.461 461.438L201.314 462.477C203.393 462.792 205.098 463.357 206.431 464.172C207.766 464.968 208.709 466.011 209.261 467.301C209.815 468.573 209.957 470.098 209.688 471.877C209.418 473.656 208.831 475.061 207.928 476.093C207.027 477.106 205.823 477.785 204.315 478.131C202.828 478.462 201.036 478.468 198.939 478.15Z" fill="#6A33C7"/>
<path fill-rule="evenodd" clip-rule="evenodd" d="M229.338 513.872L244.423 514.798L248.992 502.84L269.047 504.071L272.127 516.499L287.212 517.425L271.183 458.15L252.497 457.003L229.338 513.872ZM266.354 493.204L261.154 472.221L260.701 472.193L252.987 492.383L266.354 493.204Z" fill="#6A33C7"/>
<path fill-rule="evenodd" clip-rule="evenodd" d="M299.69 517.333L298.073 459.174L322.098 458.505C326.452 458.384 330.234 459.132 333.443 460.748C336.67 462.344 339.188 464.633 340.995 467.614C342.801 470.577 343.76 474.055 343.871 478.05C343.983 482.063 343.2 485.6 341.523 488.659C339.864 491.699 337.439 494.087 334.248 495.824C331.056 497.561 327.236 498.492 322.787 498.615L313.245 498.881L313.747 516.942L299.69 517.333ZM319.866 487.613L312.937 487.806L312.445 470.114L319.374 469.921C321.476 469.862 323.256 470.173 324.715 470.852C326.174 471.532 327.291 472.524 328.066 473.828C328.84 475.114 329.253 476.656 329.303 478.455C329.352 480.235 329.027 481.807 328.326 483.171C327.624 484.517 326.564 485.579 325.146 486.358C323.747 487.135 321.987 487.554 319.866 487.613Z" fill="#6A33C7"/>
<path fill-rule="evenodd" clip-rule="evenodd" d="M352.078 457.264L358.495 515.091L372.471 513.54L370.479 495.582L379.966 494.53C384.39 494.039 388.12 492.796 391.157 490.801C394.194 488.806 396.414 486.226 397.816 483.059C399.234 479.872 399.722 476.283 399.279 472.293C398.838 468.321 397.596 464.933 395.551 462.13C393.503 459.309 390.806 457.236 387.457 455.911C384.126 454.566 380.295 454.133 375.966 454.614L352.078 457.264ZM369.257 484.57L376.146 483.806C378.255 483.572 379.974 483.01 381.304 482.119C382.653 481.226 383.622 480.08 384.21 478.681C384.796 477.263 384.991 475.669 384.794 473.9C384.596 472.111 384.057 470.609 383.179 469.391C382.299 468.155 381.104 467.259 379.594 466.702C378.084 466.146 376.284 465.983 374.195 466.215L367.305 466.979L369.257 484.57Z" fill="#6A33C7"/>
<path d="M416.882 507.959L405.833 450.836L445.663 443.132L447.832 454.344L421.809 459.378L424.075 471.093L448.062 466.453L450.236 477.693L426.249 482.333L428.52 494.076L454.544 489.042L456.712 500.255L416.882 507.959Z" fill="#6A33C7"/>
<path fill-rule="evenodd" clip-rule="evenodd" d="M471.658 496.923L492.351 491.065C498.036 489.455 502.633 486.953 506.14 483.559C509.642 480.146 511.911 476.029 512.948 471.209C514.002 466.383 513.704 461.054 512.053 455.223C510.408 449.409 507.873 444.734 504.45 441.195C501.022 437.638 496.925 435.334 492.159 434.282C487.406 433.207 482.177 433.476 476.474 435.091L455.809 440.942L471.658 496.923ZM488.565 479.677L481.923 481.557L472.605 448.646L479.056 446.82C482.263 445.912 485.113 445.686 487.604 446.142C490.108 446.575 492.266 447.834 494.076 449.919C495.882 451.987 497.355 455.034 498.495 459.061C499.636 463.089 499.984 466.474 499.54 469.218C499.11 471.938 497.953 474.145 496.071 475.839C494.202 477.51 491.7 478.789 488.565 479.677Z" fill="#6A33C7"/>
<defs>
<radialGradient id="paint0_radial_6846_44087" cx="0" cy="0" r="1" gradientUnits="userSpaceOnUse" gradientTransform="translate(196 143.5) rotate(54.1675) scale(497.082)">
<stop stop-color="#9C63FA"/>
<stop offset="1" stop-color="#4A12A6"/>
</radialGradient>
</defs>
</svg>
