<svg xmlns="http://www.w3.org/2000/svg" fill="none" viewBox="0 0 400 400">
    <rect width="400" height="400" fill="url(#paint0_linear_3_64)" rx="200"/>
    <path fill="#fff" d="M200.074 90.423a109.324 109.324 0 0 0-73.775 28.646l-7.903-7.722a120.369 120.369 0 0 1 163.175 0l-7.723 7.722a109.321 109.321 0 0 0-73.774-28.646ZM280.985 126.125l7.723-7.722v-.18a120.364 120.364 0 0 1 0 163.174l-7.723-7.722a109.326 109.326 0 0 0 0-147.55ZM119.069 273.746a109.327 109.327 0 0 1 0-147.473l-7.722-7.722a120.364 120.364 0 0 0 0 163.174l7.722-7.979ZM199.975 309.528a109.328 109.328 0 0 0 73.775-28.645l7.902 7.722a120.364 120.364 0 0 1-163.174 0l7.722-7.722a109.33 109.33 0 0 0 73.775 28.645Z"/>
    <path fill="#fff" fill-rule="evenodd" d="M248.752 174.233c-1.545-16.114-15.445-21.52-33.026-23.168v-22.189h-13.592v21.778h-10.863v-21.778h-13.488v22.344h-27.569v14.544s10.039-.18 9.885 0a7.028 7.028 0 0 1 7.722 5.972v61.161a4.762 4.762 0 0 1-1.647 3.321 4.715 4.715 0 0 1-3.501 1.184c.18.154-9.885 0-9.885 0l-2.574 16.243h27.311v22.704h13.592v-22.37h10.863v22.267h13.617v-22.447c22.961-1.39 38.972-7.053 40.98-28.547 1.622-17.298-6.512-25.021-19.512-28.135 7.903-3.887 12.794-11.095 11.687-22.884Zm-19.049 48.342c0 15.502-24.384 15.146-35.511 14.983-.993-.014-1.882-.027-2.637-.027v-29.963c.943.002 2.094-.023 3.398-.052 11.439-.253 34.75-.768 34.75 15.059Zm-6.306-42.216c0 14.119-20.178 13.761-29.503 13.595-.875-.015-1.655-.029-2.314-.029V166.69c.769 0 1.703-.024 2.762-.051 9.506-.248 29.055-.756 29.055 13.72Z" clip-rule="evenodd"/>
    <path fill="#fff" fill-rule="evenodd" d="M121.857 316.915a140.623 140.623 0 0 0 208.068-63.112 140.616 140.616 0 0 0-13.01-131.946 140.624 140.624 0 1 0-195.058 195.058Zm6.159-224.69a129.581 129.581 0 1 1 144.122 215.393A129.581 129.581 0 0 1 128.016 92.226Z" clip-rule="evenodd"/>
    <defs>
        <linearGradient id="paint0_linear_3_64" x1="200" x2="200" y1="0" y2="400" gradientUnits="userSpaceOnUse">
            <stop stop-color="#F8AD68"/>
            <stop offset="1" stop-color="#D98F4C"/>
        </linearGradient>
    </defs>
</svg>