<svg width="40" height="40" viewBox="0 0 47 47" fill="none" xmlns="http://www.w3.org/2000/svg">
    <path fill-rule="evenodd" clip-rule="evenodd"
        d="M19.4576 -8.50513e-07C21.488 2.48675 23.7274 4.79613 26.149 6.90135C24.5353 12.1351 23.6666 17.6956 23.6666 23.459C23.6666 29.2225 24.5354 34.7831 26.1491 40.0169C23.7274 42.1222 21.488 44.4316 19.4576 46.9184C17.4271 44.4316 15.1877 42.1221 12.766 40.0169C14.3796 34.7831 15.2484 29.2226 15.2484 23.4592C15.2484 17.6958 14.3796 12.1353 12.766 6.90151C15.1877 4.79625 17.4271 2.48681 19.4576 -8.50513e-07ZM8.13738 36.3986C5.5739 34.6018 2.8533 33.0139 0.000292012 31.6596C0.791674 29.0656 1.2174 26.3121 1.2174 23.4593C1.2174 20.6063 0.791659 17.8528 0.000254582 15.2588C2.8533 13.9045 5.57394 12.3166 8.13746 10.5198C9.11767 14.6736 9.63633 19.0057 9.63633 23.459C9.63633 27.9124 9.11764 32.2446 8.13738 36.3986ZM29.2793 23.4592C29.2793 27.9124 29.7979 32.2445 30.7781 36.3983C33.3416 34.6016 36.0621 33.0137 38.915 31.6595C38.1236 29.0655 37.6979 26.312 37.6979 23.4591C37.6979 20.6062 38.1236 17.8528 38.915 15.2589C36.0621 13.9046 33.3415 12.3168 30.7781 10.5201C29.7979 14.6739 29.2793 19.006 29.2793 23.4592Z"
        fill="#6851FF"></path>
</svg>