<svg width="22" height="22" viewBox="0 0 22 22" fill="none"
    xmlns="http://www.w3.org/2000/svg">
    <path d="M20.0064 14.8511L18.794 18.7928L16.4141 18.1669L20.0064 14.8511Z" fill="#E4761B" stroke="#E4761B" stroke-width="0.190386"/>
    <path d="M16.4141 18.1669L18.7096 15.1425L20.0064 14.8511L16.4141 18.1669Z" fill="#E4761B" stroke="#E4761B" stroke-width="0.190386"/>
    <path d="M18.2266 11.8792L20.0103 14.851L18.7135 15.1425L18.2266 11.8792ZM18.2266 11.8792L19.3743 11.1147L20.0103 14.851L18.2266 11.8792Z" fill="#F6851B" stroke="#F6851B" stroke-width="0.190386"/>
    <path d="M16.7656 9.63355L20.0648 8.33398L19.9008 9.04588L16.7656 9.63355ZM19.7965 9.90111L16.7656 9.63355L19.9008 9.04588L19.7965 9.90111Z" fill="#763D16" stroke="#763D16" stroke-width="0.190386"/>
    <path d="M19.7965 9.90111L19.3742 11.1147L16.7656 9.63355L19.7965 9.90111ZM20.4573 8.63499L19.9008 9.04588L20.0648 8.33398L20.4573 8.63499ZM19.7965 9.90111L19.9008 9.04588L20.343 9.39944L19.7965 9.90111Z" fill="#763D16" stroke="#763D16" stroke-width="0.190386"/>
    <path d="M13.8594 17.2065L14.6842 17.4598L16.4182 18.1669L13.8594 17.2065Z" fill="#E2761B" stroke="#E2761B" stroke-width="0.190386"/>
    <path d="M19.3765 11.1144L19.7988 9.90086L20.1615 10.1684L19.3765 11.1144ZM19.3765 11.1144L15.9531 10.0299L16.768 9.6333L19.3765 11.1144Z" fill="#763D16" stroke="#763D16" stroke-width="0.190386"/>
    <path d="M17.5828 5.91162L16.768 9.63355L15.9531 10.0301L17.5828 5.91162Z" fill="#763D16" stroke="#763D16" stroke-width="0.190386"/>
    <path d="M20.0648 8.33398L16.7656 9.63355L17.5805 5.91162L20.0648 8.33398Z" fill="#763D16" stroke="#763D16" stroke-width="0.190386"/>
    <path d="M17.5781 5.91152L21.0214 5.5293L20.0624 8.33388L17.5781 5.91152Z" fill="#763D16" stroke="#763D16" stroke-width="0.190386"/>
    <path d="M19.3765 11.1148L18.2288 11.8793L15.9531 10.0303L19.3765 11.1148Z" fill="#F6851B" stroke="#F6851B" stroke-width="0.190386"/>
    <path d="M20.8723 2.84912L21.0214 5.52949L17.5781 5.91171L20.8723 2.84912Z" fill="#763D16" stroke="#763D16" stroke-width="0.190386"/>
    <path d="M20.8694 2.84912L13.9879 7.6604L13.8984 4.39714L20.8694 2.84912Z" fill="#E2761B" stroke="#E2761B" stroke-width="0.190386"/>
    <path d="M8.78125 4.00537L13.8989 4.39715L13.9884 7.66041L8.78125 4.00537Z" fill="#F6851B" stroke="#F6851B" stroke-width="0.190386"/>
    <path d="M15.9498 10.0301L13.9922 7.66031L17.5795 5.91162L15.9498 10.0301Z" fill="#763D16" stroke="#763D16" stroke-width="0.190386"/>
    <path d="M15.9504 10.0303L18.2261 11.8793L15.0312 12.2185L15.9504 10.0303Z" fill="#E4761B" stroke="#E4761B" stroke-width="0.190386"/>
    <path d="M15.0306 12.2182L13.9922 7.66016L15.9498 10.03L15.0306 12.2182Z" fill="#E4761B" stroke="#E4761B" stroke-width="0.190386"/>
    <path d="M17.5795 5.91171L13.9922 7.6604L20.8737 2.84912L17.5795 5.91171Z" fill="#763D16" stroke="#763D16" stroke-width="0.190386"/>
    <path d="M8.82848 18.0905L10.4532 19.7197L8.24219 17.7847L8.82848 18.0905Z" fill="#C0AD9E" stroke="#C0AD9E" stroke-width="0.190386"/>
    <path d="M16.4141 18.1669L17.1842 15.3528L18.7096 15.1426L16.4141 18.1669Z" fill="#CD6116" stroke="#CD6116" stroke-width="0.190386"/>
    <path d="M2.24219 10.25L5.05443 7.40723L2.6049 9.91081L2.24219 10.25Z" fill="#E2761B" stroke="#E2761B" stroke-width="0.190386"/>
    <path d="M18.7086 15.1425L17.1832 15.3527L18.2216 11.8792L18.7086 15.1425ZM13.9884 7.66041L11.2507 7.57441L8.78125 4.00537L13.9884 7.66041Z" fill="#F6851B" stroke="#F6851B" stroke-width="0.190386"/>
    <path d="M18.2245 11.8789L17.186 15.3524L17.1016 13.6563L18.2245 11.8789Z" fill="#E4751F" stroke="#E4751F" stroke-width="0.190386"/>
    <path d="M15.0312 12.2181L18.2261 11.8789L17.1032 13.6563L15.0312 12.2181Z" fill="#CD6116" stroke="#CD6116" stroke-width="0.190386"/>
    <path d="M11.25 7.57422L13.9877 7.66022L15.0262 12.2183L11.25 7.57422Z" fill="#F6851B" stroke="#F6851B" stroke-width="0.190386"/>
    <path d="M11.2539 7.5743L3.86552 1L8.78446 4.00526L11.2539 7.5743ZM8.77949 19.0889L2.36003 21L1.07812 16.2938L8.77949 19.0889Z" fill="#E4761B" stroke="#E4761B" stroke-width="0.190386"/>
    <path d="M3.19531 11.4251L5.62 9.59521L7.65217 10.0491L3.19531 11.4251Z" fill="#763D16" stroke="#763D16" stroke-width="0.190386"/>
    <path d="M7.64936 10.0494L5.61719 9.59553L6.70532 5.27637L7.64936 10.0494Z" fill="#763D16" stroke="#763D16" stroke-width="0.190386"/>
    <path d="M2.60156 9.91055L5.61752 9.59521L3.19283 11.4251L2.60156 9.91055Z" fill="#763D16" stroke="#763D16" stroke-width="0.190386"/>
    <path d="M17.1032 13.6564L15.8511 13.0496L15.0312 12.2183L17.1032 13.6564Z" fill="#CD6116" stroke="#CD6116" stroke-width="0.190386"/>
    <path d="M2.60428 9.91074L2.39062 8.82617L5.62023 9.5954L2.60428 9.91074Z" fill="#763D16" stroke="#763D16" stroke-width="0.190386"/>
    <path d="M15.5938 14.4163L15.8521 13.0498L17.1042 13.6566L15.5938 14.4163Z" fill="#233447" stroke="#233447" stroke-width="0.190386"/>
    <path d="M17.1887 15.3524L15.5938 14.4159L17.1042 13.6562L17.1887 15.3524Z" fill="#F6851B" stroke="#F6851B" stroke-width="0.190386"/>
    <path d="M5.61795 9.59553L2.38834 8.8263L2.125 7.91373L5.61795 9.59553ZM6.70607 5.27637L5.61795 9.59553L2.125 7.91373L6.70607 5.27637ZM6.70607 5.27637L11.2524 7.5745L7.65011 10.0494L6.70607 5.27637Z" fill="#763D16" stroke="#763D16" stroke-width="0.190386"/>
    <path d="M7.64844 10.0491L11.2507 7.57422L12.8556 12.2899L7.64844 10.0491ZM12.8556 12.2899L7.87699 12.1896L7.64844 10.0491L12.8556 12.2899Z" fill="#E4761B" stroke="#E4761B" stroke-width="0.190386"/>
    <path d="M3.19531 11.4252L7.65217 10.0491L7.88073 12.1896L3.19531 11.4252ZM15.0306 12.2183L12.8593 12.2899L11.2544 7.57422L15.0306 12.2183Z" fill="#F6851B" stroke="#F6851B" stroke-width="0.190386"/>
    <path d="M15.8511 13.0496L15.5927 14.4161L15.0312 12.2183L15.8511 13.0496Z" fill="#CD6116" stroke="#CD6116" stroke-width="0.190386"/>
    <path d="M3.86719 1L11.2555 7.5743L6.70924 5.27616L3.86719 1Z" fill="#763D16" stroke="#763D16" stroke-width="0.190386"/>
    <path d="M1.07812 16.2939L7.30878 16.0454L8.7795 19.0889L1.07812 16.2939Z" fill="#E4761B" stroke="#E4761B" stroke-width="0.190386"/>
    <path d="M8.78321 19.0887L7.3125 16.0452L10.3732 15.9019L8.78321 19.0887Z" fill="#CD6116" stroke="#CD6116" stroke-width="0.190386"/>
    <path d="M15.5915 14.4162L17.1864 15.3527L18.0659 17.345L15.5915 14.4162ZM7.88018 12.1897L1.07812 16.2939L3.19476 11.4253L7.88018 12.1897ZM7.30878 16.0455L1.07812 16.2939L7.88018 12.1897L7.30878 16.0455ZM15.03 12.2184L15.4375 13.6422L13.4699 13.7521L15.03 12.2184ZM13.4699 13.7521L12.8587 12.2901L15.03 12.2184L13.4699 13.7521Z" fill="#F6851B" stroke="#F6851B" stroke-width="0.190386"/>
    <path d="M10.4557 19.7195L8.78125 19.0889L14.6045 20.0301L10.4557 19.7195Z" fill="#C0AD9E" stroke="#C0AD9E" stroke-width="0.190386"/>
    <path d="M3.19616 11.4252L2.24219 10.2499L2.6049 9.91064L3.19616 11.4252Z" fill="#763D16" stroke="#763D16" stroke-width="0.190386"/>
    <path d="M15.2653 19.3325L14.6045 20.0301L8.78125 19.0889L15.2653 19.3325Z" fill="#D7C1B3" stroke="#D7C1B3" stroke-width="0.190386"/>
    <path d="M15.5783 17.6219L8.78125 19.0887L10.3712 15.9019L15.5783 17.6219Z" fill="#E4761B" stroke="#E4761B" stroke-width="0.190386"/>
    <path d="M8.78125 19.0889L15.5783 17.6221L15.2653 19.3325L8.78125 19.0889Z" fill="#D7C1B3" stroke="#D7C1B3" stroke-width="0.190386"/>
    <path d="M2.12984 7.91341L1.90625 4.23926L6.71091 5.27605L2.12984 7.91341ZM2.60683 9.91054L1.946 9.26553L2.39318 8.82597L2.60683 9.91054Z" fill="#763D16" stroke="#763D16" stroke-width="0.190386"/>
    <path d="M11.7422 13.236L12.8552 12.29L12.6962 14.6025L11.7422 13.236Z" fill="#CD6116" stroke="#CD6116" stroke-width="0.190386"/>
    <path d="M12.8577 12.29L11.7448 13.236L10.125 14.0435L12.8577 12.29Z" fill="#CD6116" stroke="#CD6116" stroke-width="0.190386"/>
    <path d="M18.0681 17.3448L17.765 17.1298L15.5938 14.416L18.0681 17.3448Z" fill="#F6851B" stroke="#F6851B" stroke-width="0.190386"/>
    <path d="M10.1286 14.0433L7.88281 12.1895L12.8614 12.2898L10.1286 14.0433Z" fill="#CD6116" stroke="#CD6116" stroke-width="0.190386"/>
    <path d="M12.7031 14.6025L12.8621 12.29L13.4733 13.7521L12.7031 14.6025Z" fill="#E4751F" stroke="#E4751F" stroke-width="0.190386"/>
    <path d="M1.72656 8.27669L2.12902 7.91357L2.39236 8.82614L1.72656 8.27669Z" fill="#763D16" stroke="#763D16" stroke-width="0.190386"/>
    <path d="M12.6987 14.6023L10.125 14.0433L11.7448 13.2358L12.6987 14.6023Z" fill="#233447" stroke="#233447" stroke-width="0.190386"/>
    <path d="M6.71091 5.27616L1.90625 4.23937L3.86886 1L6.71091 5.27616Z" fill="#763D16" stroke="#763D16" stroke-width="0.190386"/>
    <path d="M14.6019 20.0303L14.8752 20.747L10.4531 19.7197L14.6019 20.0303Z" fill="#C0AD9E" stroke="#C0AD9E" stroke-width="0.190386"/>
    <path d="M10.3685 15.902L10.125 14.0435L12.6987 14.6025L10.3685 15.902Z" fill="#F6851B" stroke="#F6851B" stroke-width="0.190386"/>
    <path d="M7.88281 12.1895L10.1286 14.0433L10.3721 15.9018L7.88281 12.1895Z" fill="#E4751F" stroke="#E4751F" stroke-width="0.190386"/>
    <path d="M13.4736 13.7518L15.4412 13.6419L17.7665 17.1297L13.4736 13.7518ZM7.88389 12.1895L10.3732 15.9018L7.3125 16.0452L7.88389 12.1895Z" fill="#F6851B" stroke="#F6851B" stroke-width="0.190386"/>
    <path d="M13.4733 13.752L15.9178 17.3305L12.7031 14.6024L13.4733 13.752Z" fill="#E4751F" stroke="#E4751F" stroke-width="0.190386"/>
    <path d="M12.7031 14.6025L15.9178 17.3307L15.58 17.6221L12.7031 14.6025Z" fill="#F6851B" stroke="#F6851B" stroke-width="0.190386"/>
    <path d="M15.5743 17.622L10.3672 15.902L12.6975 14.6024L15.5743 17.622ZM17.7605 17.1299L15.9122 17.3305L13.4676 13.752L17.7605 17.1299Z" fill="#F6851B" stroke="#F6851B" stroke-width="0.190386"/>
    <path d="M18.2485 18.8115L17.4536 20.3452L14.8748 20.7466L18.2485 18.8115ZM14.8748 20.7466L14.6016 20.0299L15.2624 19.3323L14.8748 20.7466Z" fill="#C0AD9E" stroke="#C0AD9E" stroke-width="0.190386"/>
    <path d="M15.2626 19.3323L15.7495 19.146L14.875 20.7466L15.2626 19.3323ZM14.875 20.7466L15.7495 19.146L18.2487 18.8115L14.875 20.7466Z" fill="#C0AD9E" stroke="#C0AD9E" stroke-width="0.190386"/>
    <path d="M17.7628 17.1299L18.3739 17.4882L16.5156 17.7032L17.7628 17.1299Z" fill="#161616" stroke="#161616" stroke-width="0.190386"/>
    <path d="M16.5153 17.7032L15.9141 17.3306L17.7624 17.1299L16.5153 17.7032ZM16.3016 17.9851L18.5623 17.7223L18.2493 18.8117L16.3016 17.9851Z" fill="#161616" stroke="#161616" stroke-width="0.190386"/>
    <path d="M18.2518 18.8117L15.7526 19.1461L16.3041 17.9851L18.2518 18.8117ZM15.7526 19.1461L15.2656 19.3325L15.5786 17.622L15.7526 19.1461ZM15.5786 17.622L15.9165 17.3306L16.5177 17.7032L15.5786 17.622ZM18.376 17.4882L18.5648 17.7224L16.3041 17.9851L18.376 17.4882Z" fill="#161616" stroke="#161616" stroke-width="0.190386"/>
    <path d="M16.3035 17.9852L16.5172 17.7033L18.3755 17.4883L16.3035 17.9852ZM15.5781 17.6221L16.3035 17.9852L15.752 19.1462L15.5781 17.6221Z" fill="#161616" stroke="#161616" stroke-width="0.190386"/>
    <path d="M16.5172 17.7033L16.3035 17.9852L15.5781 17.6221L16.5172 17.7033Z" fill="#161616" stroke="#161616" stroke-width="0.190386"/>
</svg>
