<svg width="34" height="34" viewBox="0 0 34 34" fill="none" xmlns="http://www.w3.org/2000/svg">
<path d="M32.0172 23.4182L29.9967 29.9877L26.03 28.9446L32.0172 23.4182Z" fill="#E4761B" stroke="#E4761B" stroke-width="0.190386"/>
<path d="M26.03 28.9446L29.8559 23.904L32.0172 23.4182L26.03 28.9446Z" fill="#E4761B" stroke="#E4761B" stroke-width="0.190386"/>
<path d="M29.0442 18.4652L32.0171 23.4183L29.8557 23.904L29.0442 18.4652ZM29.0442 18.4652L30.9571 17.1912L32.0171 23.4183L29.0442 18.4652Z" fill="#F6851B" stroke="#F6851B" stroke-width="0.190386"/>
<path d="M26.6097 14.7226L32.1084 12.5566L31.8351 13.7431L26.6097 14.7226ZM31.6612 15.1685L26.6097 14.7226L31.8351 13.7431L31.6612 15.1685Z" fill="#763D16" stroke="#763D16" stroke-width="0.190386"/>
<path d="M31.6612 15.1685L30.9573 17.1911L26.6097 14.7226L31.6612 15.1685ZM32.7626 13.0583L31.8351 13.7431L32.1083 12.5566L32.7626 13.0583ZM31.6612 15.1685L31.8351 13.7431L32.5721 14.3324L31.6612 15.1685Z" fill="#763D16" stroke="#763D16" stroke-width="0.190386"/>
<path d="M21.7654 27.344L23.14 27.766L26.0301 28.9446L21.7654 27.344Z" fill="#E2761B" stroke="#E2761B" stroke-width="0.190386"/>
<path d="M30.9573 17.1912L31.6612 15.1686L32.2657 15.6145L30.9573 17.1912ZM30.9573 17.1912L25.2517 15.3836L26.6098 14.7227L30.9573 17.1912Z" fill="#763D16" stroke="#763D16" stroke-width="0.190386"/>
<path d="M27.9679 8.51941L26.6098 14.7226L25.2517 15.3836L27.9679 8.51941Z" fill="#763D16" stroke="#763D16" stroke-width="0.190386"/>
<path d="M32.1084 12.5567L26.6097 14.7226L27.9678 8.51941L32.1084 12.5567Z" fill="#763D16" stroke="#763D16" stroke-width="0.190386"/>
<path d="M27.9677 8.51937L33.7064 7.88232L32.1082 12.5566L27.9677 8.51937Z" fill="#763D16" stroke="#763D16" stroke-width="0.190386"/>
<path d="M30.9573 17.1912L29.0444 18.4652L25.2517 15.3835L30.9573 17.1912Z" fill="#F6851B" stroke="#F6851B" stroke-width="0.190386"/>
<path d="M33.458 3.41504L33.7064 7.88231L27.9677 8.51936L33.458 3.41504Z" fill="#763D16" stroke="#763D16" stroke-width="0.190386"/>
<path d="M33.458 3.41504L21.9888 11.4338L21.8397 5.99507L33.458 3.41504Z" fill="#E2761B" stroke="#E2761B" stroke-width="0.190386"/>
<path d="M13.3104 5.34216L21.8399 5.99513L21.989 11.4339L13.3104 5.34216Z" fill="#F6851B" stroke="#F6851B" stroke-width="0.190386"/>
<path d="M25.2516 15.3836L21.9889 11.4339L27.9678 8.51941L25.2516 15.3836Z" fill="#763D16" stroke="#763D16" stroke-width="0.190386"/>
<path d="M25.2516 15.3835L29.0443 18.4652L23.7196 19.0306L25.2516 15.3835Z" fill="#E4761B" stroke="#E4761B" stroke-width="0.190386"/>
<path d="M23.7196 19.0306L21.9889 11.4338L25.2516 15.3835L23.7196 19.0306Z" fill="#E4761B" stroke="#E4761B" stroke-width="0.190386"/>
<path d="M27.9678 8.51936L21.9889 11.4338L33.4581 3.41504L27.9678 8.51936Z" fill="#763D16" stroke="#763D16" stroke-width="0.190386"/>
<path d="M13.3849 28.8173L16.0928 31.5327L12.4077 28.3076L13.3849 28.8173Z" fill="#C0AD9E" stroke="#C0AD9E" stroke-width="0.190386"/>
<path d="M26.03 28.9447L27.3136 24.2544L29.8559 23.9041L26.03 28.9447Z" fill="#CD6116" stroke="#CD6116" stroke-width="0.190386"/>
<path d="M2.40405 15.7499L7.09112 11.0118L3.00857 15.1845L2.40405 15.7499Z" fill="#E2761B" stroke="#E2761B" stroke-width="0.190386"/>
<path d="M29.856 23.904L27.3137 24.2544L29.0444 18.4653L29.856 23.904ZM21.989 11.4339L17.4261 11.2906L13.3104 5.34216L21.989 11.4339Z" fill="#F6851B" stroke="#F6851B" stroke-width="0.190386"/>
<path d="M29.0444 18.4652L27.3136 24.2543L27.1729 21.4275L29.0444 18.4652Z" fill="#E4751F" stroke="#E4751F" stroke-width="0.190386"/>
<path d="M23.7196 19.0306L29.0443 18.4652L27.1728 21.4275L23.7196 19.0306Z" fill="#CD6116" stroke="#CD6116" stroke-width="0.190386"/>
<path d="M17.4259 11.2905L21.9888 11.4339L23.7195 19.0306L17.4259 11.2905Z" fill="#F6851B" stroke="#F6851B" stroke-width="0.190386"/>
<path d="M17.426 11.2905L5.1121 0.333374L13.3103 5.34213L17.426 11.2905ZM13.302 30.4815L2.60294 33.6667L0.466431 25.8231L13.302 30.4815Z" fill="#E4761B" stroke="#E4761B" stroke-width="0.190386"/>
<path d="M3.99414 17.7088L8.03529 14.6589L11.4222 15.4154L3.99414 17.7088Z" fill="#763D16" stroke="#763D16" stroke-width="0.190386"/>
<path d="M11.4221 15.4154L8.03516 14.6589L9.84871 7.46033L11.4221 15.4154Z" fill="#763D16" stroke="#763D16" stroke-width="0.190386"/>
<path d="M3.00854 15.1845L8.03514 14.6589L3.99399 17.7088L3.00854 15.1845Z" fill="#763D16" stroke="#763D16" stroke-width="0.190386"/>
<path d="M27.1728 21.4275L25.086 20.4162L23.7196 19.0306L27.1728 21.4275Z" fill="#CD6116" stroke="#CD6116" stroke-width="0.190386"/>
<path d="M3.00879 15.1844L2.65271 13.3768L8.03539 14.6589L3.00879 15.1844Z" fill="#763D16" stroke="#763D16" stroke-width="0.190386"/>
<path d="M24.6554 22.6936L25.086 20.4161L27.1728 21.4274L24.6554 22.6936Z" fill="#233447" stroke="#233447" stroke-width="0.190386"/>
<path d="M27.3136 24.2544L24.6554 22.6936L27.1728 21.4275L27.3136 24.2544Z" fill="#F6851B" stroke="#F6851B" stroke-width="0.190386"/>
<path d="M8.03532 14.6589L2.65264 13.3769L2.21375 11.8559L8.03532 14.6589ZM9.84887 7.46033L8.03532 14.6589L2.21375 11.8559L9.84887 7.46033ZM9.84887 7.46033L17.426 11.2906L11.4223 15.4154L9.84887 7.46033Z" fill="#763D16" stroke="#763D16" stroke-width="0.190386"/>
<path d="M11.4221 15.4154L17.4259 11.2905L20.1007 19.1501L11.4221 15.4154ZM20.1007 19.1501L11.803 18.9828L11.4221 15.4154L20.1007 19.1501Z" fill="#E4761B" stroke="#E4761B" stroke-width="0.190386"/>
<path d="M3.99414 17.7087L11.4222 15.4154L11.8032 18.9828L3.99414 17.7087ZM23.7196 19.0306L20.1008 19.1501L17.426 11.2905L23.7196 19.0306Z" fill="#F6851B" stroke="#F6851B" stroke-width="0.190386"/>
<path d="M25.086 20.4162L24.6554 22.6937L23.7196 19.0306L25.086 20.4162Z" fill="#CD6116" stroke="#CD6116" stroke-width="0.190386"/>
<path d="M5.1123 0.333374L17.4262 11.2905L9.84906 7.46031L5.1123 0.333374Z" fill="#763D16" stroke="#763D16" stroke-width="0.190386"/>
<path d="M0.466431 25.8231L10.8509 25.4091L13.302 30.4815L0.466431 25.8231Z" fill="#E4761B" stroke="#E4761B" stroke-width="0.190386"/>
<path d="M13.302 30.4815L10.8508 25.4091L15.9519 25.1702L13.302 30.4815Z" fill="#CD6116" stroke="#CD6116" stroke-width="0.190386"/>
<path d="M24.6554 22.6936L27.3136 24.2544L28.7793 27.575L24.6554 22.6936ZM11.8032 18.9828L0.466431 25.8231L3.99416 17.7087L11.8032 18.9828ZM10.8509 25.409L0.466431 25.8231L11.8032 18.9828L10.8509 25.409ZM23.7196 19.0306L24.3986 21.4036L21.1194 21.5867L23.7196 19.0306ZM21.1194 21.5867L20.1008 19.1501L23.7196 19.0306L21.1194 21.5867Z" fill="#F6851B" stroke="#F6851B" stroke-width="0.190386"/>
<path d="M16.0927 31.5326L13.302 30.4814L23.0074 32.0502L16.0927 31.5326Z" fill="#C0AD9E" stroke="#C0AD9E" stroke-width="0.190386"/>
<path d="M3.99401 17.7087L2.40405 15.7498L3.00857 15.1844L3.99401 17.7087Z" fill="#763D16" stroke="#763D16" stroke-width="0.190386"/>
<path d="M24.1088 30.8876L23.0074 32.0502L13.302 30.4814L24.1088 30.8876Z" fill="#D7C1B3" stroke="#D7C1B3" stroke-width="0.190386"/>
<path d="M24.6305 28.0369L13.302 30.4815L15.9519 25.1702L24.6305 28.0369Z" fill="#E4761B" stroke="#E4761B" stroke-width="0.190386"/>
<path d="M13.302 30.4815L24.6305 28.0369L24.1088 30.8876L13.302 30.4815Z" fill="#D7C1B3" stroke="#D7C1B3" stroke-width="0.190386"/>
<path d="M2.21359 11.8559L1.84094 5.7323L9.84871 7.46028L2.21359 11.8559ZM3.00857 15.1844L1.90719 14.1094L2.65248 13.3768L3.00857 15.1844Z" fill="#763D16" stroke="#763D16" stroke-width="0.190386"/>
<path d="M18.2458 20.7267L20.1008 19.15L19.8358 23.0041L18.2458 20.7267Z" fill="#CD6116" stroke="#CD6116" stroke-width="0.190386"/>
<path d="M20.1007 19.15L18.2458 20.7267L15.5461 22.0725L20.1007 19.15Z" fill="#CD6116" stroke="#CD6116" stroke-width="0.190386"/>
<path d="M28.7794 27.575L28.2742 27.2166L24.6554 22.6936L28.7794 27.575Z" fill="#F6851B" stroke="#F6851B" stroke-width="0.190386"/>
<path d="M15.5464 22.0725L11.8033 18.9828L20.101 19.15L15.5464 22.0725Z" fill="#CD6116" stroke="#CD6116" stroke-width="0.190386"/>
<path d="M19.8358 23.0041L20.1008 19.15L21.1194 21.5867L19.8358 23.0041Z" fill="#E4751F" stroke="#E4751F" stroke-width="0.190386"/>
<path d="M1.54297 12.4611L2.21373 11.856L2.65263 13.3769L1.54297 12.4611Z" fill="#763D16" stroke="#763D16" stroke-width="0.190386"/>
<path d="M19.8357 23.0041L15.5461 22.0724L18.2458 20.7267L19.8357 23.0041Z" fill="#233447" stroke="#233447" stroke-width="0.190386"/>
<path d="M9.84871 7.4603L1.84094 5.73232L5.11195 0.333374L9.84871 7.4603Z" fill="#763D16" stroke="#763D16" stroke-width="0.190386"/>
<path d="M23.0073 32.0502L23.4628 33.2446L16.0927 31.5326L23.0073 32.0502Z" fill="#C0AD9E" stroke="#C0AD9E" stroke-width="0.190386"/>
<path d="M15.9519 25.1701L15.5461 22.0725L19.8357 23.0042L15.9519 25.1701Z" fill="#F6851B" stroke="#F6851B" stroke-width="0.190386"/>
<path d="M11.8033 18.9828L15.5464 22.0725L15.9521 25.1701L11.8033 18.9828Z" fill="#E4751F" stroke="#E4751F" stroke-width="0.190386"/>
<path d="M21.1193 21.5867L24.3986 21.4036L28.2741 27.2166L21.1193 21.5867ZM11.8032 18.9828L15.952 25.1701L10.8508 25.409L11.8032 18.9828Z" fill="#F6851B" stroke="#F6851B" stroke-width="0.190386"/>
<path d="M21.1194 21.5868L25.1936 27.5511L19.8358 23.0042L21.1194 21.5868Z" fill="#E4751F" stroke="#E4751F" stroke-width="0.190386"/>
<path d="M19.8358 23.0042L25.1936 27.5511L24.6305 28.0368L19.8358 23.0042Z" fill="#F6851B" stroke="#F6851B" stroke-width="0.190386"/>
<path d="M24.6304 28.0369L15.9519 25.1702L19.8357 23.0042L24.6304 28.0369ZM28.2741 27.2167L25.1936 27.5511L21.1193 21.5868L28.2741 27.2167Z" fill="#F6851B" stroke="#F6851B" stroke-width="0.190386"/>
<path d="M29.086 30.0197L27.761 32.5758L23.4631 33.2447L29.086 30.0197ZM23.4631 33.2447L23.0077 32.0502L24.1091 30.8876L23.4631 33.2447Z" fill="#C0AD9E" stroke="#C0AD9E" stroke-width="0.190386"/>
<path d="M24.1088 30.8876L24.9204 30.5771L23.4629 33.2447L24.1088 30.8876ZM23.4629 33.2447L24.9204 30.5771L29.0857 30.0197L23.4629 33.2447Z" fill="#C0AD9E" stroke="#C0AD9E" stroke-width="0.190386"/>
<path d="M28.2742 27.2167L29.2928 27.8139L26.1957 28.1722L28.2742 27.2167Z" fill="#161616" stroke="#161616" stroke-width="0.190386"/>
<path d="M26.1956 28.1722L25.1936 27.5511L28.2742 27.2167L26.1956 28.1722ZM25.8395 28.6421L29.6074 28.2041L29.0857 30.0197L25.8395 28.6421Z" fill="#161616" stroke="#161616" stroke-width="0.190386"/>
<path d="M29.0858 30.0196L24.9204 30.577L25.8396 28.642L29.0858 30.0196ZM24.9204 30.577L24.1089 30.8876L24.6306 28.0368L24.9204 30.577ZM24.6306 28.0368L25.1937 27.551L26.1957 28.1721L24.6306 28.0368ZM29.2928 27.8138L29.6075 28.204L25.8396 28.642L29.2928 27.8138Z" fill="#161616" stroke="#161616" stroke-width="0.190386"/>
<path d="M25.8394 28.642L26.1955 28.1722L29.2926 27.8138L25.8394 28.642ZM24.6304 28.0368L25.8394 28.642L24.9202 30.577L24.6304 28.0368Z" fill="#161616" stroke="#161616" stroke-width="0.190386"/>
<path d="M26.1955 28.1722L25.8394 28.642L24.6304 28.0369L26.1955 28.1722Z" fill="#161616" stroke="#161616" stroke-width="0.190386"/>
</svg>
