<svg width="19" height="12" viewBox="0 0 19 12" fill="none"
    xmlns="http://www.w3.org/2000/svg">
    <path d="M3.89197 2.3456C6.98751 -0.781865 12.0125 -0.781865 15.108 2.3456L15.4807 2.72487C15.637 2.88031 15.637 3.13523 15.4807 3.29067L14.2064 4.57772C14.1283 4.65855 14.0021 4.65855 13.9239 4.57772L13.413 4.06166C11.2491 1.87927 7.75087 1.87927 5.587 4.06166L5.04002 4.61503C4.96188 4.69586 4.83565 4.69586 4.75751 4.61503L3.48323 3.32798C3.32695 3.17254 3.32695 2.91762 3.48323 2.76218L3.89197 2.3456ZM17.7468 5.00674L18.8828 6.15078C19.0391 6.30622 19.0391 6.56114 18.8828 6.71658L13.7676 11.8834C13.6114 12.0389 13.3589 12.0389 13.2086 11.8834L9.57814 8.21503C9.54208 8.17772 9.47596 8.17772 9.43989 8.21503L5.8094 11.8834C5.65312 12.0389 5.40066 12.0389 5.2504 11.8834L0.11721 6.71658C-0.0390699 6.56114 -0.0390699 6.30622 0.11721 6.15078L1.25324 5.00674C1.40952 4.8513 1.66197 4.8513 1.81224 5.00674L5.44274 8.67513C5.4788 8.71244 5.54492 8.71244 5.58099 8.67513L9.21149 5.00674C9.36777 4.8513 9.62022 4.8513 9.77049 5.00674L13.401 8.67513C13.437 8.71244 13.5032 8.71244 13.5392 8.67513L17.1697 5.00674C17.338 4.8513 17.5905 4.8513 17.7468 5.00674Z" fill="white"/>
</svg>
